<?xml version="1.0" encoding="iso-8859-1"?>
<!-- Generator: Adobe Illustrator 19.0.0, SVG Export Plug-In . SVG Version: 6.00 Build 0)  -->
<svg version="1.1" id="Capa_1" xmlns="http://www.w3.org/2000/svg" xmlns:xlink="http://www.w3.org/1999/xlink" x="0px" y="0px"
	 viewBox="0 0 475.429 475.429" style="enable-background:new 0 0 475.429 475.429;" xml:space="preserve">
<path style="fill:#4DCFE0;" d="M451.918,0H23.51C14.629,0,7.837,6.792,7.837,15.673V151.51c0,8.882,6.792,15.673,15.673,15.673
	h428.408c8.882,0,15.673-6.792,15.673-15.673V15.673C467.592,6.792,460.8,0,451.918,0z M185.992,83.592L39.184,130.09V37.094
	L185.992,83.592z M124.865,31.347h225.698L237.714,67.396L124.865,31.347z M237.714,99.788l112.849,36.049H124.865L237.714,99.788z
	 M289.437,83.592l146.808-46.498v92.996L289.437,83.592z"/>
<g>
	<path style="fill:#1185E0;" d="M451.918,203.755H222.041c-8.882,0-15.673,6.792-15.673,15.673v240.327
		c0,8.882,6.792,15.673,15.673,15.673h229.878c8.882,0,15.673-6.792,15.673-15.673V219.429
		C467.592,210.547,460.8,203.755,451.918,203.755z M315.037,339.592l-77.322,80.98V258.612L315.037,339.592z M258.612,235.102
		h156.735l-78.367,82.024L258.612,235.102z M336.98,362.057l78.367,82.024H258.612L336.98,362.057z M358.922,339.592l77.322-80.98
		v161.959L358.922,339.592z"/>
	<path style="fill:#1185E0;" d="M148.898,203.755H23.51c-8.882,0-15.673,6.792-15.673,15.673v240.327
		c0,8.882,6.792,15.673,15.673,15.673h125.388c8.882,0,15.673-6.792,15.673-15.673V219.429
		C164.571,210.547,157.78,203.755,148.898,203.755z M68.441,339.592l-29.257,56.424V283.167L68.441,339.592z M49.11,235.102h73.665
		l-36.571,70.531L49.11,235.102z M86.204,373.551l37.094,70.531H49.11L86.204,373.551z M103.967,339.592l29.257-56.424v112.327
		L103.967,339.592z"/>
</g>
<g>
</g>
<g>
</g>
<g>
</g>
<g>
</g>
<g>
</g>
<g>
</g>
<g>
</g>
<g>
</g>
<g>
</g>
<g>
</g>
<g>
</g>
<g>
</g>
<g>
</g>
<g>
</g>
<g>
</g>
</svg>
