<?xml version="1.0" encoding="iso-8859-1"?>
<!-- Generator: Adobe Illustrator 19.0.0, SVG Export Plug-In . SVG Version: 6.00 Build 0)  -->
<svg version="1.1" id="Capa_1" xmlns="http://www.w3.org/2000/svg" xmlns:xlink="http://www.w3.org/1999/xlink" x="0px" y="0px"
	 viewBox="0 0 485.878 485.878" style="enable-background:new 0 0 485.878 485.878;" xml:space="preserve">
<path style="fill:#4DCFE0;" d="M319.739,276.376c-1.045-7.837-7.314-14.106-15.673-14.106h-9.927v-9.927
	c0-27.69-22.465-50.155-50.155-50.155s-50.155,22.465-50.155,50.155v9.927h-12.016c-7.837,0-14.629,6.269-15.673,14.106
	l-11.494,112.849c-0.522,4.18,1.045,8.882,4.18,12.016c3.135,3.135,7.314,5.224,11.494,5.224h145.241
	c4.18,0,8.882-2.09,11.494-5.224c3.135-3.135,4.18-7.837,4.18-12.016L319.739,276.376z M225.175,252.343
	c0-10.449,8.359-18.808,18.808-18.808c10.449,0,18.808,8.359,18.808,18.808v9.927h-37.616L225.175,252.343L225.175,252.343z
	 M187.559,375.118l8.359-81.502h94.041l8.359,81.502H187.559z"/>
<g>
	<path style="fill:#1185E0;" d="M470.204,26.122H15.673C6.792,26.122,0,32.914,0,41.796v402.286c0,8.882,6.792,15.673,15.673,15.673
		h454.531c8.882,0,15.673-6.792,15.673-15.673V41.796C485.878,32.914,479.086,26.122,470.204,26.122z M454.531,57.469v83.592H31.347
		V57.469H454.531z M31.347,428.408v-256h423.184v256H31.347z"/>
	<circle style="fill:#1185E0;" cx="146.286" cy="99.265" r="26.122"/>
	<circle style="fill:#1185E0;" cx="214.204" cy="99.265" r="26.122"/>
	<circle style="fill:#1185E0;" cx="78.367" cy="99.265" r="26.122"/>
</g>
<g>
</g>
<g>
</g>
<g>
</g>
<g>
</g>
<g>
</g>
<g>
</g>
<g>
</g>
<g>
</g>
<g>
</g>
<g>
</g>
<g>
</g>
<g>
</g>
<g>
</g>
<g>
</g>
<g>
</g>
</svg>
