<?xml version="1.0" encoding="iso-8859-1"?>
<!-- Generator: Adobe Illustrator 19.0.0, SVG Export Plug-In . SVG Version: 6.00 Build 0)  -->
<svg version="1.1" id="Capa_1" xmlns="http://www.w3.org/2000/svg" xmlns:xlink="http://www.w3.org/1999/xlink" x="0px" y="0px"
	 viewBox="0 0 464.98 464.98" style="enable-background:new 0 0 464.98 464.98;" xml:space="preserve">
<path style="fill:#4DCFE0;" d="M352.392,75.755H112.065c-8.882,0-15.673,6.792-15.673,15.673v177.633
	c0,8.882,6.792,15.673,15.673,15.673h240.327c8.882,0,15.673-6.792,15.673-15.673V91.429
	C368.065,82.547,361.273,75.755,352.392,75.755z M206.106,180.245l-78.367,57.992V122.253L206.106,180.245z M159.608,107.102
	h145.241l-72.62,53.812L159.608,107.102z M232.229,199.576l72.62,53.812H159.608L232.229,199.576z M258.351,180.245l78.367-57.992
	v115.461L258.351,180.245z"/>
<g>
	<path style="fill:#1185E0;" d="M414.563,464.98H50.416c-8.882,0-15.673-6.792-15.673-15.673V15.673C34.743,6.792,41.535,0,50.416,0
		h364.147c8.882,0,15.673,6.792,15.673,15.673v433.633C430.237,458.188,423.445,464.98,414.563,464.98z M66.09,433.633h332.8V31.347
		H66.09V433.633z"/>
	<path style="fill:#1185E0;" d="M352.392,347.429H112.065c-8.882,0-15.673-6.792-15.673-15.673s6.792-15.673,15.673-15.673h240.327
		c8.882,0,15.673,6.792,15.673,15.673S361.273,347.429,352.392,347.429z"/>
	<path style="fill:#1185E0;" d="M352.392,399.673H112.065c-8.882,0-15.673-6.792-15.673-15.673s6.792-15.673,15.673-15.673h240.327
		c8.882,0,15.673,6.792,15.673,15.673S361.273,399.673,352.392,399.673z"/>
</g>
<g>
</g>
<g>
</g>
<g>
</g>
<g>
</g>
<g>
</g>
<g>
</g>
<g>
</g>
<g>
</g>
<g>
</g>
<g>
</g>
<g>
</g>
<g>
</g>
<g>
</g>
<g>
</g>
<g>
</g>
</svg>
