<?xml version="1.0" encoding="iso-8859-1"?>
<!-- Generator: Adobe Illustrator 19.0.0, SVG Export Plug-In . SVG Version: 6.00 Build 0)  -->
<svg version="1.1" id="Capa_1" xmlns="http://www.w3.org/2000/svg" xmlns:xlink="http://www.w3.org/1999/xlink" x="0px" y="0px"
	 viewBox="0 0 426.318 426.318" style="enable-background:new 0 0 426.318 426.318;" xml:space="preserve">
<path style="fill:#1185E0;" d="M315.037,128V15.673H283.69V128c0,38.139-31.347,69.486-69.486,69.486S144.718,166.139,144.718,128
	V15.673h-31.347V128c0,36.049,18.808,67.396,47.02,85.159c-28.212,17.763-47.02,49.11-47.02,85.159v112.327h31.347V298.318
	c0-38.139,31.347-69.486,69.486-69.486s69.486,31.347,69.486,69.486v112.327h31.347V298.318c0-36.049-18.808-67.396-47.02-85.159
	C296.229,195.396,315.037,164.049,315.037,128z"/>
<g>
	<path style="fill:#4DCFE0;" d="M335.412,31.347H90.906c-8.882,0-15.673-6.792-15.673-15.673S82.024,0,90.906,0h244.506
		c8.882,0,15.673,6.792,15.673,15.673S344.294,31.347,335.412,31.347z"/>
	<path style="fill:#4DCFE0;" d="M335.412,426.318H90.906c-8.882,0-15.673-6.792-15.673-15.673s6.792-15.673,15.673-15.673h244.506
		c8.882,0,15.673,6.792,15.673,15.673S344.294,426.318,335.412,426.318z"/>
</g>
<g>
</g>
<g>
</g>
<g>
</g>
<g>
</g>
<g>
</g>
<g>
</g>
<g>
</g>
<g>
</g>
<g>
</g>
<g>
</g>
<g>
</g>
<g>
</g>
<g>
</g>
<g>
</g>
<g>
</g>
</svg>
