<?xml version="1.0" encoding="iso-8859-1"?>
<!-- Generator: Adobe Illustrator 19.0.0, SVG Export Plug-In . SVG Version: 6.00 Build 0)  -->
<svg version="1.1" id="Capa_1" xmlns="http://www.w3.org/2000/svg" xmlns:xlink="http://www.w3.org/1999/xlink" x="0px" y="0px"
	 viewBox="0 0 500.506 500.506" style="enable-background:new 0 0 500.506 500.506;" xml:space="preserve">
<g>
	
		<rect x="309.858" y="164.563" transform="matrix(-0.1973 -0.9803 0.9803 -0.1973 183.1061 571.5216)" style="fill:#1185E0;" width="31.346" height="92.47"/>
	<path style="fill:#1185E0;" d="M479.102,198.531L426.335,11.494c-1.045-4.702-4.18-8.359-8.882-9.927
		c-4.18-2.09-8.882-2.09-13.061,0l-83.069,39.706c-5.747,2.612-8.882,8.359-8.882,14.106l-80.98,29.78l-5.224-19.331l6.269-1.567
		c8.359-2.612,13.061-10.971,10.971-19.331c-2.612-8.359-10.971-13.061-19.331-10.971l-41.796,12.016
		c-8.359,2.612-13.061,10.971-10.971,19.331c2.09,6.792,8.359,11.494,15.151,11.494c1.567,0,3.135,0,4.18-0.522l5.747-1.567
		l5.747,21.42l-132.18,48.065c-7.837,2.612-12.016,10.971-9.927,18.808l2.09,6.792l-31.347,12.539
		c-7.314,3.135-11.494,10.971-9.404,18.808l13.584,46.498c2.09,6.792,8.359,11.494,15.151,11.494c1.045,0,1.567,0,2.612,0
		l32.392-5.747l1.567,6.269c2.09,6.792,8.359,11.494,15.151,11.494c1.045,0,2.09,0,3.135-0.522l118.073-23.51l-6.269-30.824
		l-21.943,4.18l-22.465-80.98l147.853-53.812l37.094,130.612c2.09,6.792,8.359,11.494,15.151,11.494c0.522,0,1.045,0,1.567,0
		l91.429-9.404c4.702-0.522,8.882-3.135,11.494-6.792C479.625,207.935,480.147,202.71,479.102,198.531z M61.143,225.698
		l-5.747-19.331l15.151-5.747l6.269,22.465L61.143,225.698z M113.388,237.192l-19.331-68.963l49.11-17.763l21.42,76.278
		L113.388,237.192z M384.017,195.396L346.923,64.261l54.335-26.122l42.318,150.988L384.017,195.396z"/>
</g>
<path style="fill:#4DCFE0;" d="M357.894,461.322l-91.951-132.18v-61.127c17.241-6.269,29.78-22.988,29.78-42.841
	c0-25.078-20.376-45.453-45.453-45.453s-45.453,20.376-45.453,45.453c0,19.331,12.539,36.049,29.78,42.841v61.127l-91.429,132.18
	c-4.702,7.314-3.135,16.718,4.18,21.943c2.612,2.09,5.747,2.612,8.882,2.612c5.224,0,9.927-2.612,13.061-6.792L234.596,384v100.833
	c0,8.882,6.792,15.673,15.673,15.673c8.882,0,15.673-6.792,15.673-15.673V384l65.829,95.086c4.702,7.314,14.629,8.882,21.943,4.18
	C361.029,478.041,362.596,468.637,357.894,461.322z M250.27,211.069c7.837,0,14.106,6.269,14.106,14.106
	s-6.269,14.106-14.106,14.106c-7.837,0-14.106-6.269-14.106-14.106S242.433,211.069,250.27,211.069z"/>
<g>
</g>
<g>
</g>
<g>
</g>
<g>
</g>
<g>
</g>
<g>
</g>
<g>
</g>
<g>
</g>
<g>
</g>
<g>
</g>
<g>
</g>
<g>
</g>
<g>
</g>
<g>
</g>
<g>
</g>
</svg>
