<?xml version="1.0" encoding="iso-8859-1"?>
<!-- Generator: Adobe Illustrator 19.0.0, SVG Export Plug-In . SVG Version: 6.00 Build 0)  -->
<svg version="1.1" id="Capa_1" xmlns="http://www.w3.org/2000/svg" xmlns:xlink="http://www.w3.org/1999/xlink" x="0px" y="0px"
	 viewBox="0 0 485.878 485.878" style="enable-background:new 0 0 485.878 485.878;" xml:space="preserve">
<path style="fill:#00BBD3;" d="M242.939,401.241c-87.249,0-158.302-71.053-158.302-158.302S155.69,84.637,242.939,84.637
	s158.302,71.053,158.302,158.302S330.188,401.241,242.939,401.241z M242.939,115.984c-70.008,0-126.955,56.947-126.955,126.955
	s56.947,126.955,126.955,126.955s126.955-56.947,126.955-126.955S312.947,115.984,242.939,115.984z"/>
<g>
	<path style="fill:#1185E0;" d="M242.939,187.037c-8.882,0-15.673-6.792-15.673-15.673V15.673C227.265,6.792,234.057,0,242.939,0
		s15.673,6.792,15.673,15.673v155.69C258.612,180.245,251.82,187.037,242.939,187.037z"/>
	<path style="fill:#1185E0;" d="M242.939,485.878c-8.882,0-15.673-6.792-15.673-15.673v-155.69c0-8.882,6.792-15.673,15.673-15.673
		s15.673,6.792,15.673,15.673v155.69C258.612,479.086,251.82,485.878,242.939,485.878z"/>
	<path style="fill:#1185E0;" d="M470.204,258.612h-155.69c-8.882,0-15.673-6.792-15.673-15.673s6.792-15.673,15.673-15.673h155.69
		c8.882,0,15.673,6.792,15.673,15.673S479.086,258.612,470.204,258.612z"/>
	<path style="fill:#1185E0;" d="M171.363,258.612H15.673C6.792,258.612,0,251.82,0,242.939s6.792-15.673,15.673-15.673h155.69
		c8.882,0,15.673,6.792,15.673,15.673S180.245,258.612,171.363,258.612z"/>
</g>
<g>
</g>
<g>
</g>
<g>
</g>
<g>
</g>
<g>
</g>
<g>
</g>
<g>
</g>
<g>
</g>
<g>
</g>
<g>
</g>
<g>
</g>
<g>
</g>
<g>
</g>
<g>
</g>
<g>
</g>
</svg>
