<?xml version="1.0" encoding="iso-8859-1"?>
<!-- Generator: Adobe Illustrator 19.0.0, SVG Export Plug-In . SVG Version: 6.00 Build 0)  -->
<svg version="1.1" id="Capa_1" xmlns="http://www.w3.org/2000/svg" xmlns:xlink="http://www.w3.org/1999/xlink" x="0px" y="0px"
	 viewBox="0 0 416.914 416.914" style="enable-background:new 0 0 416.914 416.914;" xml:space="preserve">
<g>
	<path style="fill:#1185E0;" d="M208.457,405.42c-8.882,0-15.673-6.792-15.673-15.673V287.869c0-8.882,6.792-15.673,15.673-15.673
		s15.673,6.792,15.673,15.673v101.878C224.131,398.629,217.339,405.42,208.457,405.42z"/>
	<path style="fill:#1185E0;" d="M208.457,224.131c-8.882,0-15.673-6.792-15.673-15.673V27.167c0-8.882,6.792-15.673,15.673-15.673
		s15.673,6.792,15.673,15.673v181.29C224.131,217.339,217.339,224.131,208.457,224.131z"/>
	<path style="fill:#1185E0;" d="M55.38,405.42c-8.882,0-15.673-6.792-15.673-15.673V202.71c0-8.882,6.792-15.673,15.673-15.673
		s15.673,6.792,15.673,15.673v187.037C71.053,398.629,64.261,405.42,55.38,405.42z"/>
	<path style="fill:#1185E0;" d="M55.38,138.971c-8.882,0-15.673-6.792-15.673-15.673V27.167c0-8.882,6.792-15.673,15.673-15.673
		s15.673,6.792,15.673,15.673v96.131C71.053,132.18,64.261,138.971,55.38,138.971z"/>
</g>
<path style="fill:#4DCFE0;" d="M248.163,303.543h-79.412c-8.882,0-15.673-6.792-15.673-15.673v-79.412
	c0-8.882,6.792-15.673,15.673-15.673h79.412c8.882,0,15.673,6.792,15.673,15.673v79.412
	C263.837,296.751,257.045,303.543,248.163,303.543z M184.424,272.196h48.065v-48.065h-48.065V272.196z"/>
<g>
	<path style="fill:#1185E0;" d="M361.535,405.42c-8.882,0-15.673-6.792-15.673-15.673V202.71c0-8.882,6.792-15.673,15.673-15.673
		s15.673,6.792,15.673,15.673v187.037C377.208,398.629,370.416,405.42,361.535,405.42z"/>
	<path style="fill:#1185E0;" d="M361.535,138.971c-8.882,0-15.673-6.792-15.673-15.673V27.167c0-8.882,6.792-15.673,15.673-15.673
		s15.673,6.792,15.673,15.673v96.131C377.208,132.18,370.416,138.971,361.535,138.971z"/>
</g>
<g>
	<path style="fill:#4DCFE0;" d="M95.086,218.384H15.673C6.792,218.384,0,211.592,0,202.71v-79.412
		c0-8.882,6.792-15.673,15.673-15.673h79.412c8.882,0,15.673,6.792,15.673,15.673v79.412
		C110.759,211.592,103.967,218.384,95.086,218.384z M31.347,187.037h48.065v-48.065H31.347
		C31.347,138.971,31.347,187.037,31.347,187.037z"/>
	<path style="fill:#4DCFE0;" d="M401.241,218.384h-79.412c-8.882,0-15.673-6.792-15.673-15.673v-79.412
		c0-8.882,6.792-15.673,15.673-15.673h79.412c8.882,0,15.673,6.792,15.673,15.673v79.412
		C416.914,211.592,410.122,218.384,401.241,218.384z M337.502,187.037h48.065v-48.065h-48.065V187.037z"/>
</g>
<g>
</g>
<g>
</g>
<g>
</g>
<g>
</g>
<g>
</g>
<g>
</g>
<g>
</g>
<g>
</g>
<g>
</g>
<g>
</g>
<g>
</g>
<g>
</g>
<g>
</g>
<g>
</g>
<g>
</g>
</svg>
