<?xml version="1.0" encoding="iso-8859-1"?>
<!-- Generator: Adobe Illustrator 19.0.0, SVG Export Plug-In . SVG Version: 6.00 Build 0)  -->
<svg version="1.1" id="Capa_1" xmlns="http://www.w3.org/2000/svg" xmlns:xlink="http://www.w3.org/1999/xlink" x="0px" y="0px"
	 viewBox="0 0 434.155 434.155" style="enable-background:new 0 0 434.155 434.155;" xml:space="preserve">
<g>
	<path style="fill:#1185E0;" d="M418.482,57.469H15.673C6.792,57.469,0,64.261,0,73.143v273.241c0,8.882,6.792,15.673,15.673,15.673
		h145.241l-55.38,44.408c-6.792,5.224-7.837,15.151-2.612,21.943c3.135,3.657,7.837,5.747,12.016,5.747
		c3.657,0,6.792-1.045,9.927-3.657l86.204-68.441h11.494l86.727,67.918c2.612,2.09,6.269,3.135,9.404,3.135
		c4.702,0,9.404-2.09,12.539-6.269c5.224-6.792,4.18-16.718-2.612-21.943l-54.857-42.841h144.718
		c8.882,0,15.673-6.792,15.673-15.673V73.143C434.155,64.261,427.363,57.469,418.482,57.469z M402.808,330.71H31.347V88.816h371.461
		V330.71z"/>
	<path style="fill:#1185E0;" d="M373.029,31.347H62.171c-8.882,0-15.673-6.792-15.673-15.673S53.29,0,62.171,0h310.857
		c8.882,0,15.673,6.792,15.673,15.673S381.91,31.347,373.029,31.347z"/>
</g>
<g>
	<path style="fill:#4DCFE0;" d="M80.457,308.245c-4.18,0-7.837-1.567-10.971-4.702c-6.269-6.269-6.269-16.196,0-21.943
		l61.127-60.604c6.269-6.269,16.196-6.269,21.943,0l19.331,19.331l64.784-64.784c6.269-6.269,16.196-6.269,21.943,0l16.196,16.196
		l63.216-62.694c6.269-6.269,16.196-6.269,21.943,0c6.269,6.269,6.269,16.196,0,21.943l-74.188,73.665
		c-6.269,6.269-16.196,6.269-21.943,0l-16.196-16.196l-64.784,64.784c-6.269,6.269-16.196,6.269-21.943,0l-19.331-19.331
		l-50.155,49.633C88.294,306.678,84.637,308.245,80.457,308.245z"/>
	<path style="fill:#4DCFE0;" d="M352.653,237.714c-8.882,0-15.673-6.792-15.673-15.673V151.51h-71.053
		c-8.882,0-15.673-6.792-15.673-15.673s6.792-15.673,15.673-15.673h86.727c8.882,0,15.673,6.792,15.673,15.673v86.204
		C368.327,230.922,361.535,237.714,352.653,237.714z"/>
</g>
<g>
</g>
<g>
</g>
<g>
</g>
<g>
</g>
<g>
</g>
<g>
</g>
<g>
</g>
<g>
</g>
<g>
</g>
<g>
</g>
<g>
</g>
<g>
</g>
<g>
</g>
<g>
</g>
<g>
</g>
</svg>
