<?xml version="1.0" encoding="iso-8859-1"?>
<!-- Generator: Adobe Illustrator 19.0.0, SVG Export Plug-In . SVG Version: 6.00 Build 0)  -->
<svg version="1.1" id="Capa_1" xmlns="http://www.w3.org/2000/svg" xmlns:xlink="http://www.w3.org/1999/xlink" x="0px" y="0px"
	 viewBox="0 0 467.069 467.069" style="enable-background:new 0 0 467.069 467.069;" xml:space="preserve">
<g>
	<path style="fill:#1185E0;" d="M430.498,454.008H36.571C16.196,454.008,0,437.812,0,417.437V49.633
		c0-20.376,16.196-36.571,36.571-36.571h393.927c20.376,0,36.571,16.196,36.571,36.571v367.804
		C467.069,437.812,450.873,454.008,430.498,454.008z M36.571,44.408c-2.612,0-5.224,2.612-5.224,5.224v367.804
		c0,2.612,2.612,5.224,5.224,5.224h393.927c2.612,0,5.224-2.612,5.224-5.224V49.633c0-2.612-2.612-5.224-5.224-5.224H36.571z"/>
	<path style="fill:#1185E0;" d="M204.8,147.853c-47.02,0-85.682,38.661-85.682,85.682s38.661,85.682,85.682,85.682
		s85.682-38.661,85.682-85.682S251.82,147.853,204.8,147.853z M220.473,285.78v-17.241c0-8.882-6.792-15.673-15.673-15.673
		c-8.882,0-15.673,6.792-15.673,15.673v17.241c-16.718-5.224-29.78-17.763-35.527-33.959h18.286c8.882,0,15.673-6.792,15.673-15.673
		s-6.792-15.673-15.673-15.673h-19.853c4.702-18.808,18.808-33.437,37.094-39.184v21.943c0,8.882,6.792,15.673,15.673,15.673
		c8.882,0,15.673-6.792,15.673-15.673V181.29c18.286,5.747,32.392,20.376,37.094,39.184h-19.853
		c-8.882,0-15.673,6.792-15.673,15.673s6.792,15.673,15.673,15.673H256C250.253,268.016,237.192,280.555,220.473,285.78z"/>
</g>
<path style="fill:#4DCFE0;" d="M398.629,215.771c8.882,0,15.673-6.792,15.673-15.673v-68.963c0-8.882-6.792-15.673-15.673-15.673
	H388.18V81.502c0-8.882-6.792-15.673-15.673-15.673H68.441c-8.882,0-15.673,6.792-15.673,15.673v304.065
	c0,8.882,6.792,15.673,15.673,15.673h304.065c8.882,0,15.673-6.792,15.673-15.673v-33.959h10.449
	c8.882,0,15.673-6.792,15.673-15.673v-68.963c0-8.882-6.792-15.673-15.673-15.673H388.18v-35.527L398.629,215.771L398.629,215.771z
	 M382.955,146.808v37.616h-19.331v-37.616H382.955z M382.955,282.645v37.616h-19.331v-37.616L382.955,282.645L382.955,282.645z
	 M356.833,251.298h-8.882c-8.882,0-15.673,6.792-15.673,15.673v68.963c0,8.882,6.792,15.673,15.673,15.673h8.882v18.286H84.114
	V97.176h272.718v18.286h-8.882c-8.882,0-15.673,6.792-15.673,15.673v68.963c0,8.882,6.792,15.673,15.673,15.673h8.882V251.298z"/>
<g>
</g>
<g>
</g>
<g>
</g>
<g>
</g>
<g>
</g>
<g>
</g>
<g>
</g>
<g>
</g>
<g>
</g>
<g>
</g>
<g>
</g>
<g>
</g>
<g>
</g>
<g>
</g>
<g>
</g>
</svg>
