<?xml version="1.0" encoding="iso-8859-1"?>
<!-- Generator: Adobe Illustrator 19.0.0, SVG Export Plug-In . SVG Version: 6.00 Build 0)  -->
<svg version="1.1" id="Capa_1" xmlns="http://www.w3.org/2000/svg" xmlns:xlink="http://www.w3.org/1999/xlink" x="0px" y="0px"
	 viewBox="0 0 470.204 470.204" style="enable-background:new 0 0 470.204 470.204;" xml:space="preserve">
<path style="fill:#1185E0;" d="M454.531,329.143H15.673C6.792,329.143,0,322.351,0,313.469V104.49
	c0-8.882,6.792-15.673,15.673-15.673h438.857c8.882,0,15.673,6.792,15.673,15.673v208.98
	C470.204,322.351,463.412,329.143,454.531,329.143z M31.347,297.796h407.51V120.163H31.347V297.796z"/>
<g>
	<path style="fill:#4DCFE0;" d="M334.367,276.898c-37.616,0-67.918-30.302-67.918-67.918s30.302-67.918,67.918-67.918
		s67.918,30.302,67.918,67.918S371.984,276.898,334.367,276.898z M334.367,172.408c-20.376,0-36.571,16.196-36.571,36.571
		s16.196,36.571,36.571,36.571s36.571-16.196,36.571-36.571S354.743,172.408,334.367,172.408z"/>
	<path style="fill:#4DCFE0;" d="M203.755,193.306H73.143c-8.882,0-15.673-6.792-15.673-15.673s6.792-15.673,15.673-15.673h130.612
		c8.882,0,15.673,6.792,15.673,15.673S212.637,193.306,203.755,193.306z"/>
	<path style="fill:#4DCFE0;" d="M203.755,245.551H73.143c-8.882,0-15.673-6.792-15.673-15.673s6.792-15.673,15.673-15.673h130.612
		c8.882,0,15.673,6.792,15.673,15.673S212.637,245.551,203.755,245.551z"/>
</g>
<g>
	<path style="fill:#1185E0;" d="M161.959,381.388H47.02c-8.882,0-15.673-6.792-15.673-15.673c0-8.882,6.792-15.673,15.673-15.673
		h114.939c8.882,0,15.673,6.792,15.673,15.673C177.633,374.596,170.841,381.388,161.959,381.388z"/>
	<path style="fill:#1185E0;" d="M423.184,381.388H308.245c-8.882,0-15.673-6.792-15.673-15.673c0-8.882,6.792-15.673,15.673-15.673
		h114.939c8.882,0,15.673,6.792,15.673,15.673C438.857,374.596,432.065,381.388,423.184,381.388z"/>
</g>
<g>
</g>
<g>
</g>
<g>
</g>
<g>
</g>
<g>
</g>
<g>
</g>
<g>
</g>
<g>
</g>
<g>
</g>
<g>
</g>
<g>
</g>
<g>
</g>
<g>
</g>
<g>
</g>
<g>
</g>
</svg>
