<?xml version="1.0" encoding="iso-8859-1"?>
<!-- Generator: Adobe Illustrator 19.0.0, SVG Export Plug-In . SVG Version: 6.00 Build 0)  -->
<svg version="1.1" id="Capa_1" xmlns="http://www.w3.org/2000/svg" xmlns:xlink="http://www.w3.org/1999/xlink" x="0px" y="0px"
	 viewBox="0 0 490.057 490.057" style="enable-background:new 0 0 490.057 490.057;" xml:space="preserve">
<g>
	<path style="fill:#4DCFE0;" d="M221.06,218.384h-31.347V92.473L174.04,61.127l-15.673,31.347v125.91h-31.347V88.816
		c0-2.612,0.522-4.702,1.567-6.792l31.347-62.694c2.612-5.224,7.837-8.882,14.106-8.882c6.269,0,11.494,3.135,14.106,8.882
		l31.347,62.694c1.045,2.09,1.567,4.702,1.567,6.792V218.384z"/>
	<path style="fill:#4DCFE0;" d="M346.448,0h-62.694c-8.882,0-15.673,6.792-15.673,15.673v202.71h31.347V94.041h31.347v124.343
		h31.347V15.673C362.121,6.792,355.329,0,346.448,0z M299.427,62.694V31.347h31.347v31.347H299.427z"/>
</g>
<path style="fill:#1185E0;" d="M408.619,209.502c-3.135-3.135-7.314-5.224-11.494-5.224H92.015c-4.702,0-8.882,2.09-11.494,5.224
	c-3.135,3.135-4.18,7.837-3.657,12.539l31.347,254.433c1.045,7.837,7.837,13.584,15.673,13.584h242.416
	c7.837,0,14.629-5.747,15.673-13.584l31.347-254.433C413.321,217.339,411.754,213.159,408.619,209.502z M137.468,458.71
	l-7.314-57.469h228.833l-7.314,57.469H137.468z M362.644,369.894H126.497l-16.718-134.269h269.584L362.644,369.894z"/>
<g>
</g>
<g>
</g>
<g>
</g>
<g>
</g>
<g>
</g>
<g>
</g>
<g>
</g>
<g>
</g>
<g>
</g>
<g>
</g>
<g>
</g>
<g>
</g>
<g>
</g>
<g>
</g>
<g>
</g>
</svg>
