<?xml version="1.0" encoding="iso-8859-1"?>
<!-- Generator: Adobe Illustrator 19.0.0, SVG Export Plug-In . SVG Version: 6.00 Build 0)  -->
<svg version="1.1" id="Capa_1" xmlns="http://www.w3.org/2000/svg" xmlns:xlink="http://www.w3.org/1999/xlink" x="0px" y="0px"
	 viewBox="0 0 498.416 498.416" style="enable-background:new 0 0 498.416 498.416;" xml:space="preserve">
<path style="fill:#1185E0;" d="M277.159,262.792h-31.347V55.902c0-13.584-10.971-24.555-24.555-24.555
	c-13.584,0-24.555,10.971-24.555,24.555v166.139h-31.347V55.902C165.355,25.078,190.433,0,221.257,0s55.902,25.078,55.902,55.902
	V262.792z"/>
<path style="fill:#4DCFE0;" d="M222.824,498.416c-4.18,0-7.837-1.567-10.971-4.702L61.91,343.771
	c-6.269-5.747-6.269-16.196,0-21.943l176.065-176.065l21.943,21.943L94.824,332.8l128,128l165.094-165.094l21.943,21.943
	L233.796,493.714C230.661,496.849,227.004,498.416,222.824,498.416z"/>
<path style="fill:#1185E0;" d="M425.535,345.861c-4.18,0-7.837-1.567-10.971-4.702L214.988,141.061
	c-6.269-6.269-6.269-16.196,0-21.943c6.269-6.269,16.196-6.269,21.943,0l199.576,200.098c6.269,6.269,6.269,16.196,0,21.943
	C433.371,344.294,429.714,345.861,425.535,345.861z"/>
<path style="fill:#4DCFE0;" d="M259.918,340.637c-24.555,0-44.931-20.376-44.931-44.931s20.376-44.931,44.931-44.931
	c24.555,0,44.931,20.376,44.931,44.931S284.473,340.637,259.918,340.637z M259.918,282.122c-7.314,0-13.584,6.269-13.584,13.584
	c0,7.314,6.269,13.584,13.584,13.584c7.314,0,13.584-6.269,13.584-13.584C273.502,288.392,267.233,282.122,259.918,282.122z"/>
<g>
</g>
<g>
</g>
<g>
</g>
<g>
</g>
<g>
</g>
<g>
</g>
<g>
</g>
<g>
</g>
<g>
</g>
<g>
</g>
<g>
</g>
<g>
</g>
<g>
</g>
<g>
</g>
<g>
</g>
</svg>
