<?xml version="1.0" encoding="iso-8859-1"?>
<!-- Generator: Adobe Illustrator 19.0.0, SVG Export Plug-In . SVG Version: 6.00 Build 0)  -->
<svg version="1.1" id="Capa_1" xmlns="http://www.w3.org/2000/svg" xmlns:xlink="http://www.w3.org/1999/xlink" x="0px" y="0px"
	 viewBox="0 0 417.959 417.959" style="enable-background:new 0 0 417.959 417.959;" xml:space="preserve">
<path style="fill:#1185E0;" d="M371.461,114.939L260.702,4.702C258.09,1.567,253.91,0,249.731,0H57.469
	c-8.882,0-15.673,6.792-15.673,15.673v386.612c0,8.882,6.792,15.673,15.673,15.673h303.02c8.882,0,15.673-6.792,15.673-15.673
	V125.91C376.163,121.731,374.596,117.551,371.461,114.939z M266.449,54.335l55.38,55.38h-55.38V54.335z M344.816,386.612H73.143
	V31.347h161.959v94.041c0,8.882,6.792,15.673,15.673,15.673h94.041V386.612z"/>
<g>
</g>
<g>
</g>
<g>
</g>
<g>
</g>
<g>
</g>
<g>
</g>
<g>
</g>
<g>
</g>
<g>
</g>
<g>
</g>
<g>
</g>
<g>
</g>
<g>
</g>
<g>
</g>
<g>
</g>
</svg>
