<?xml version="1.0" encoding="iso-8859-1"?>
<!-- Generator: Adobe Illustrator 19.0.0, SVG Export Plug-In . SVG Version: 6.00 Build 0)  -->
<svg version="1.1" id="Capa_1" xmlns="http://www.w3.org/2000/svg" xmlns:xlink="http://www.w3.org/1999/xlink" x="0px" y="0px"
	 viewBox="0 0 465.111 465.111" style="enable-background:new 0 0 465.111 465.111;" xml:space="preserve">
<path style="fill:#4DCFE0;" d="M365.258,255.096v74.71l-117.029,67.396V251.439h-31.347v145.763l-116.506-67.396v-74.71H69.029
	v83.592c0,5.747,3.135,10.971,7.837,13.584l147.853,85.682c2.612,1.567,5.224,2.09,7.837,2.09s5.224-0.522,7.837-2.09
	l148.376-85.682c4.702-2.612,7.837-7.837,7.837-13.584v-83.592L365.258,255.096L365.258,255.096z"/>
<path style="fill:#1185E0;" d="M458.254,200.239l-48.588-32.392l48.588-32.392c4.702-3.135,7.314-7.837,6.792-13.584
	c0-5.224-3.135-10.449-7.314-13.061L323.462,27.308c-4.702-2.612-10.449-3.135-15.151-0.522L232.556,65.97l-75.233-39.184
	c-4.702-2.612-10.449-2.09-15.151,0.522L7.38,108.81c-4.702,2.612-7.314,7.837-7.314,13.061c0,5.224,2.612,10.449,6.792,13.584
	l49.11,32.392l-49.11,32.392c-4.702,3.135-7.314,7.837-6.792,13.584c0,5.224,3.135,10.449,7.314,13.061l67.396,40.751l66.873,40.751
	c2.612,1.567,5.224,2.09,8.359,2.09c2.612,0,5.224-0.522,7.314-1.567l75.233-39.706l75.233,39.706
	c2.09,1.045,4.702,1.567,7.314,1.567s5.747-0.522,8.359-2.09l66.873-40.751l67.396-40.751c4.702-2.612,7.314-7.837,7.314-13.061
	C465.046,208.076,462.433,203.374,458.254,200.239z M232.556,233.676l-115.984-65.829l115.984-65.829l116.506,65.829
	L232.556,233.676z M314.58,58.655l105.535,64.261l-39.706,26.645L265.47,84.255L314.58,58.655z M150.531,58.655l49.11,25.6
	L85.225,149.561l-40.229-26.645L150.531,58.655z M150.531,277.039L44.997,212.778l40.229-26.645l114.416,64.784L150.531,277.039z
	 M314.58,277.039l-49.11-25.6l114.939-64.784l39.706,26.645L314.58,277.039z"/>
<g>
</g>
<g>
</g>
<g>
</g>
<g>
</g>
<g>
</g>
<g>
</g>
<g>
</g>
<g>
</g>
<g>
</g>
<g>
</g>
<g>
</g>
<g>
</g>
<g>
</g>
<g>
</g>
<g>
</g>
</svg>
