<?xml version="1.0" encoding="iso-8859-1"?>
<!-- Generator: Adobe Illustrator 19.0.0, SVG Export Plug-In . SVG Version: 6.00 Build 0)  -->
<svg version="1.1" id="Capa_1" xmlns="http://www.w3.org/2000/svg" xmlns:xlink="http://www.w3.org/1999/xlink" x="0px" y="0px"
	 viewBox="0 0 498.357 498.357" style="enable-background:new 0 0 498.357 498.357;" xml:space="preserve">
<path style="fill:#4DCFE0;" d="M350.041,470.174h-183.38c-7.837,0-14.629-6.269-15.673-14.106c0-1.045-13.061-123.82-18.286-212.637
	l31.347-1.567c4.18,70.531,13.061,162.482,16.718,197.486h155.167l6.269-55.902c1.045-7.314,6.792-13.061,14.629-14.106
	l54.335-4.702l-3.135-73.665c-0.522-8.359,6.269-15.673,14.629-16.196l36.571-3.135l-39.184-83.069
	c-1.045-2.09-1.567-4.18-1.567-6.792c0-65.306-60.082-122.253-129.045-122.253c-54.335,0-106.057,34.482-122.776,82.547
	c0,0.522-0.522,1.045-0.522,1.567c-0.522,1.045-4.702,12.016-3.135,66.351l-31.347,1.045c-1.567-54.335,2.09-71.576,5.747-79.935
	c20.898-59.559,84.637-102.922,152.033-102.922c85.682,0,158.302,68.441,160.392,149.943l47.02,100.31
	c2.09,4.702,2.09,9.927-0.522,14.629c-2.612,4.702-7.314,7.314-12.539,7.837l-43.886,3.657l3.135,73.665
	c0.522,8.359-6.269,15.673-14.629,16.196l-56.424,4.18l-6.269,56.947C364.669,464.427,357.878,470.174,350.041,470.174z"/>
<g>
	<path style="fill:#1185E0;" d="M282.122,176.035h-25.078v-16.718c0-8.882-6.792-15.673-15.673-15.673h-42.841
		c-8.882,0-15.673,6.792-15.673,15.673v67.396h-67.396v-67.396c0-8.882-6.792-15.673-15.673-15.673H56.947
		c-8.882,0-15.673,6.792-15.673,15.673v16.718h-25.6C6.792,176.035,0,182.827,0,191.709v66.873c0,8.882,6.792,15.673,15.673,15.673
		h25.6v17.241c0,8.882,6.792,15.673,15.673,15.673h42.841c8.882,0,15.673-6.792,15.673-15.673V258.06h67.396v33.437
		c0,8.882,6.792,15.673,15.673,15.673h42.841c8.882,0,15.673-6.792,15.673-15.673v-17.241h25.078
		c8.882,0,15.673-6.792,15.673-15.673v-66.873C297.796,182.827,291.004,176.035,282.122,176.035z M31.347,242.909v-35.527h9.927
		v35.527H31.347z M84.114,275.823H72.62V174.99h11.494V275.823z M225.698,275.823h-11.494V174.99h11.494V275.823z M266.449,242.909
		h-9.404v-35.527h9.404V242.909z"/>
	<rect x="99.788" y="195.888" style="fill:#1185E0;" width="95.608" height="31.347"/>
</g>
<g>
</g>
<g>
</g>
<g>
</g>
<g>
</g>
<g>
</g>
<g>
</g>
<g>
</g>
<g>
</g>
<g>
</g>
<g>
</g>
<g>
</g>
<g>
</g>
<g>
</g>
<g>
</g>
<g>
</g>
</svg>
