<?xml version="1.0" encoding="iso-8859-1"?>
<!-- Generator: Adobe Illustrator 19.0.0, SVG Export Plug-In . SVG Version: 6.00 Build 0)  -->
<svg version="1.1" id="Capa_1" xmlns="http://www.w3.org/2000/svg" xmlns:xlink="http://www.w3.org/1999/xlink" x="0px" y="0px"
	 viewBox="0 0 400.718 400.718" style="enable-background:new 0 0 400.718 400.718;" xml:space="preserve">
<g>
	<path style="fill:#4DCFE0;" d="M257.045,355.004h-41.273v-52.245h-31.347v52.245h-41.273c-8.882,0-15.673,6.792-15.673,15.673
		s6.792,15.673,15.673,15.673h113.894c8.882,0,15.673-6.792,15.673-15.673S265.927,355.004,257.045,355.004z"/>
	<rect x="15.673" y="207.151" style="fill:#4DCFE0;" width="368.849" height="31.347"/>
</g>
<path style="fill:#1185E0;" d="M369.371,318.433H31.347C13.584,318.433,0,304.849,0,287.086V45.714
	c0-17.763,13.584-31.347,31.347-31.347h338.024c17.763,0,31.347,13.584,31.347,31.347v241.371
	C400.718,304.849,387.135,318.433,369.371,318.433z M31.347,45.714L31.347,45.714v241.371h338.024V45.714H31.347z"/>
<g>
</g>
<g>
</g>
<g>
</g>
<g>
</g>
<g>
</g>
<g>
</g>
<g>
</g>
<g>
</g>
<g>
</g>
<g>
</g>
<g>
</g>
<g>
</g>
<g>
</g>
<g>
</g>
<g>
</g>
</svg>
