<?xml version="1.0" encoding="iso-8859-1"?>
<!-- Generator: Adobe Illustrator 19.0.0, SVG Export Plug-In . SVG Version: 6.00 Build 0)  -->
<svg version="1.1" id="Capa_1" xmlns="http://www.w3.org/2000/svg" xmlns:xlink="http://www.w3.org/1999/xlink" x="0px" y="0px"
	 viewBox="0 0 491.102 491.102" style="enable-background:new 0 0 491.102 491.102;" xml:space="preserve">
<path style="fill:#4DCFE0;" d="M301.453,446.171H189.649c-8.882,0-15.673-6.792-15.673-15.673v-50.155
	c-48.588-26.122-79.412-76.8-79.412-132.702c0-83.069,67.918-150.988,150.988-150.988s150.988,67.918,150.988,150.988
	c0,55.38-30.824,106.58-79.412,132.702v50.155C317.127,439.38,310.335,446.171,301.453,446.171z M205.322,414.824h80.457v-43.886
	c0-6.269,3.657-11.494,8.882-14.106c42.841-19.853,70.531-62.694,70.531-109.192C365.192,181.812,311.38,128,245.551,128
	S125.91,181.812,125.91,247.641c0,47.02,27.69,89.339,70.008,108.669c5.747,2.612,9.404,8.359,9.404,14.106V414.824z"/>
<g>
	<path style="fill:#1185E0;" d="M291.004,491.102h-90.906c-8.882,0-15.673-6.792-15.673-15.673s6.792-15.673,15.673-15.673h90.906
		c8.882,0,15.673,6.792,15.673,15.673S299.886,491.102,291.004,491.102z"/>
	<rect x="229.878" style="fill:#1185E0;" width="31.347" height="65.306"/>
	<rect x="1.567" y="228.31" style="fill:#1185E0;" width="65.306" height="31.347"/>
	<rect x="424.229" y="228.31" style="fill:#1185E0;" width="65.306" height="31.347"/>
	
		<rect x="63.737" y="78.892" transform="matrix(-0.7111 -0.7031 0.7031 -0.7111 98.444 229.5828)" style="fill:#1185E0;" width="65.307" height="31.347"/>
	
		<rect x="379.051" y="61.531" transform="matrix(-0.7031 -0.7111 0.7111 -0.7031 605.2794 441.091)" style="fill:#1185E0;" width="31.347" height="65.307"/>
</g>
<g>
</g>
<g>
</g>
<g>
</g>
<g>
</g>
<g>
</g>
<g>
</g>
<g>
</g>
<g>
</g>
<g>
</g>
<g>
</g>
<g>
</g>
<g>
</g>
<g>
</g>
<g>
</g>
<g>
</g>
</svg>
