<?xml version="1.0" encoding="iso-8859-1"?>
<!-- Generator: Adobe Illustrator 19.0.0, SVG Export Plug-In . SVG Version: 6.00 Build 0)  -->
<svg version="1.1" id="Capa_1" xmlns="http://www.w3.org/2000/svg" xmlns:xlink="http://www.w3.org/1999/xlink" x="0px" y="0px"
	 viewBox="0 0 389.224 389.224" style="enable-background:new 0 0 389.224 389.224;" xml:space="preserve">
<polygon style="fill:#4DCFE0;" points="226.743,147.331 226.743,241.894 15.673,241.894 15.673,273.241 226.743,273.241 
	226.743,374.073 258.09,374.073 258.09,147.331 "/>
<path style="fill:#1185E0;" d="M373.551,0H15.673C6.792,0,0,6.792,0,15.673v357.878c0,8.882,6.792,15.673,15.673,15.673h357.878
	c8.882,0,15.673-6.792,15.673-15.673V15.673C389.224,6.792,382.433,0,373.551,0z M357.878,31.347v100.31H31.347V31.347H357.878z
	 M31.347,357.878V163.004h326.531v194.873H31.347z"/>
<g>
</g>
<g>
</g>
<g>
</g>
<g>
</g>
<g>
</g>
<g>
</g>
<g>
</g>
<g>
</g>
<g>
</g>
<g>
</g>
<g>
</g>
<g>
</g>
<g>
</g>
<g>
</g>
<g>
</g>
</svg>
