<?xml version="1.0" encoding="iso-8859-1"?>
<!-- Generator: Adobe Illustrator 19.0.0, SVG Export Plug-In . SVG Version: 6.00 Build 0)  -->
<svg version="1.1" id="Capa_1" xmlns="http://www.w3.org/2000/svg" xmlns:xlink="http://www.w3.org/1999/xlink" x="0px" y="0px"
	 viewBox="0 0 464.98 464.98" style="enable-background:new 0 0 464.98 464.98;" xml:space="preserve">
<path style="fill:#1185E0;" d="M426.841,310.857h-31.347V92.996H64.261v217.861H32.914V77.322c0-8.882,6.792-15.673,15.673-15.673
	h362.58c8.882,0,15.673,6.792,15.673,15.673V310.857z"/>
<path style="fill:#4DCFE0;" d="M449.306,403.331H15.673C6.792,403.331,0,396.539,0,387.657v-76.8
	c0-8.882,6.792-15.673,15.673-15.673h161.959c8.882,0,15.673,6.792,15.673,15.673v4.702h73.143v-4.702
	c0-8.882,6.792-15.673,15.673-15.673h167.184c8.882,0,15.673,6.792,15.673,15.673v76.8
	C464.98,396.539,458.188,403.331,449.306,403.331z M31.347,371.984h402.286v-45.453H297.796v4.702
	c0,8.882-6.792,15.673-15.673,15.673h-104.49c-8.882,0-15.673-6.792-15.673-15.673v-4.702H31.347V371.984z"/>
<g>
</g>
<g>
</g>
<g>
</g>
<g>
</g>
<g>
</g>
<g>
</g>
<g>
</g>
<g>
</g>
<g>
</g>
<g>
</g>
<g>
</g>
<g>
</g>
<g>
</g>
<g>
</g>
<g>
</g>
</svg>
