<?xml version="1.0" encoding="iso-8859-1"?>
<!-- Generator: Adobe Illustrator 19.0.0, SVG Export Plug-In . SVG Version: 6.00 Build 0)  -->
<svg version="1.1" id="Capa_1" xmlns="http://www.w3.org/2000/svg" xmlns:xlink="http://www.w3.org/1999/xlink" x="0px" y="0px"
	 viewBox="0 0 481.698 481.698" style="enable-background:new 0 0 481.698 481.698;" xml:space="preserve">
<path style="fill:#4DCFE0;" d="M299.886,57.469l30.824-29.78c6.269-6.269,6.269-16.196,0.522-21.943
	c-6.269-6.269-16.196-6.269-21.943-0.522l-38.661,37.094c-9.404-2.612-18.808-4.18-29.257-4.18c-10.971,0-20.898,1.567-30.825,4.702
	L172.408,4.702c-6.269-6.269-16.196-6.269-21.943,0c-6.269,6.269-6.269,16.196,0,21.943l30.824,30.824
	c-24.033,18.286-39.706,47.02-39.706,79.412c0,19.331,5.224,38.139,15.673,53.812l26.645-16.718
	c-6.792-10.971-10.449-23.51-10.449-37.094c0-37.616,30.825-68.441,68.441-68.441c9.404,0,18.286,2.09,26.122,5.224
	c0.522,0,0.522,0.522,1.045,0.522c24.033,10.449,41.273,34.482,41.273,62.694c0,13.061-3.657,25.6-10.449,36.571l26.645,16.718
	c10.449-16.196,15.673-33.959,15.673-53.29C341.159,105.012,324.963,75.755,299.886,57.469z"/>
<path style="fill:#1185E0;" d="M454.008,257.567c-8.882,0-15.673,6.792-15.673,15.673v38.661h-44.931
	c0-3.657,0.522-7.314,0.522-10.971c0-13.584-1.567-26.645-5.224-39.184h38.139c8.882,0,15.673-6.792,15.673-15.673V175.02
	c0-8.882-6.792-15.673-15.673-15.673s-15.673,6.792-15.673,15.673v55.38h-34.482c-25.6-49.11-76.8-82.547-135.837-82.547
	S130.612,181.29,105.012,230.4H70.531v-55.38c0-8.882-6.792-15.673-15.673-15.673s-15.673,6.792-15.673,15.673v71.053
	c0,8.882,6.792,15.673,15.673,15.673h38.139c-3.135,12.539-5.224,25.6-5.224,39.184c0,3.657,0,7.314,0.522,10.971H43.363v-38.661
	c0-8.882-6.792-15.673-15.673-15.673s-15.673,6.792-15.673,15.673v54.335c0,8.882,6.792,15.673,15.673,15.673h65.829
	c3.657,13.061,8.882,25.078,16.196,36.571H59.037c-8.882,0-15.673,6.792-15.673,15.673v70.531c0,8.882,6.792,15.673,15.673,15.673
	s15.673-6.792,15.673-15.673v-54.857h60.082c27.69,26.645,64.784,42.841,106.057,42.841s78.367-16.196,106.057-42.841h60.082v54.857
	c0,8.882,6.792,15.673,15.673,15.673s15.673-6.792,15.673-15.673v-70.531c0-8.882-6.792-15.673-15.673-15.673h-50.678
	c6.792-11.494,12.016-23.51,16.196-36.571h65.829c8.882,0,15.673-6.792,15.673-15.673v-54.335
	C469.682,264.359,462.89,257.567,454.008,257.567z M362.58,300.931c0,61.649-46.498,112.849-106.057,120.686V180.245
	C316.082,188.082,362.58,239.282,362.58,300.931z M225.175,180.245v241.371c-59.559-7.837-106.057-59.037-106.057-120.686
	S165.616,188.082,225.175,180.245z"/>
<g>
</g>
<g>
</g>
<g>
</g>
<g>
</g>
<g>
</g>
<g>
</g>
<g>
</g>
<g>
</g>
<g>
</g>
<g>
</g>
<g>
</g>
<g>
</g>
<g>
</g>
<g>
</g>
<g>
</g>
</svg>
