<?xml version="1.0" encoding="iso-8859-1"?>
<!-- Generator: Adobe Illustrator 19.0.0, SVG Export Plug-In . SVG Version: 6.00 Build 0)  -->
<svg version="1.1" id="Capa_1" xmlns="http://www.w3.org/2000/svg" xmlns:xlink="http://www.w3.org/1999/xlink" x="0px" y="0px"
	 viewBox="0 0 426.057 426.057" style="enable-background:new 0 0 426.057 426.057;" xml:space="preserve">
<path style="fill:#4DCFE0;" d="M281.469,410.384h-31.347V287.608h-74.188v122.776h-31.347V271.935
	c0-8.882,6.792-15.673,15.673-15.673h105.535c8.882,0,15.673,6.792,15.673,15.673V410.384L281.469,410.384z"/>
<path style="fill:#1185E0;" d="M390.661,426.057H35.396c-8.882,0-15.673-6.792-15.673-15.673V172.669
	c0-4.702,2.09-8.882,5.224-11.494L202.58,3.918c5.747-5.224,14.629-5.224,20.898,0L401.11,161.175
	c3.135,3.135,5.224,7.314,5.224,11.494v237.714C406.335,419.265,399.543,426.057,390.661,426.057z M51.069,394.71h323.918V179.984
	L213.029,36.31L51.069,179.984V394.71z"/>
<g>
</g>
<g>
</g>
<g>
</g>
<g>
</g>
<g>
</g>
<g>
</g>
<g>
</g>
<g>
</g>
<g>
</g>
<g>
</g>
<g>
</g>
<g>
</g>
<g>
</g>
<g>
</g>
<g>
</g>
</svg>
