<?xml version="1.0" encoding="iso-8859-1"?>
<!-- Generator: Adobe Illustrator 19.0.0, SVG Export Plug-In . SVG Version: 6.00 Build 0)  -->
<svg version="1.1" id="Capa_1" xmlns="http://www.w3.org/2000/svg" xmlns:xlink="http://www.w3.org/1999/xlink" x="0px" y="0px"
	 viewBox="0 0 467.069 467.069" style="enable-background:new 0 0 467.069 467.069;" xml:space="preserve">
<rect x="190.433" y="234.58" style="fill:#4DCFE0;" width="85.682" height="31.347"/>
<g>
	<path style="fill:#1185E0;" d="M276.114,467.069h-85.682c-8.882,0-15.673-6.792-15.673-15.673V176.588h31.347v259.135h54.335
		V176.588h31.347v274.808C291.788,460.278,284.996,467.069,276.114,467.069z"/>
	<path style="fill:#1185E0;" d="M291.788,61.127h-31.347v-29.78h-54.335v29.78h-31.347V15.673C174.759,6.792,181.551,0,190.433,0
		h85.682c8.882,0,15.673,6.792,15.673,15.673L291.788,61.127L291.788,61.127z"/>
</g>
<path style="fill:#4DCFE0;" d="M387.918,192.261H79.151c-8.882,0-15.673-6.792-15.673-15.673V61.127
	c0-8.882,6.792-15.673,15.673-15.673h308.767c8.882,0,15.673,6.792,15.673,15.673v115.461
	C403.592,185.469,396.8,192.261,387.918,192.261z M94.824,160.914h277.42V76.8H94.824V160.914z"/>
<g>
</g>
<g>
</g>
<g>
</g>
<g>
</g>
<g>
</g>
<g>
</g>
<g>
</g>
<g>
</g>
<g>
</g>
<g>
</g>
<g>
</g>
<g>
</g>
<g>
</g>
<g>
</g>
<g>
</g>
</svg>
