<?xml version="1.0" encoding="iso-8859-1"?>
<!-- Generator: Adobe Illustrator 19.0.0, SVG Export Plug-In . SVG Version: 6.00 Build 0)  -->
<svg version="1.1" id="Capa_1" xmlns="http://www.w3.org/2000/svg" xmlns:xlink="http://www.w3.org/1999/xlink" x="0px" y="0px"
	 viewBox="0 0 476.038 476.038" style="enable-background:new 0 0 476.038 476.038;" xml:space="preserve">
<path style="fill:#4DCFE0;" d="M447.26,160.174h-31.347v-57.469c0-3.135-2.09-5.747-5.224-5.747h-177.11
	c-3.135,0-6.269-1.045-8.882-2.612l-46.498-32.392c-0.522-0.522-0.522-0.522-1.045-1.045H64.305c-3.135,0-5.224,2.612-5.224,5.747
	v93.518H27.733V66.656c0-20.376,16.196-37.094,36.571-37.094h113.371c7.314,0,14.106,2.612,19.331,7.314l41.796,28.735h172.408
	c20.376,0,36.571,16.718,36.571,37.094v57.469H447.26z"/>
<path style="fill:#1185E0;" d="M420.093,446.476H55.423c-23.51,0-42.841-18.808-43.886-41.796L0.044,189.954
	c-0.522-12.016,3.657-23.51,12.016-31.869s19.331-13.584,31.869-13.584h388.18c12.016,0,23.51,4.702,31.869,13.584
	c8.359,8.359,12.539,19.853,12.016,31.347l-12.016,215.771C462.411,428.191,443.08,446.476,420.093,446.476z M43.929,175.848
	c-3.657,0-6.792,1.567-9.404,3.657c-2.09,2.612-3.657,5.224-3.135,8.882l11.494,214.727c0,6.269,5.747,12.016,12.539,12.016h364.669
	c6.792,0,12.016-5.224,12.539-12.016l12.016-215.249c0-3.135-1.045-6.269-3.135-8.359c-2.612-2.612-5.747-3.657-9.404-3.657H43.929z
	"/>
<g>
</g>
<g>
</g>
<g>
</g>
<g>
</g>
<g>
</g>
<g>
</g>
<g>
</g>
<g>
</g>
<g>
</g>
<g>
</g>
<g>
</g>
<g>
</g>
<g>
</g>
<g>
</g>
<g>
</g>
</svg>
