<?xml version="1.0" encoding="iso-8859-1"?>
<!-- Generator: Adobe Illustrator 19.0.0, SVG Export Plug-In . SVG Version: 6.00 Build 0)  -->
<svg version="1.1" id="Capa_1" xmlns="http://www.w3.org/2000/svg" xmlns:xlink="http://www.w3.org/1999/xlink" x="0px" y="0px"
	 viewBox="0 0 480.653 480.653" style="enable-background:new 0 0 480.653 480.653;" xml:space="preserve">
<g>
	<path style="fill:#1185E0;" d="M441.992,189.649v-44.931c0-8.882-6.792-15.673-15.673-15.673H294.661V92.473h-31.347v36.571
		H131.657c-8.882,0-15.673,6.792-15.673,15.673v60.604h31.347v-44.931h115.984v29.257c-21.943,6.792-37.616,27.167-37.616,50.678
		c0,29.257,24.033,53.29,53.29,53.29s53.29-24.033,53.29-53.29c0-24.033-15.673-44.408-37.616-50.678v-29.257h115.984v28.735
		c-22.465,6.269-38.661,26.645-38.661,51.2c0,29.257,24.033,53.29,53.29,53.29s53.29-24.033,53.29-53.29
		C478.563,216.816,463.412,196.963,441.992,189.649z M278.988,262.269c-12.016,0-21.943-9.927-21.943-21.943
		s9.927-21.943,21.943-21.943s21.943,9.927,21.943,21.943C300.931,252.343,291.004,262.269,278.988,262.269z M425.273,262.269
		c-12.016,0-21.943-9.927-21.943-21.943s9.927-21.943,21.943-21.943c12.016,0,21.943,9.927,21.943,21.943
		S437.29,262.269,425.273,262.269z"/>
	<path style="fill:#1185E0;" d="M223.608,376.686V336.98c0-8.882-6.792-15.673-15.673-15.673h-61.127V279.51h-31.347v41.796H54.335
		c-8.882,0-15.673,6.792-15.673,15.673v55.902h31.347v-40.229h122.253v23.51c-22.465,6.269-38.661,26.645-38.661,51.2
		c0,29.257,24.033,53.29,53.29,53.29s53.29-24.033,53.29-53.29C260.18,403.853,245.029,384,223.608,376.686z M206.89,449.306
		c-12.016,0-21.943-9.927-21.943-21.943s9.927-21.943,21.943-21.943s21.943,9.927,21.943,21.943S218.906,449.306,206.89,449.306z"/>
</g>
<g>
	<path style="fill:#4DCFE0;" d="M278.988,106.58c-29.257,0-53.29-24.033-53.29-53.29S249.731,0,278.988,0s53.29,24.033,53.29,53.29
		S308.245,106.58,278.988,106.58z M278.988,31.347c-12.016,0-21.943,9.927-21.943,21.943s9.927,21.943,21.943,21.943
		s21.943-9.927,21.943-21.943S291.004,31.347,278.988,31.347z"/>
	<path style="fill:#4DCFE0;" d="M132.702,293.616c-29.257,0-53.29-24.033-53.29-53.29c0-29.257,24.033-53.29,53.29-53.29
		s53.29,24.033,53.29,53.29C185.992,269.584,161.959,293.616,132.702,293.616z M132.702,218.384
		c-12.016,0-21.943,9.927-21.943,21.943s9.927,21.943,21.943,21.943c12.016,0,21.943-9.927,21.943-21.943
		C154.645,228.31,144.718,218.384,132.702,218.384z"/>
	<path style="fill:#4DCFE0;" d="M55.38,480.653c-29.257,0-53.29-24.033-53.29-53.29c0-29.257,24.033-53.29,53.29-53.29
		s53.29,24.033,53.29,53.29C108.669,456.62,84.637,480.653,55.38,480.653z M55.38,405.42c-12.016,0-21.943,9.927-21.943,21.943
		c0,12.016,9.927,21.943,21.943,21.943s21.943-9.927,21.943-21.943C77.322,415.347,67.396,405.42,55.38,405.42z"/>
</g>
<g>
</g>
<g>
</g>
<g>
</g>
<g>
</g>
<g>
</g>
<g>
</g>
<g>
</g>
<g>
</g>
<g>
</g>
<g>
</g>
<g>
</g>
<g>
</g>
<g>
</g>
<g>
</g>
<g>
</g>
</svg>
