<?xml version="1.0" encoding="iso-8859-1"?>
<!-- Generator: Adobe Illustrator 19.0.0, SVG Export Plug-In . SVG Version: 6.00 Build 0)  -->
<svg version="1.1" id="Capa_1" xmlns="http://www.w3.org/2000/svg" xmlns:xlink="http://www.w3.org/1999/xlink" x="0px" y="0px"
	 viewBox="0 0 431.543 431.543" style="enable-background:new 0 0 431.543 431.543;" xml:space="preserve">
<g>
	<path style="fill:#4DCFE0;" d="M269.584,338.025c-3.657,0-7.314-1.045-9.927-3.657c-6.792-5.747-7.314-15.673-2.09-21.943
		l29.78-35.527l-29.78-35.527c-5.747-6.792-4.702-16.718,2.09-21.943c6.792-5.747,16.718-4.702,21.943,2.09l38.139,45.453
		c4.702,5.747,4.702,14.106,0,20.376L281.6,332.8C278.465,335.935,274.286,338.025,269.584,338.025z"/>
	<path style="fill:#4DCFE0;" d="M161.959,338.025c-4.702,0-8.882-2.09-12.016-5.747l-38.139-45.453
		c-4.702-5.747-4.702-14.106,0-20.376l38.139-45.453c5.747-6.792,15.673-7.314,21.943-2.09c6.792,5.747,7.314,15.673,2.09,21.943
		l-29.78,35.527l29.78,35.527c5.747,6.792,4.702,16.718-2.09,21.943C169.273,336.98,165.616,338.025,161.959,338.025z"/>
	<path style="fill:#4DCFE0;" d="M204.278,368.327c-0.522,0-1.567,0-2.612,0c-8.359-1.045-14.629-9.404-13.061-17.763l22.988-151.51
		c1.045-8.359,9.404-14.629,17.763-13.061c8.359,1.045,14.629,9.404,13.061,17.763l-22.988,151.51
		C218.384,362.58,212.114,368.327,204.278,368.327z"/>
</g>
<path style="fill:#1185E0;" d="M388.702,124.343L261.747,4.18C258.612,1.567,254.955,0,250.775,0H53.812
	c-8.882,0-15.673,6.792-15.673,15.673v400.196c0,8.882,6.792,15.673,15.673,15.673h323.918c8.882,0,15.673-6.792,15.673-15.673
	V135.837C393.404,131.657,391.837,127.478,388.702,124.343z M266.449,52.245l72.098,67.918h-72.098V52.245z M69.486,400.196V31.347
	h165.616v104.49c0,8.882,6.792,15.673,15.673,15.673h111.282v248.686H69.486z"/>
<g>
</g>
<g>
</g>
<g>
</g>
<g>
</g>
<g>
</g>
<g>
</g>
<g>
</g>
<g>
</g>
<g>
</g>
<g>
</g>
<g>
</g>
<g>
</g>
<g>
</g>
<g>
</g>
<g>
</g>
</svg>
