<?xml version="1.0" encoding="iso-8859-1"?>
<!-- Generator: Adobe Illustrator 19.0.0, SVG Export Plug-In . SVG Version: 6.00 Build 0)  -->
<svg version="1.1" id="Capa_1" xmlns="http://www.w3.org/2000/svg" xmlns:xlink="http://www.w3.org/1999/xlink" x="0px" y="0px"
	 viewBox="0 0 382.433 382.433" style="enable-background:new 0 0 382.433 382.433;" xml:space="preserve">
<path style="fill:#1185E0;" d="M376.686,136.882V36.571C376.686,16.196,360.49,0,340.114,0H42.318
	C21.943,0,5.747,16.196,5.747,36.571v100.31V258.09v87.771c0,20.376,16.196,36.571,36.571,36.571h297.796
	c20.376,0,36.571-16.196,36.571-36.571V258.09h-0.522L376.686,136.882L376.686,136.882z M42.318,31.347h297.796
	c2.612,0,5.224,2.612,5.224,5.224v84.637H37.094V36.571C37.094,33.959,39.706,31.347,42.318,31.347z M344.816,152.555v89.861H37.094
	v-89.861H344.816z M340.114,351.086H42.318c-2.612,0-5.224-2.612-5.224-5.224v-72.098h308.245v72.098
	C345.339,348.473,342.727,351.086,340.114,351.086z"/>
<g>
	<path style="fill:#4DCFE0;" d="M229.355,91.951h-76.278c-8.882,0-15.673-6.792-15.673-15.673s6.792-15.673,15.673-15.673h76.278
		c8.882,0,15.673,6.792,15.673,15.673S238.237,91.951,229.355,91.951z"/>
	<path style="fill:#4DCFE0;" d="M229.355,213.159h-76.278c-8.882,0-15.673-6.792-15.673-15.673s6.792-15.673,15.673-15.673h76.278
		c8.882,0,15.673,6.792,15.673,15.673C245.029,206.367,238.237,213.159,229.355,213.159z"/>
	<path style="fill:#4DCFE0;" d="M229.355,328.098h-76.278c-8.882,0-15.673-6.792-15.673-15.673s6.792-15.673,15.673-15.673h76.278
		c8.882,0,15.673,6.792,15.673,15.673S238.237,328.098,229.355,328.098z"/>
</g>
<g>
</g>
<g>
</g>
<g>
</g>
<g>
</g>
<g>
</g>
<g>
</g>
<g>
</g>
<g>
</g>
<g>
</g>
<g>
</g>
<g>
</g>
<g>
</g>
<g>
</g>
<g>
</g>
<g>
</g>
</svg>
