<?xml version="1.0" encoding="iso-8859-1"?>
<!-- Generator: Adobe Illustrator 19.0.0, SVG Export Plug-In . SVG Version: 6.00 Build 0)  -->
<svg version="1.1" id="Capa_1" xmlns="http://www.w3.org/2000/svg" xmlns:xlink="http://www.w3.org/1999/xlink" x="0px" y="0px"
	 viewBox="0 0 501.029 501.029" style="enable-background:new 0 0 501.029 501.029;" xml:space="preserve">
<path style="fill:#4DCFE0;" d="M354.743,0H146.286C119.641,0,98.22,21.42,98.22,48.065v404.898c0,26.645,21.42,48.065,48.065,48.065
	H354.22c26.645,0,48.065-20.898,48.588-48.065V48.065C402.808,21.42,381.388,0,354.743,0z M146.286,31.347h208.457
	c8.882,0,16.718,7.837,16.718,16.718v32.392H129.567V48.065C129.567,39.184,137.404,31.347,146.286,31.347z M371.461,111.804V381.91
	H129.567V111.804H371.461z M354.22,469.682H146.286c-8.882,0-16.718-7.837-16.718-16.718v-39.706h241.894v39.184
	C370.939,462.367,363.624,469.682,354.22,469.682z"/>
<g>
	<path style="fill:#1185E0;" d="M283.69,284.735h-66.873l33.437-66.873l0,0L283.69,284.735z"/>
	<path style="fill:#1185E0;" d="M360.49,284.735h-66.873v-66.873h66.873V284.735z"/>
	<path style="fill:#1185E0;" d="M206.89,284.735h-66.873v-66.873h66.873V284.735z"/>
	<path style="fill:#1185E0;" d="M283.69,206.367h-66.873v-66.873h66.873C283.69,139.494,283.69,206.367,283.69,206.367z"/>
	<path style="fill:#1185E0;" d="M327.053,206.367L327.053,206.367c-18.286,0-33.437-15.151-33.437-33.437l0,0
		c0-18.286,15.151-33.437,33.437-33.437l0,0c18.286,0,33.437,15.151,33.437,33.437l0,0
		C360.49,191.739,345.861,206.367,327.053,206.367z"/>
	<path style="fill:#1185E0;" d="M283.69,363.102h-66.873v-66.873h66.873C283.69,296.229,283.69,363.102,283.69,363.102z"/>
	<path style="fill:#1185E0;" d="M327.053,363.102L327.053,363.102c-18.286,0-33.437-15.151-33.437-33.437l0,0
		c0-18.286,15.151-33.437,33.437-33.437l0,0c18.286,0,33.437,15.151,33.437,33.437l0,0
		C360.49,348.473,345.861,363.102,327.053,363.102z"/>
	<path style="fill:#1185E0;" d="M173.453,363.102L173.453,363.102c-18.286,0-33.437-15.151-33.437-33.437l0,0
		c0-18.286,15.151-33.437,33.437-33.437l0,0c18.286,0,33.437,15.151,33.437,33.437l0,0
		C206.89,348.473,191.739,363.102,173.453,363.102z"/>
	<path style="fill:#1185E0;" d="M207.935,205.322h-66.873l33.437-66.873l0,0L207.935,205.322z"/>
</g>
<g>
</g>
<g>
</g>
<g>
</g>
<g>
</g>
<g>
</g>
<g>
</g>
<g>
</g>
<g>
</g>
<g>
</g>
<g>
</g>
<g>
</g>
<g>
</g>
<g>
</g>
<g>
</g>
<g>
</g>
</svg>
