<?xml version="1.0" encoding="iso-8859-1"?>
<!-- Generator: Adobe Illustrator 19.0.0, SVG Export Plug-In . SVG Version: 6.00 Build 0)  -->
<svg version="1.1" id="Capa_1" xmlns="http://www.w3.org/2000/svg" xmlns:xlink="http://www.w3.org/1999/xlink" x="0px" y="0px"
	 viewBox="0 0 463.935 463.935" style="enable-background:new 0 0 463.935 463.935;" xml:space="preserve">
<g>
	<path style="fill:#4DCFE0;" d="M316.082,404.898c-8.882,0-15.673-6.792-15.673-15.673v-95.608c0-8.882,6.792-15.673,15.673-15.673
		c8.882,0,15.673,6.792,15.673,15.673v95.608C331.755,398.106,324.963,404.898,316.082,404.898z"/>
	<path style="fill:#4DCFE0;" d="M364.147,356.833h-95.608c-8.882,0-15.673-6.792-15.673-15.673s6.792-15.673,15.673-15.673h95.608
		c8.882,0,15.673,6.792,15.673,15.673S373.029,356.833,364.147,356.833z"/>
</g>
<path style="fill:#1185E0;" d="M352.131,223.608V108.669c0-4.18-1.567-8.359-4.702-11.494L248.163,4.18
	C245.029,1.567,241.371,0,237.192,0H51.2C36.571,0,25.078,11.494,25.078,26.122v361.012c0,14.629,11.494,26.122,26.122,26.122
	h165.616c22.465,30.824,58.514,50.678,99.265,50.678c67.918,0,122.776-54.857,122.776-122.775
	C438.857,285.78,402.286,239.282,352.131,223.608z M252.865,51.722l43.886,41.273h-43.886V51.722z M56.424,381.91V31.347h165.094
	v77.322c0,8.882,6.792,15.673,15.673,15.673h83.592v94.041c-1.567,0-3.135,0-4.702,0c-67.918,0-122.776,54.857-122.776,122.776
	c0,14.106,2.612,28.212,6.792,40.751L56.424,381.91L56.424,381.91z M316.082,432.588c-50.155,0-91.429-41.273-91.429-91.429
	s41.273-91.429,91.429-91.429s91.429,41.273,91.429,91.429S366.237,432.588,316.082,432.588z"/>
<g>
</g>
<g>
</g>
<g>
</g>
<g>
</g>
<g>
</g>
<g>
</g>
<g>
</g>
<g>
</g>
<g>
</g>
<g>
</g>
<g>
</g>
<g>
</g>
<g>
</g>
<g>
</g>
<g>
</g>
</svg>
