<svg width="64" height="58" viewBox="0 0 64 58" fill="none" xmlns="http://www.w3.org/2000/svg">
<path d="M1.54949 33.8002L5.52039 29.8846V31.3031C5.52039 44.8779 18.0629 57.24 31.8358 57.24C45.6088 57.24 58.1513 44.8779 58.1513 31.3031V29.9222L62.1603 33.8736C62.2443 33.9573 62.3444 34.0237 62.4547 34.0691C62.5649 34.1145 62.6832 34.1378 62.8027 34.1378C62.9222 34.1378 63.0405 34.1145 63.1508 34.0691C63.2611 34.0237 63.3612 33.9573 63.4452 33.8736C63.6153 33.7058 63.7109 33.4784 63.7109 33.2412C63.7109 33.0041 63.6153 32.7766 63.4452 32.6089L57.968 27.2105C57.8865 27.0952 57.7783 27.0006 57.6524 26.9347C57.5264 26.8687 57.3864 26.8333 57.2438 26.8313C57.1622 26.8313 57.0914 26.8563 57.0152 26.876C56.8464 26.9034 56.6894 26.9786 56.5633 27.0924L51.0425 32.5338C50.8772 32.7025 50.7857 32.9284 50.7878 33.1629C50.7898 33.3974 50.8853 33.6217 51.0535 33.7875C51.2218 33.9534 51.4494 34.0474 51.6873 34.0495C51.9252 34.0515 52.1544 33.9613 52.3256 33.7984L56.3364 29.8471V31.3031C56.3364 43.6419 45.2023 54.8735 32.7433 55.4012V21.465H48.1695C48.4102 21.465 48.641 21.3708 48.8112 21.203C48.9814 21.0353 49.077 20.8078 49.077 20.5706C49.077 20.3334 48.9814 20.1059 48.8112 19.9382C48.641 19.7705 48.4102 19.6763 48.1695 19.6763H32.7433V12.43C35.814 11.9918 38.1878 9.40525 38.1878 6.26063C38.1878 2.80834 35.3385 0 31.8358 0C28.3332 0 25.4838 2.80834 25.4838 6.26063C25.4838 9.40525 27.8577 11.9918 30.9284 12.43V19.6763H15.5021C15.2614 19.6763 15.0306 19.7705 14.8605 19.9382C14.6903 20.1059 14.5947 20.3334 14.5947 20.5706C14.5947 20.8078 14.6903 21.0353 14.8605 21.203C15.0306 21.3708 15.2614 21.465 15.5021 21.465H30.9284V55.4012C18.4694 54.8735 7.33525 43.6419 7.33525 31.3031V29.8846L11.3824 33.8736C11.4664 33.9573 11.5665 34.0237 11.6768 34.0691C11.787 34.1145 11.9053 34.1378 12.0248 34.1378C12.1443 34.1378 12.2626 34.1145 12.3729 34.0691C12.4832 34.0237 12.5833 33.9573 12.6673 33.8736C12.8374 33.7058 12.933 33.4784 12.933 33.2412C12.933 33.0041 12.8374 32.7766 12.6673 32.6089L7.0721 27.096C6.98814 27.0119 6.88806 26.945 6.77769 26.8994C6.66731 26.8537 6.54882 26.8301 6.42911 26.8299C6.3094 26.8298 6.19085 26.853 6.08034 26.8984C5.96983 26.9438 5.86956 27.0103 5.78536 27.0942L0.266381 32.5338C0.182012 32.6168 0.115064 32.7154 0.0693581 32.824C0.0236523 32.9325 8.44896e-05 33.0489 2.27058e-07 33.1664C-0.000169949 33.4037 0.0953238 33.6314 0.265474 33.7993C0.435624 33.9673 0.666493 34.0617 0.907292 34.0619C1.14809 34.062 1.37909 33.9679 1.54949 33.8002ZM31.8358 1.78875C34.3367 1.78875 36.373 3.79394 36.373 6.26063C36.373 8.72731 34.3367 10.7325 31.8358 10.7325C29.335 10.7325 27.2987 8.72731 27.2987 6.26063C27.2987 3.79394 29.335 1.78875 31.8358 1.78875Z" fill="white"/>
</svg>
