<svg width="78" height="78" viewBox="0 0 78 78" fill="none" xmlns="http://www.w3.org/2000/svg">
<path d="M54.9534 30.7734V30.8648H55.1423C55.1441 30.7748 55.1627 30.6859 55.1972 30.6028V30.4383C55.118 30.4383 55.0387 30.5662 54.9656 30.7917L54.9534 30.7734ZM53.1619 26.4591V26.2945H52.8938V26.4591H53.1619ZM47.9578 36.2091C47.5656 35.5376 47.0838 34.9225 46.5258 34.3809C46.5258 34.1859 46.8305 33.8995 47.4947 33.5156L49.3594 31.8947C49.8753 31.1097 50.1468 30.1893 50.1394 29.25V28.9697C50.0663 28.1287 49.4569 27.4523 48.3113 26.9344C47.6288 26.4753 46.41 26.2214 44.655 26.1726C42.6805 26.4309 40.7509 26.9599 38.9208 27.7448C38.2099 28.2506 37.4714 28.7165 36.7088 29.1403V29.2805C36.7884 29.2652 36.8634 29.2318 36.9281 29.183C36.9473 29.1783 36.9672 29.178 36.9865 29.1823C37.0057 29.1866 37.0237 29.1953 37.0391 29.2077C37.0544 29.2201 37.0667 29.2358 37.0749 29.2537C37.0831 29.2717 37.0871 29.2912 37.0866 29.3109L37.1719 29.25H37.2389V29.3109C36.7804 29.7802 36.2644 30.1897 35.7033 30.5297L35.7825 30.6759H35.7155L35.5448 30.615C35.5448 30.6637 35.4778 30.7003 35.3377 30.7125V30.7734L35.5022 30.9806C35.4201 30.9785 35.3392 30.9599 35.2645 30.9258C34.9902 30.9641 34.7391 31.1005 34.5577 31.3097L34.6552 30.8892C34.9681 29.5839 35.2041 28.2613 35.362 26.9283L35.3438 26.8125C35.0918 26.6455 34.8676 26.4398 34.6795 26.2031C34.6861 26.1037 34.6861 26.0039 34.6795 25.9045V25.8436H34.6125C33.8609 26.9689 32.4167 28.8884 30.2798 31.6022C28.6548 33.5319 27.8139 34.6044 27.757 34.8197C27.0928 35.5083 26.7759 35.9226 26.8064 36.0384C26.6297 36.1542 26.5566 36.2639 26.587 36.3919C26.5771 36.3956 26.5664 36.3971 26.5558 36.3963C26.5451 36.3955 26.5348 36.3923 26.5255 36.3871C26.5162 36.3819 26.5082 36.3747 26.502 36.3661C26.4958 36.3574 26.4915 36.3475 26.4895 36.337C26.3504 36.5636 26.1661 36.759 25.948 36.9111C25.7299 37.0631 25.4827 37.1685 25.222 37.2206L24.6127 37.3547C24.5935 37.3575 24.5751 37.3643 24.5587 37.3747C24.5423 37.385 24.5282 37.3986 24.5174 37.4146C24.5065 37.4306 24.499 37.4488 24.4955 37.4678C24.492 37.4869 24.4925 37.5064 24.4969 37.5253V37.5984L24.7163 37.5497V37.6106L24.2166 37.8056L23.333 38.0128H22.8698C22.8028 38.0798 23.2416 38.0128 23.0709 38.0494L22.4616 38.1834C22.1081 38.2626 21.9192 38.2322 21.8522 38.092H21.7852C21.7961 38.1402 21.7961 38.1901 21.7852 38.2383L21.7486 38.0981L21.2855 38.2078C21.3139 38.0412 20.7188 37.2897 19.5 35.9531C19.5 35.6911 19.9083 35.3133 20.7919 34.8197L23.2781 32.632C23.8347 31.917 24.1658 30.7694 24.2714 29.1891L24.2348 28.8173C24.1373 27.7022 23.333 26.8064 21.7973 26.1117C20.9016 25.5023 19.2867 25.1794 16.9589 25.1306C14.3616 25.4707 11.822 26.1594 9.40875 27.1781C8.47499 27.8448 7.50233 28.4553 6.49594 29.0062V29.2012C6.60043 29.1834 6.70006 29.144 6.78844 29.0855C6.81278 29.0789 6.8383 29.0781 6.86302 29.083C6.88775 29.0879 6.91102 29.0984 6.93104 29.1137C6.95106 29.129 6.9673 29.1487 6.9785 29.1713C6.98969 29.1938 6.99555 29.2187 6.99563 29.2439L7.19063 29.1342H7.3125V29.25C6.69642 29.8537 6.01358 30.3852 5.27719 30.8344L5.38688 31.005H5.30156L5.09438 30.9319C5.09438 30.9867 5.00297 31.0294 4.80188 31.0476V31.1512L5.02734 31.4011C4.92285 31.4002 4.81947 31.3795 4.72266 31.3401C4.45126 31.3975 4.19539 31.5127 3.97247 31.6777C3.74955 31.8428 3.5648 32.054 3.43078 32.2969L3.54047 32.4675C3.72813 32.2629 3.94596 32.0883 4.18641 31.9495V32.2298C4.08305 32.2516 3.98415 32.2907 3.89391 32.3456L4.12547 32.6991C4.56632 32.2327 5.06377 31.8232 5.60625 31.4803C5.87438 31.5473 6.01453 31.6326 6.02063 31.7241H6.22781C7.54605 30.7171 9.01425 29.9233 10.5788 29.3719V29.5669C10.3106 29.9731 10.1298 30.1762 10.0364 30.1762C10.0429 30.3081 10.0921 30.4343 10.1766 30.5358C10.2009 30.7795 9.54891 32.4248 8.22047 35.4717C5.24672 42.4958 2.73609 47.7019 0.688595 51.09C0.707561 51.1896 0.74927 51.2834 0.81047 51.3642C1.15089 51.3085 1.4764 51.1841 1.76719 50.9986H1.87688V51.1936H2.06578L2.26078 51.0839C2.26078 51.1387 2.32781 51.1692 2.46188 51.157V51.352C2.4367 51.6639 2.32716 51.963 2.145 52.2173C1.85409 52.6465 1.63967 53.1227 1.51125 53.625V53.7164H1.70016C2.44232 52.9106 3.0698 52.0063 3.56484 51.0291C5.45625 50.5245 7.29326 49.8346 9.04922 48.9694C10.0908 48.9403 11.0986 48.5938 11.9377 47.9761V47.8725L11.4623 48.0126H11.3527V47.9091C12.0358 47.8623 12.698 47.6534 13.2844 47.2997C15.0963 45.9022 16.4653 44.913 17.3916 44.332C19.2928 42.9345 20.5278 41.5736 21.0966 40.2492L21.4134 40.1761C21.5657 40.1845 21.7182 40.1845 21.8705 40.1761C21.8705 40.1273 21.8705 40.0969 21.9314 40.0847C22.358 40.042 22.1508 40.0847 22.425 40.0481L23.138 39.8836H23.2598L23.205 39.9201C23.2916 39.9368 23.3805 39.9368 23.467 39.9201L23.5158 40.1273L20.2617 45.3009L19.5 46.1358L19.1466 47.318H19.2136L19.567 47.1717L19.4513 47.6287L19.4878 47.7628L19.5853 47.8847C19.5427 47.8847 19.5244 47.9273 19.5366 47.9761V48.0492L19.6828 48.0126C19.8981 47.8258 19.9895 47.6551 19.957 47.5008C20.1081 47.5397 20.2648 47.5521 20.4202 47.5373V47.6105C20.28 47.647 20.2069 47.7567 20.1947 47.9517V48.0248H20.2739C21.4561 46.733 24.3506 42.3272 26.6723 39.3291C26.5992 39.0041 27.818 38.5531 30.3286 37.9762H30.4078C30.4972 38.3825 30.2941 39.3311 29.7984 40.822C29.6044 41.3018 29.4594 41.7999 29.3658 42.3089C29.1206 42.9449 28.9329 43.6016 28.8052 44.2711L27.9703 47.1291C27.3897 48.6415 26.9491 50.2039 26.6541 51.7969C26.7345 51.7805 26.8174 51.7805 26.8978 51.7969L27.0258 51.6872C27.0278 51.6976 27.032 51.7076 27.0382 51.7162C27.0445 51.7249 27.0525 51.7321 27.0618 51.7373C27.0711 51.7425 27.0814 51.7456 27.092 51.7465C27.1026 51.7473 27.1133 51.7458 27.1233 51.742L27.0745 51.5348H27.4584C27.5742 51.5348 27.6656 51.3642 27.7509 51.1022C27.7509 50.7122 27.8119 50.4928 27.9886 50.4562C28.0785 49.9693 28.2258 49.4948 28.4273 49.0425C28.521 48.4948 28.6869 47.962 28.9209 47.4581C29.2561 46.2394 29.5303 45.63 29.6583 45.5934L29.6948 45.7397L29.4511 46.3491C29.1339 47.8724 28.7021 49.3697 28.1592 50.828L28.2872 51.3703H28.3664C29.4227 49.0994 30.942 44.6022 32.9245 37.8787C32.9533 37.61 33.0436 37.3515 33.1884 37.1232C33.3332 36.895 33.5285 36.7031 33.7594 36.5625L33.6436 36.4406V36.3797C33.8293 36.351 33.9983 36.2557 34.1189 36.1116C34.1189 36.0628 33.9117 35.9836 33.5095 35.8861L34.4967 31.6205C34.6058 31.503 34.7335 31.4042 34.8745 31.328V31.5412C34.7949 31.5565 34.7199 31.5899 34.6552 31.6387L34.8441 31.9069C35.1754 31.5531 35.5477 31.2401 35.9531 30.9745C36.1603 31.0294 36.2578 31.1025 36.27 31.1695H36.4162C37.4197 30.409 38.5362 29.8106 39.7252 29.3962V29.5364C39.5261 29.837 39.39 29.9894 39.3169 29.9934C39.3249 30.0908 39.3563 30.1849 39.4083 30.2676C39.017 31.5552 38.526 32.8102 37.9397 34.0214C36.282 38.1128 34.3604 42.0922 32.1872 45.9347C32.206 46.0105 32.2414 46.0813 32.2908 46.1419C32.5477 46.1007 32.7928 46.0051 33.0098 45.8616H33.0769V46.0017H33.2353L33.3755 45.9286C33.3755 45.9692 33.4263 45.9855 33.5278 45.9773V46.1297C33.5067 46.3631 33.4224 46.5864 33.2841 46.7756C33.0424 47.109 32.8666 47.4854 32.7661 47.8847V47.9578H32.9123C33.476 47.3462 33.9518 46.6591 34.3261 45.9164C35.7545 45.5316 37.1423 45.0091 38.4698 44.3564C39.2651 44.3358 40.0349 44.0721 40.6758 43.6008V43.5276L40.3041 43.6373H40.2248V43.5642C40.7427 43.5263 41.2441 43.3654 41.6873 43.095C43.0584 42.0408 44.1248 41.2669 44.8073 40.8403C47.0011 39.2437 48.0188 37.7142 47.8969 36.2395L47.9578 36.2091ZM47.58 36.3066L47.6288 36.8794C47.5617 37.0195 47.4886 37.0926 47.4216 37.0987L47.3363 36.1237C47.4947 36.1786 47.5739 36.2395 47.58 36.3066ZM4.5825 31.6875H4.485V31.5108L4.875 31.4803V31.5717C4.77258 31.5902 4.67507 31.6296 4.58859 31.6875H4.5825ZM2.66906 50.8219C2.48045 50.7272 2.27047 50.6831 2.05969 50.6939V50.4136C2.05969 50.3039 2.10844 50.2308 2.24859 50.2064C2.38875 50.182 2.44969 50.2856 2.45578 50.4684C2.61602 50.2479 2.79769 50.0438 2.99813 49.8591L3.20531 49.9444C3.13828 50.5111 2.96156 50.8036 2.68125 50.8219H2.66906ZM23.1136 29.4328C23.0161 29.4328 22.8211 29.1403 22.5469 28.5492V28.3725C22.7297 28.3725 22.9186 28.6528 23.1136 29.2561V29.4328ZM22.8394 27.3122L22.7602 27.5011L19.9814 26.3433C21.8339 26.4042 22.7866 26.7272 22.8394 27.3122ZM11.1211 37.3851L10.7311 37.4217V37.245L11.1211 37.2084V37.3851ZM10.8042 31.3401H10.9017V31.6205C10.8103 31.6205 10.6945 31.7606 10.5422 32.0226V31.8276C10.7189 31.6205 10.8103 31.4559 10.7981 31.3462L10.8042 31.3401ZM9.98156 33.2841L10.0181 33.6558H9.92063L9.88406 33.2841H9.98156ZM9.54891 33.9787H9.73781C9.73781 34.2834 9.63422 34.448 9.48188 34.4601H9.38438C9.4827 34.3226 9.53977 34.1598 9.54891 33.9909V33.9787ZM9.22594 34.9416H9.33563V35.033L9.15891 35.3255H8.97V35.2341C9.00819 35.237 9.04654 35.2309 9.08193 35.2162C9.11731 35.2015 9.14874 35.1787 9.17367 35.1496C9.1986 35.1206 9.21632 35.086 9.2254 35.0488C9.23449 35.0116 9.23467 34.9728 9.22594 34.9355V34.9416ZM8.90906 35.813L8.85422 36.2761H8.75672L8.71406 35.8191H8.90906V35.813ZM5.71594 44.8622C5.58797 45.4716 5.45391 45.8189 5.31375 45.8311V45.7397C5.30361 45.571 5.33562 45.4025 5.4069 45.2493C5.47818 45.0961 5.58648 44.9631 5.72203 44.8622H5.71594ZM5.10656 46.1297V46.2211C5.11345 46.2464 5.11415 46.2731 5.10862 46.2988C5.10309 46.3245 5.09149 46.3485 5.07478 46.3688C5.05807 46.389 5.03675 46.405 5.01259 46.4154C4.98844 46.4257 4.96215 46.4302 4.93594 46.4283V46.3125C4.93594 46.2028 4.99281 46.1337 5.10656 46.1053V46.1297ZM4.96641 48.75H5.25891V48.8536C5.15441 48.8714 5.05479 48.9108 4.96641 48.9694H4.7775C4.7775 48.8719 4.82625 48.7987 4.94813 48.7622L4.96641 48.75ZM13.3697 46.1541C12.3375 46.6013 11.3568 47.1591 10.4447 47.8176C8.64906 48.4392 7.75938 48.8292 7.77563 48.9876C6.69924 49.3865 5.64726 49.8484 4.62516 50.3709C4.44428 50.3682 4.26667 50.3223 4.10719 50.2369C4.09579 50.0772 4.13052 49.9177 4.20722 49.7773C4.28393 49.6368 4.39939 49.5214 4.53984 49.4447C4.81239 49.4215 5.08646 49.4655 5.33813 49.5726C5.83302 49.3508 6.34973 49.1813 6.87984 49.0669V48.8719L6.27047 48.9206C6.80869 48.5944 7.38342 48.3326 7.98281 48.1406H8.27531V48.232C7.76953 48.2747 7.48922 48.427 7.42828 48.6891C7.42828 48.8109 7.5075 48.8597 7.63547 48.8475C8.01328 48.6098 8.20219 48.4697 8.19609 48.427C8.91516 48.2889 10.9078 47.2469 14.1741 45.3009V45.4776C14.1741 45.563 13.8998 45.8006 13.3392 46.2089L13.3697 46.1541ZM8.36063 47.7994C8.82162 47.7624 9.25406 47.5614 9.57938 47.2326C9.71344 47.2326 9.78656 47.2753 9.79266 47.3911C9.31665 47.5175 8.86544 47.7236 8.45813 48.0005H8.36063V47.8116V47.7994ZM16.4531 41.602L13.9486 43.5886C12.9898 44.2686 11.9838 44.8795 10.9383 45.4167C7.97266 47.0417 6.13031 47.8887 5.41125 47.9578H5.30156C5.39094 47.6247 6.71125 44.9211 9.2625 39.847C11.0918 39.5526 12.8756 39.0242 14.5702 38.2748L15.1795 38.2261C15.6592 38.1404 16.1516 38.1586 16.6236 38.2795C17.0956 38.4004 17.5362 38.6212 17.9156 38.9269L17.9522 39.2986C17.5013 40.5966 17.0016 41.3583 16.4653 41.5837L16.4531 41.602ZM11.5781 38.8476L11.9803 38.8111V38.9025L11.5781 38.9391V38.8476ZM17.2392 37.8909H17.5317C17.8059 38.0189 17.9461 38.1347 17.9583 38.2383V38.3297C17.8121 38.3316 17.6681 38.2949 17.5407 38.2232C17.4134 38.1515 17.3073 38.0473 17.2331 37.9214L17.2392 37.8909ZM18.0375 33.3328C17.371 33.947 16.6347 34.4808 15.8438 34.9233C15.4598 34.9598 14.0156 35.5326 11.5355 36.6051C11.413 36.5592 11.2811 36.5446 11.1516 36.5625V36.3858C11.1651 35.8953 11.3336 35.4217 11.633 35.033C11.828 34.0092 12.0352 33.4242 12.2423 33.2841L14.3142 28.6223C14.2898 28.3339 14.7327 28.1125 15.6427 27.9581H15.9352V28.2262C16.8248 28.0922 17.3855 28.013 17.5988 27.9947C19.2441 27.8545 20.1033 28.1897 20.1703 28.988H20.3592L20.3166 28.5187H20.5238C20.7191 28.5904 20.8942 28.7081 21.0342 28.862C21.1743 29.0158 21.2751 29.2012 21.3281 29.4023C21.3091 29.7654 21.1598 30.1094 20.9077 30.3712C20.7797 30.3712 20.7066 30.292 20.7005 30.1092H20.4933L20.4506 30.6759C19.6178 31.9231 19.0084 32.565 18.6225 32.6016C18.2813 33.0708 18.0741 33.3084 18.0131 33.3084L18.0375 33.3328ZM19.3111 36.5991C19.1944 36.5058 19.0519 36.4505 18.9028 36.4406V36.1603H19.0917L19.5061 36.4041C19.513 36.4294 19.5137 36.4561 19.5082 36.4818C19.5026 36.5074 19.491 36.5314 19.4743 36.5517C19.4576 36.572 19.4363 36.588 19.4121 36.5984C19.388 36.6087 19.3617 36.6131 19.3355 36.6112L19.3111 36.5991ZM20.6273 38.1591C20.8102 38.2322 20.9198 38.3114 20.9381 38.3845H20.8467H20.7919L20.6578 38.4942L20.6213 38.1164L20.6273 38.1591ZM20.7188 38.9391V38.8659L20.9564 38.8111V38.8842L20.7188 38.9391ZM21.2916 39.6094C21.5353 39.5667 21.6572 39.5545 22.1081 39.4509V39.5241L21.2428 39.7251C21.2448 39.6866 21.2448 39.6479 21.2428 39.6094H21.2916ZM22.1325 39.9689C21.8403 39.9751 21.5498 40.016 21.2672 40.0908V40.0176L21.9923 39.7861L22.3397 39.7069L22.3763 39.8409C22.2178 39.8775 22.3336 39.8775 22.1508 39.9689H22.1325ZM22.9003 39.7861C22.8799 39.7916 22.8586 39.7929 22.8377 39.79C22.8167 39.7871 22.7966 39.7801 22.7784 39.7693C22.7603 39.7585 22.7444 39.7442 22.7319 39.7272C22.7193 39.7102 22.7103 39.6908 22.7053 39.6703L22.9247 39.6216C22.9443 39.6138 22.9655 39.6109 22.9865 39.6129C23.0074 39.6149 23.0277 39.6218 23.0455 39.6331C23.0633 39.6443 23.0782 39.6597 23.089 39.6778C23.0997 39.6959 23.1061 39.7163 23.1075 39.7373L22.9003 39.7861ZM24.9844 37.5192V37.4461L25.3439 37.3608L25.3805 37.4948H25.0027L24.9844 37.5192ZM27.2025 51.1327C27.2178 51.0583 27.2178 50.9816 27.2025 50.9072H27.2817C27.3 50.8995 27.3199 50.8962 27.3398 50.8975C27.3596 50.8988 27.3788 50.9047 27.396 50.9148C27.4131 50.9248 27.4277 50.9387 27.4386 50.9554C27.4494 50.9721 27.4562 50.991 27.4584 51.0108V51.0839L27.1659 51.1509L27.2025 51.1327ZM28.7564 38.1042H28.598C28.3883 38.1915 28.1724 38.2628 27.952 38.3175L27.8058 38.3541C27.7866 38.3605 27.7663 38.363 27.7461 38.3612C27.7259 38.3594 27.7063 38.3535 27.6886 38.3438C27.6708 38.334 27.6553 38.3207 27.6429 38.3046C27.6306 38.2886 27.6217 38.2701 27.6169 38.2505L28.6406 37.9884L28.9819 37.83L29.0977 37.958C28.9693 37.9759 28.8477 38.0262 28.7442 38.1042H28.7564ZM29.5547 37.8483V37.7751C29.6302 37.7511 29.6976 37.7069 29.7497 37.6472L30.4688 37.4826V37.5558C30.1502 37.6264 29.8382 37.7243 29.5364 37.8483H29.5547ZM29.6705 36.3553C29.5935 36.3836 29.523 36.4271 29.4633 36.4833C29.4633 36.4345 29.3475 36.4345 29.1586 36.4833C29.122 36.3431 29.6705 36.142 30.7978 35.8739L30.9562 35.8373L30.9928 35.9714C30.2006 36.203 29.7741 36.337 29.6705 36.3492V36.3553ZM31.657 34.2103C31.5778 35.1122 31.2609 35.6241 30.7003 35.752V35.6789L30.2006 35.8739L29.9813 35.9226C29.8817 35.9511 29.7761 35.9511 29.6766 35.9226L29.6339 35.7216C30.295 34.6807 31.0195 33.6814 31.8033 32.7295H31.9739C31.9958 33.2315 31.8954 33.7313 31.6814 34.1859L31.657 34.2103ZM35.1731 31.2H35.1V31.0598H35.3925V31.133C35.3159 31.1542 35.2422 31.1849 35.1731 31.2244V31.2ZM33.7228 45.7397C33.5822 45.6658 33.4246 45.63 33.2658 45.6361V45.4228C33.2658 45.3497 33.3105 45.2989 33.3998 45.2705C33.4973 45.2705 33.5522 45.3253 33.5644 45.4776C33.6803 45.3048 33.8175 45.1472 33.9727 45.0084L34.125 45.0937C34.0702 45.5264 33.9361 45.7519 33.735 45.7701L33.7228 45.7397ZM49.2436 29.5059C49.1705 29.5059 49.0303 29.2866 48.8048 28.8234V28.6833C48.945 28.6833 49.0973 28.8905 49.2436 29.3475V29.5059ZM49.0364 27.885L48.9694 28.0312L46.867 27.1537C48.2686 27.1964 48.9938 27.4462 49.0364 27.885ZM40.1334 35.5266H39.8409V35.3864H40.1334V35.5266ZM39.8897 30.9319H39.9689V31.1451C39.8958 31.1451 39.8044 31.2467 39.6947 31.4498V31.3097C39.7975 31.2079 39.8638 31.0751 39.8836 30.9319H39.8897ZM39.2803 32.4066V32.6869H39.2011V32.4066H39.2803ZM38.9452 32.9367H39.0914C39.0914 33.1764 39.0284 33.3003 38.9025 33.3084H38.8172C38.8892 33.1971 38.9312 33.0691 38.9391 32.9367H38.9452ZM38.7075 33.6619H38.7745V33.735L38.6466 33.9605H38.5003V33.8873C38.6527 33.8873 38.7197 33.7959 38.7075 33.6558V33.6619ZM38.4698 34.32L38.4211 34.6856H38.3541V34.3261H38.5003L38.4698 34.32ZM36.0323 41.2059C35.9348 41.6812 35.8333 41.925 35.7277 41.9372V41.8762C35.7226 41.7479 35.7482 41.6202 35.8022 41.5036C35.8563 41.3871 35.9372 41.285 36.0384 41.2059H36.0323ZM35.5875 42.1687V42.2297C35.5936 42.2497 35.5946 42.271 35.5906 42.2915C35.5865 42.3121 35.5775 42.3314 35.5642 42.3476C35.551 42.3638 35.534 42.3766 35.5146 42.3847C35.4953 42.3928 35.4743 42.3961 35.4534 42.3942V42.3211C35.4534 42.248 35.4981 42.1972 35.5875 42.1687ZM35.4595 44.1675H35.685V44.2406C35.6073 44.2555 35.533 44.2844 35.4656 44.3259H35.3194C35.3194 44.2447 35.3641 44.1939 35.4534 44.1736L35.4595 44.1675ZM41.8336 42.1992C41.0535 42.5451 40.3086 42.9655 39.6094 43.4545C38.2444 43.9298 37.5741 44.2284 37.5802 44.3442C36.7676 44.6454 35.974 44.9954 35.2036 45.3923C35.0669 45.3865 34.9333 45.3489 34.8136 45.2826C34.8001 45.1597 34.8244 45.0355 34.8831 44.9267C34.9419 44.8178 35.0324 44.7294 35.1427 44.6733C35.3502 44.6537 35.5594 44.685 35.752 44.7647C36.1314 44.6022 36.5251 44.4758 36.9281 44.3869V44.2467L36.4711 44.2894C36.8802 44.0354 37.3179 43.8309 37.7752 43.68H38.0006V43.7409C37.6167 43.7775 37.3913 43.8872 37.3547 44.0944C37.3541 44.1141 37.3581 44.1336 37.3664 44.1516C37.3746 44.1695 37.3869 44.1852 37.4022 44.1976C37.4175 44.21 37.4355 44.2187 37.4548 44.223C37.474 44.2273 37.494 44.227 37.5131 44.2223C37.7995 44.0334 37.9336 43.9298 37.9336 43.8933C38.478 43.7958 39.9892 43.0036 42.4673 41.5167V41.6569C42.4673 41.7117 42.2602 41.8945 41.858 42.2053L41.8336 42.1992ZM38.0311 43.418C38.3907 43.4045 38.734 43.2642 39 43.0219C39.0975 43.0219 39.1523 43.0584 39.1584 43.1498C38.8011 43.2415 38.46 43.3874 38.1469 43.5825H38.0677V43.4484L38.0311 43.418ZM44.1736 38.7014L42.2845 40.2248C41.554 40.7475 40.7862 41.216 39.9872 41.6264C37.7406 42.8451 36.3411 43.487 35.7886 43.552H35.7094C35.7784 43.2961 36.7839 41.2445 38.7258 37.3973C40.1147 37.1635 41.4682 36.754 42.7538 36.1786L43.2108 36.1359C43.5748 36.0713 43.9485 36.0863 44.3062 36.18C44.6638 36.2736 44.997 36.4436 45.2827 36.6783V36.9586C44.9353 37.9336 44.5636 38.5064 44.1553 38.6831L44.1736 38.7014ZM40.4625 36.6417H40.755V36.7148H40.4625V36.6417ZM44.7586 35.9105H44.9841C45.1913 36.0141 45.3009 36.1055 45.307 36.1786V36.2395C45.195 36.2438 45.0839 36.217 44.986 36.1622C44.8882 36.1073 44.8074 36.0266 44.7525 35.9287L44.7586 35.9105ZM45.368 32.4553C44.8771 32.9234 44.3331 33.3325 43.747 33.6741C42.6239 34.0076 41.5295 34.4315 40.4747 34.9416C40.3791 34.9072 40.2775 34.8927 40.1761 34.8989V34.7587C40.1852 34.3863 40.3109 34.0261 40.5356 33.7289C40.6819 32.9428 40.8464 32.5101 41.017 32.4066L42.6014 28.8661C42.6014 28.6589 42.9183 28.4883 43.6008 28.3542H43.8263V28.5675C44.4966 28.4578 44.917 28.3948 45.0877 28.3786C46.3064 28.2689 46.9889 28.5187 47.0438 29.1342H47.19V28.793H47.3363C47.4919 28.849 47.6301 28.9449 47.737 29.0711C47.844 29.1972 47.9159 29.3493 47.9456 29.512C47.9362 29.7871 47.8305 30.0502 47.647 30.2555C47.5495 30.2555 47.4947 30.2006 47.4825 30.0483H47.3363L47.2936 30.4748C46.6842 31.4316 46.2028 31.9312 45.9164 31.9495C45.6605 32.2969 45.502 32.4736 45.4289 32.4797L45.368 32.4553ZM46.0322 34.8197V34.6064H46.1784L46.4953 34.8014C46.4979 34.8205 46.4964 34.8399 46.4909 34.8583C46.4853 34.8768 46.4759 34.8938 46.4632 34.9082C46.4504 34.9227 46.4347 34.9343 46.4172 34.9421C46.3996 34.95 46.3805 34.9539 46.3613 34.9537C46.271 34.885 46.1634 34.8428 46.0505 34.8319L46.0322 34.8197ZM19.5914 48.6037L19.4452 48.6403L19.3172 48.75C19.3194 48.7697 19.3262 48.7887 19.3371 48.8054C19.3479 48.822 19.3625 48.8359 19.3796 48.846C19.3968 48.8561 19.416 48.862 19.4359 48.8633C19.4557 48.8646 19.4756 48.8613 19.4939 48.8536C19.5914 48.8536 19.628 48.7744 19.6097 48.683V48.6098L19.5914 48.6037ZM19.0308 47.4825V47.5556C19.1283 47.5556 19.1648 47.4764 19.1466 47.385V47.3119C19.127 47.3138 19.108 47.32 19.0911 47.33C19.0742 47.3401 19.0597 47.3537 19.0486 47.37C19.0376 47.3863 19.0303 47.4048 19.0272 47.4243C19.0241 47.4437 19.0253 47.4636 19.0308 47.4825ZM23.0527 39.9323L23.1623 39.8653H23.1075C23.0907 39.8696 23.0762 39.8803 23.0672 39.8951C23.0581 39.9099 23.055 39.9276 23.0588 39.9445L23.0527 39.9323ZM23.0527 37.9762L23.2233 37.9336L23.1562 37.7812L22.9856 37.8239L23.0222 37.9701L23.0527 37.9762ZM63.18 43.7105L62.7961 43.6678L62.7291 43.8141V43.875L65.0264 43.68V43.5398L63.1983 43.6983L63.18 43.7105ZM65.2823 43.5337V43.6739V43.5337ZM74.9288 42.2723V42.4125L75.1786 42.4551V42.315L74.9288 42.2723ZM74.5753 42.2723C73.8245 42.4814 73.051 42.598 72.2719 42.6197V42.7598H72.4303H72.5156L72.7045 42.6867C74.4108 42.4978 74.6119 42.5648 74.5936 42.3759V42.3089L74.5753 42.2723ZM64.2159 39.7617L64.0636 39.713C63.9776 39.9077 63.9161 40.1124 63.8808 40.3223V40.3833C64.0027 40.3833 64.1063 40.1761 64.2098 39.7739L64.2159 39.7617ZM62.138 38.6405V38.5673H62.0588L61.9186 38.6587L61.9978 38.7928C62.1075 38.7928 62.1563 38.7319 62.1441 38.6344L62.138 38.6405ZM66.6534 43.3083V43.1681H66.6108V43.3083H66.6534ZM76.0195 41.1937H76.1292C76.1902 41.1937 76.2206 41.1389 76.2145 41.0475L76.1536 40.9134C75.8427 40.9117 75.5365 40.9893 75.2639 41.1389V41.0658L74.7947 41.1084C74.7947 40.9683 74.7459 40.8951 74.6789 40.9012H74.4352C74.1488 40.9012 74.0147 40.9012 73.8745 41.0231C73.8745 40.9744 73.8745 40.95 73.8258 40.95H73.5516L73.3931 41.0414C73.3931 40.9926 73.3931 40.9683 73.3444 40.9683L73.2469 41.0536V40.9805H72.8691H72.7777V41.1206L72.9727 41.1694H73.1555C73.218 41.206 73.2908 41.221 73.3627 41.212L73.5211 41.1328V41.1937C73.0282 41.3219 72.5275 41.4176 72.022 41.4801C71.9791 41.444 71.9257 41.4227 71.8697 41.4192C71.8537 41.4184 71.838 41.4145 71.8235 41.4076C71.809 41.4008 71.796 41.3911 71.7853 41.3792C71.7745 41.3674 71.7662 41.3535 71.7608 41.3384C71.7554 41.3233 71.7531 41.3073 71.7539 41.2912L72.0708 41.2486C72.1408 41.2709 72.212 41.2892 72.2841 41.3034C72.54 41.1755 72.5522 41.1267 72.6863 41.1145V40.9744C72.1515 41.0727 71.6091 41.1236 71.0653 41.1267H71.0166V40.9866C72.4242 40.8159 71.955 40.9134 72.4364 40.7794C72.4364 40.8281 72.4364 40.8525 72.4852 40.8525C72.5372 40.7988 72.606 40.7644 72.6802 40.755H72.7777C73.3053 40.7787 73.8335 40.7211 74.3438 40.5844V40.6453L74.5022 40.5661H74.6484C74.6484 40.4259 74.8556 40.4016 74.9288 40.3955V40.2431C73.2164 40.5905 72.7655 40.493 72.2902 40.627V40.5661C72.0905 40.6123 71.8852 40.6287 71.6808 40.6148C71.6263 40.6313 71.5777 40.663 71.5406 40.7062C71.5406 40.6575 71.5406 40.6331 71.4858 40.6331L70.0294 40.8708C70.0294 40.8281 70.0294 40.8098 69.9745 40.8159C69.466 40.9648 68.9431 41.0588 68.4145 41.0962C68.3466 41.1086 68.2821 41.1356 68.2256 41.1755C68.2256 41.1328 68.2256 41.1145 68.1464 41.1206L67.537 41.1694L67.1227 41.273C67.1227 41.2303 67.1227 41.212 67.0434 41.2181C66.8444 41.2758 66.6404 41.3145 66.4341 41.3339C66.3305 41.3339 66.4828 41.3339 66.4341 41.273L66.3061 41.3461C66.1233 41.3461 66.2208 41.3461 65.5992 41.3461C64.5023 41.4801 64.6242 41.4984 64.5023 41.5045H64.0941C64.0961 41.5132 64.0961 41.5223 64.0938 41.5309C64.0916 41.5396 64.0873 41.5475 64.0813 41.5541C64.0753 41.5607 64.0678 41.5658 64.0594 41.5688C64.051 41.5718 64.042 41.5728 64.0331 41.5716C63.57 41.5106 63.3263 41.4375 63.3263 41.3522C63.3872 40.9094 63.4948 40.6819 63.6492 40.6697H63.7284L63.6614 40.8159H63.7406C63.8869 40.7367 63.9539 40.6636 63.9478 40.5966V40.4442H63.8016V40.3041C63.7879 40.2065 63.8027 40.107 63.8442 40.0176L64.1794 39.4753V39.6155H64.3378V39.4753L64.2464 39.3473C64.3249 39.2672 64.424 39.2102 64.5328 39.1828V39.1097H64.3195V38.8964C64.594 38.405 64.7991 37.878 64.9289 37.3303L65.0813 37.3912C65.1788 37.3912 65.2214 37.3303 65.2153 37.2267H65.0691V37.1658C65.0585 37.0631 65.0776 36.9595 65.1239 36.8672C65.2281 36.7742 65.3105 36.6593 65.3653 36.5308C65.42 36.4023 65.4458 36.2633 65.4408 36.1237C65.4834 36.1237 65.5078 36.1237 65.5139 36.1908C65.715 36.075 65.8673 35.7764 65.977 35.2767C66.5692 34.0448 67.0722 32.772 67.4822 31.4681C68.7314 28.1044 68.7009 27.7509 68.8533 26.9526H68.707C68.7181 27.0534 68.699 27.1552 68.6522 27.2451C68.5775 27.211 68.4966 27.1924 68.4145 27.1903V27.1294C68.4206 26.7506 68.5513 26.3844 68.7863 26.0873H68.8533L68.9813 26.5748H69.1275C69.1519 26.3693 69.1906 26.1656 69.2433 25.9655C69.2433 25.8923 69.1823 25.8436 69.0666 25.8375L68.9264 25.9289C68.9264 25.8253 68.9264 25.5572 68.9264 25.1367H68.8533C68.7549 25.0582 68.6861 24.9486 68.6583 24.8259L67.8478 24.9051C67.8326 24.817 67.8017 24.7324 67.7564 24.6553C67.7564 24.5822 67.9331 24.5091 68.3048 24.4359L68.4694 24.4969L68.6217 24.4055C68.6217 24.4542 68.6583 24.4786 68.7131 24.4725L68.8655 24.3811C68.8655 24.4298 68.902 24.4542 68.9569 24.4481H69.03V24.2836C68.9142 24.2836 68.6156 24.2836 68.1403 24.2836L67.988 24.3872V24.2958C64.1773 24.6086 62.0141 24.7894 61.4981 24.8381C61.4311 24.8381 61.163 24.8381 60.6938 24.8381C60.6938 24.8991 60.645 24.9356 60.5292 24.9478L60.3647 24.8747L59.7188 24.9844C59.4998 25.004 59.2796 25.004 59.0606 24.9844C58.9716 25.0553 58.8633 25.0977 58.7498 25.1062L60.3647 24.9844C60.2475 25.0639 60.1101 25.1083 59.9686 25.1123C59.8579 25.1274 59.7452 25.1082 59.6456 25.0575C59.2463 25.1804 58.8391 25.2761 58.4269 25.3439L58.2623 25.283L55.6055 25.6912C55.4931 25.6399 55.3686 25.6209 55.2459 25.6364C55.0065 25.6678 54.7701 25.7187 54.5391 25.7887L53.2533 26.325L53.3508 26.4834C53.4442 26.4667 53.5332 26.4315 53.6128 26.3798L54.0698 26.4225L54.015 26.8491C53.8346 26.9132 53.6731 27.0216 53.5454 27.1642C53.4176 27.3068 53.3277 27.4792 53.2838 27.6656C52.6744 27.9459 52.3392 28.1409 52.3392 28.275V28.3481H52.4367L52.6073 28.2567L52.8084 28.4944V28.8234C52.8084 28.925 51.7502 31.1594 49.6336 35.5266C47.8055 39.7312 46.8305 42.0286 46.7391 42.443C46.1297 42.6197 45.7458 42.8756 45.6361 43.2169C45.6361 43.3266 45.8372 43.3997 46.1967 43.4241V43.5886L46.0322 43.8628V44.1919C46.0322 44.3625 46.4913 44.4925 47.4094 44.5819C47.4094 44.527 47.4094 44.4905 47.4947 44.4844C47.4885 44.8961 47.4312 45.3055 47.3241 45.7031H47.5313C47.8066 45.4099 47.9927 45.0442 48.0675 44.6489H48.1406C48.232 44.6489 48.3295 44.7464 48.4392 44.9658C48.3255 45.0105 47.9192 45.9144 47.2205 47.6775L47.318 47.8359H47.4155C48.2483 45.7234 48.7723 44.5555 48.9877 44.332C50.0845 44.2345 51.9797 44.0314 54.6731 43.7226L54.8438 43.6191C54.8431 43.6319 54.8456 43.6446 54.851 43.6563C54.8564 43.6679 54.8646 43.6781 54.8748 43.6859C54.8849 43.6936 54.8969 43.6988 54.9095 43.701C54.9222 43.7032 54.9351 43.7022 54.9473 43.6983H55.1241L55.2947 43.5947C55.2941 43.6075 55.2966 43.6203 55.302 43.6319C55.3074 43.6435 55.3155 43.6537 55.3257 43.6615C55.3359 43.6693 55.3478 43.6745 55.3605 43.6766C55.3731 43.6788 55.3861 43.6779 55.3983 43.6739L57.4397 43.4972C57.982 43.4545 58.2319 43.29 58.2136 43.0097C58.2136 42.9366 58.5244 42.8512 59.1703 42.7598C59.2659 42.7588 59.361 42.7753 59.4506 42.8086C59.4506 42.7598 59.7675 42.705 60.4134 42.6501C60.4134 42.3089 60.5353 42.1261 60.7303 42.1078V41.9433C60.5226 41.9673 60.3182 42.0143 60.1209 42.0834C59.8481 42.08 59.5764 42.0473 59.3105 41.9859C59.2305 42.0367 59.1415 42.0719 59.0484 42.0895L57.592 42.0469L57.4214 42.1383C57.4214 42.0855 57.3869 42.0631 57.3178 42.0712H57.2386L57.0558 42.1626C57.0558 42.1139 56.9034 42.0712 56.6048 42.0347L56.422 42.1444H56.0686V42.053C57.8967 41.8539 58.7986 41.6061 58.7742 41.3095C58.7984 41.3037 58.8235 41.3037 58.8477 41.3094C58.8718 41.3152 58.8943 41.3265 58.9133 41.3425C58.9323 41.3585 58.9472 41.3788 58.9569 41.4016C58.9666 41.4245 58.9709 41.4493 58.9692 41.4741L59.5055 41.34V41.1755L55.1302 41.2973C55.1302 41.3522 55.1302 41.3887 55.0448 41.3948L54.5086 41.3522C54.3855 41.3594 54.2671 41.4017 54.1673 41.4741L53.9541 41.4375C53.5421 41.4631 53.1337 41.5304 52.7353 41.6386C52.3297 41.6066 51.9222 41.6066 51.5166 41.6386L50.5355 41.7239L50.0784 41.6751C50.0784 41.3826 50.6208 39.9628 51.7786 37.4095C51.9501 36.8024 52.273 36.2489 52.717 35.8008C52.8143 35.8021 52.91 35.825 52.9973 35.8678L53.625 35.6301L53.9845 35.685C54.7051 35.6061 55.4121 35.4319 56.0869 35.167C56.2405 35.1451 56.397 35.1597 56.5439 35.2097L57.0802 35.0817L58.6706 34.9476C59.4199 34.8765 60.1595 34.7253 60.8766 34.4967V34.3322C60.5841 34.3322 60.4256 34.3322 60.4195 34.192C60.4195 33.9726 60.188 33.8812 59.7736 33.9117V33.7472L60.2123 33.6192L61.358 33.5217V33.3572C61.3153 33.3572 61.0777 33.3572 60.6511 33.3572V33.1805L61.0959 33.1378C61.2178 33.1378 61.2666 33.0708 61.2544 32.955C60.645 32.955 60.3586 32.955 60.3525 32.8636C56.1966 33.0667 54.1125 33.1053 54.1003 32.9794C54.006 32.9998 53.9169 33.0392 53.8383 33.0951L53.6616 32.9062C54.7625 30.5662 55.4084 29.3881 55.5994 29.3719C55.5882 29.5263 55.5424 29.6763 55.4653 29.8106V29.8594H55.642C56.0808 28.8173 56.4464 28.275 56.7572 28.2506C58.0613 28.1348 56.5744 28.0495 59.3714 27.6412C59.4481 27.6834 59.5338 27.7064 59.6213 27.7083C60.7181 27.4848 62.2456 27.2533 64.2038 27.0136V26.8491L63.1617 26.9466V26.782C63.2752 26.7735 63.3835 26.7311 63.4725 26.6601V26.7516C63.5592 26.7308 63.6404 26.6913 63.7102 26.6358C63.8501 26.6125 63.9938 26.6294 64.1245 26.6845C64.4123 26.604 64.7056 26.5449 65.002 26.5078L65.6541 26.4469C65.8125 26.3433 65.8856 26.2519 65.8795 26.1666V26.0934C65.6878 26.108 65.495 26.0957 65.3067 26.0569C65.3042 26.0352 65.306 26.0133 65.312 25.9924C65.318 25.9714 65.3281 25.9519 65.3417 25.9349C65.3553 25.9179 65.3721 25.9038 65.3912 25.8933C65.4103 25.8829 65.4313 25.8763 65.453 25.8741L66.6717 25.7583L67.2263 25.6181C67.2263 25.6791 67.2628 25.7034 67.3055 25.7034C67.3922 25.6827 67.4733 25.6432 67.5431 25.5876H67.6345C67.5361 25.8024 67.4546 26.0245 67.3908 26.2519H67.2323C67.224 26.1488 67.1928 26.0488 67.1409 25.9594H67.0313C65.5566 30.0726 64.8984 31.9861 63.5334 35.1426C63.2836 35.947 63.0764 36.398 62.8936 36.4955C62.893 36.5152 62.897 36.5347 62.9053 36.5526C62.9135 36.5706 62.9258 36.5863 62.9411 36.5987C62.9564 36.6111 62.9744 36.6198 62.9937 36.6241C63.0129 36.6283 63.0329 36.6281 63.052 36.6234C63.0835 37.0351 62.9855 37.4463 62.7717 37.7995C62.1623 39.6276 61.7236 40.6087 61.5042 40.7916L61.6444 41.6508C61.647 41.6698 61.6455 41.6893 61.6399 41.7077C61.6344 41.7261 61.6249 41.7432 61.6122 41.7576C61.5995 41.7721 61.5838 41.7836 61.5662 41.7915C61.5486 41.7993 61.5296 41.8033 61.5103 41.8031H61.3641C61.3641 41.5655 61.2544 41.4497 61.102 41.468H61.0228C60.8184 41.79 60.67 42.1444 60.5841 42.5161H60.7303C60.815 42.4741 60.8858 42.4088 60.9344 42.3278C60.983 42.2468 61.0074 42.1535 61.0045 42.0591H61.297L61.4677 42.12C61.3525 42.2689 61.2865 42.4499 61.2788 42.638L61.358 42.772L61.163 43.2291V43.3022C61.36 43.2942 61.5544 43.3497 61.7175 43.4606C61.8775 43.4325 62.0281 43.3655 62.1563 43.2656C62.3269 43.2656 62.9606 43.2656 64.0575 43.2656L64.6059 43.0767C65.0593 43.0867 65.513 43.0725 65.9648 43.0341H66.2025L66.3305 42.9487V43.0219C66.7042 42.9794 67.0823 42.9937 67.4517 43.0645V43.1376H67.1166V43.2778C67.2144 43.2714 67.3079 43.2352 67.3847 43.1742C67.47 43.1742 67.5187 43.2169 67.5248 43.3144C67.369 43.3309 67.2156 43.3656 67.0678 43.418L66.9216 43.3692C66.69 43.4301 66.7388 43.4484 66.5803 43.4606L66.3488 43.418C66.3506 43.4261 66.3506 43.4346 66.3487 43.4427C66.3468 43.4508 66.343 43.4584 66.3377 43.4649C66.3324 43.4714 66.3257 43.4765 66.3181 43.48C66.3106 43.4835 66.3023 43.4852 66.2939 43.485C66.2928 43.5032 66.2957 43.5214 66.3026 43.5382C66.3094 43.5551 66.3199 43.5702 66.3334 43.5825C66.3468 43.5948 66.3628 43.6039 66.3803 43.6092C66.3977 43.6144 66.4161 43.6157 66.4341 43.613H66.6717L67.8905 43.5033L68.3597 43.3997C68.3597 43.4423 68.3597 43.4606 68.4206 43.4545L68.6461 43.3692L69.0727 43.3326C69.4017 43.3326 69.3956 43.2839 70.1147 43.1681C70.1147 43.1255 70.1147 43.1072 70.1573 43.1011V43.162C70.6384 43.1037 71.1149 43.0121 71.5833 42.8878V42.9244C71.8758 42.8573 71.7113 42.8756 71.7905 42.8147C71.7905 42.8634 71.7905 42.8878 71.8392 42.8878H72.0464V42.7355H71.632H71.5894H71.5345C71.3819 42.764 71.2266 42.7763 71.0714 42.772L70.0294 42.8269V42.7537L70.6388 42.6745H70.8459L70.9678 42.5892V42.6562C71.7844 42.5892 72.0769 42.7903 75.8428 41.9859C76.05 41.9859 76.0317 41.797 76.1597 41.4436C76.0899 41.4496 76.0199 41.4348 75.9586 41.4009C75.6047 41.4869 75.2436 41.5399 74.88 41.5594C74.8312 41.5594 74.7886 41.5167 74.7703 41.4314V41.3705H75.3797C75.5957 41.3475 75.8038 41.2767 75.9891 41.1633C75.9891 41.212 75.8672 41.2425 75.9403 41.2364L76.0195 41.1937ZM48.0614 41.6447H47.7933C47.8826 41.2218 48.0259 40.8122 48.2198 40.4259H48.3966C48.3409 40.8456 48.2282 41.2556 48.0614 41.6447ZM48.3844 40.3528V40.2797C48.3844 40.1883 48.4331 40.1273 48.5611 40.0969V40.2187C48.5611 40.3284 48.5123 40.3894 48.3844 40.4016V40.3528ZM51.9309 43.095V43.1681L51.4861 43.2108V43.1376L51.9309 43.095ZM51.3947 43.0523C51.3947 43.1437 51.2667 43.2473 50.9681 43.3448L50.4258 43.3022H50.2491V43.1376L51.413 43.028L51.3947 43.0523ZM54.9839 26.5322H54.7158V26.4408C54.7158 26.3494 54.7584 26.2884 54.8742 26.258H54.9717L55.1545 26.3311C55.1582 26.3544 55.1566 26.3782 55.1499 26.4007C55.1432 26.4233 55.1315 26.4441 55.1158 26.4617C55.1 26.4792 55.0805 26.4929 55.0588 26.502C55.037 26.511 55.0135 26.5151 54.99 26.5139L54.9839 26.5322ZM59.0423 25.74H59.1094V25.9045H58.8656C58.8631 25.8829 58.8649 25.861 58.8709 25.84C58.8769 25.8191 58.887 25.7996 58.9006 25.7826C58.9142 25.7656 58.931 25.7514 58.9501 25.741C58.9692 25.7305 58.9902 25.724 59.0119 25.7217L59.0423 25.74ZM58.0186 26.0995L57.6164 26.0569V25.9837C57.9663 25.9604 58.3121 25.8949 58.6463 25.7887C58.6463 25.8497 58.7072 25.8741 58.8108 25.8619V26.0264H58.6523C58.5416 26.0414 58.4289 26.0223 58.3294 25.9716C58.2367 26.0347 58.13 26.0744 58.0186 26.0873V26.0995ZM58.5 27.5986V27.5255L59.152 27.4645V27.5376L58.5 27.5986ZM59.2008 27.0319V26.9344H59.5177V27.0258H59.2008V27.0319ZM59.2739 25.9167H59.1886L59.2617 25.74L59.9869 25.673V25.7644C59.7435 25.793 59.503 25.8419 59.2678 25.9106L59.2739 25.9167ZM59.6456 27.4828V27.3183H59.9625C60.0722 27.3183 60.1291 27.3691 60.1331 27.4706L59.6578 27.5133L59.6456 27.4828ZM61.5713 24.8625L61.163 24.9783H61.0898C60.8367 25.0035 60.5817 25.0056 60.3281 24.9844C60.8583 24.9478 61.3641 24.9112 61.5469 24.8808L61.5713 24.8625ZM61.1325 26.6906V26.7637L60.5719 26.8125V26.7394L61.1325 26.6906ZM62.0527 27.1294C62.0527 27.0623 61.9369 27.0136 61.7175 26.9953L61.1569 27.1537H60.7242C60.6267 27.0867 60.578 27.038 60.5719 27.0075H61.0716L62.1928 26.8247H62.7656V26.9161C62.5211 26.9373 62.2799 26.9863 62.0466 27.0623L62.0527 27.1294ZM67.8356 25.5937H67.9636C68.1582 25.4001 68.3877 25.245 68.64 25.1367C68.515 25.8778 68.1834 26.5685 67.6833 27.1294L67.3664 26.9344C67.5538 26.4948 67.7106 26.0428 67.8356 25.5816V25.5937ZM66.8606 27.2695H66.9398C66.8302 27.4767 66.7327 27.5803 66.6534 27.5864V27.3731C66.7336 27.3597 66.8091 27.3261 66.8728 27.2756L66.8606 27.2695ZM66.2513 28.7747C66.3 28.3921 66.4517 28.0298 66.69 27.7266V27.7997C66.6108 28.3664 66.4828 28.6711 66.3183 28.6894V29.0489C66.2067 29.1768 66.1384 29.3368 66.1233 29.5059H66.0441L66.0014 29.0123C66.0928 29.0123 66.1659 28.9209 66.2147 28.7747H66.2513ZM66.0075 29.5912C65.984 29.8016 65.9285 30.0071 65.843 30.2006H65.7638V29.9873C65.8734 29.7375 65.9648 29.6095 66.0258 29.6095L66.0075 29.5912ZM61.425 42.8878V42.8269H61.5713V43.0401C61.492 43.0401 61.4372 42.9975 61.4128 42.9L61.425 42.8878ZM67.9697 43.0584C67.9697 43.0097 67.9697 42.9853 67.8905 42.9914L67.5188 43.028V42.9548H67.5553L68.4267 42.8817V42.9548C68.2667 42.9427 68.1068 42.9811 67.9697 43.0645V43.0584ZM67.5309 42.8756C67.5675 42.8756 67.5309 42.9122 67.5309 42.9183C67.5309 42.9244 67.4883 42.9183 67.5309 42.8756ZM67.5736 41.8519L67.0861 41.8945V41.8214L67.5309 41.7787L67.9148 41.6812C67.9148 41.7239 67.9148 41.7422 67.9941 41.7361C68.4511 41.6569 68.4084 41.6325 68.6034 41.6142C68.6766 41.6142 68.7253 41.6569 68.7314 41.7422L67.5553 41.8458L67.5736 41.8519ZM69.2799 41.7056C69.1215 41.6735 68.9598 41.6612 68.7984 41.6691V41.6081L69.2372 41.5655V41.6264C69.1945 41.6264 69.3591 41.6264 69.2799 41.6995V41.7056ZM69.3164 41.6264V41.5655H69.5541V41.6264H69.3164ZM69.8466 41.5837V41.5228C69.9099 41.5062 69.9683 41.4749 70.0172 41.4314C70.0406 41.428 70.0644 41.4294 70.0872 41.4357C70.1099 41.442 70.1311 41.4529 70.1495 41.4678C70.1678 41.4827 70.1828 41.5012 70.1936 41.5222C70.2044 41.5432 70.2108 41.5663 70.2122 41.5898L69.8466 41.5837ZM70.523 41.4984V41.4375H70.8155V41.5106H70.523V41.4984ZM70.9252 41.4619C70.9252 41.3766 70.9252 41.3278 71.0288 41.3156L71.1263 41.4436C71.1245 41.4364 71.1242 41.4289 71.1254 41.4215C71.1265 41.4142 71.1292 41.4072 71.1332 41.4009C71.1372 41.3947 71.1424 41.3893 71.1486 41.3851C71.1547 41.3809 71.1616 41.378 71.1689 41.3766L71.242 41.5106L70.9252 41.468V41.4619ZM76.5984 40.755C76.6411 40.755 76.6655 40.7001 76.5558 40.6819C76.4461 40.6636 76.6106 40.755 76.5009 40.7611V40.8281L76.5619 40.7855L76.5009 40.8342L76.3791 40.9866L76.6167 40.9012V40.7611L76.5984 40.755ZM77.0128 41.078H76.9702V41.2181H77.3053C77.3053 41.1267 77.0798 41.0962 77.0067 41.0962L77.0128 41.078Z" fill="white"/>
</svg>
