<svg width="42" height="46" viewBox="0 0 42 46" fill="none" xmlns="http://www.w3.org/2000/svg">
<path d="M17.0136 3.20872L17.0138 3.20935L17.0136 3.20872C7.65815 4.9731 0.474912 8.93524 1.06457 12.0618C1.21983 12.8851 5.48933 24.3078 7.18234 28.8378C7.94163 30.8689 13.947 32.9251 22.3139 31.3471L22.3154 31.321L22.3201 31.346C30.7401 29.758 35.535 25.665 35.5022 23.4959C35.4293 18.6607 35.2457 6.46776 35.0904 5.64448C34.5011 2.51813 26.3691 1.44403 17.0136 3.20841L17.0136 3.20872ZM21.6047 27.5523C18.6178 28.1156 15.7395 26.1505 15.1763 23.1639C14.613 20.177 16.5779 17.2991 19.5648 16.7358C22.5516 16.1725 25.4298 18.137 25.9931 21.1242C26.5564 24.1108 24.5916 26.989 21.6047 27.5523ZM18.404 10.5983C12.3848 11.7238 7.31085 11.5975 7.07124 10.3167C6.83187 9.03555 11.5178 7.08515 17.5371 5.96028C23.5563 4.83479 28.6301 4.9604 28.8696 6.24189C29.1095 7.52263 24.4238 9.47235 18.4043 10.5979L18.404 10.5983Z" fill="white"/>
<path d="M34.4566 28.5533C34.1978 28.6021 34.0253 28.8246 34.0253 28.8246C34.0253 28.8246 30.4614 32.9328 22.8887 34.3609C15.3161 35.7891 10.5006 33.2612 10.5006 33.2612C10.5006 33.2612 10.2587 33.1172 10.0002 33.166C9.69148 33.2242 9.43751 33.4872 9.52391 33.9453C9.53302 33.9936 9.54682 34.0411 9.5648 34.0868C10.8714 37.4444 11.8133 39.8277 11.9672 40.1881C13.0176 42.6413 18.391 43.6325 24.4221 42.495L24.4228 42.4949C30.4546 41.3574 35.0978 38.4772 35.1825 35.8098C35.1952 35.4183 35.2038 32.8574 35.1979 29.2545C35.1977 29.2051 35.1934 29.1552 35.1843 29.1069C35.0979 28.6484 34.7655 28.4957 34.4568 28.5539L34.4566 28.5533Z" fill="white"/>
<path d="M21.0902 24.8536C22.5871 24.5713 23.5717 23.1291 23.2894 21.6322C23.0071 20.1354 21.5648 19.1508 20.068 19.4331C18.5711 19.7154 17.5865 21.1576 17.8688 22.6545C18.1511 24.1513 19.5934 25.1359 21.0902 24.8536Z" fill="white"/>
</svg>
