<svg width="41" height="41" viewBox="0 0 41 41" fill="none" xmlns="http://www.w3.org/2000/svg">
<g clip-path="url(#clip0)">
<path d="M23.4753 20.1801C22.7966 20.0498 21.8653 20.2167 20.6419 20.3744L15.7267 21.0081L16.5538 27.4237L21.8101 26.7461C22.6313 26.6402 23.1969 26.478 23.5212 26.3738C24.0932 26.1934 24.5565 25.9272 24.9182 25.6316C25.2798 25.3366 25.5553 24.9242 25.7488 24.424C25.9418 23.9238 25.9982 23.3605 25.9194 22.7487C25.827 22.0324 25.5726 21.506 25.137 21.0245C24.7018 20.5429 24.1542 20.3104 23.4753 20.1801ZM22.4224 17.3338C23.0439 17.0585 23.488 16.6604 23.7584 16.1727C24.0289 15.6847 24.1196 15.0965 24.0328 14.4234C23.9506 13.7857 23.7245 13.2398 23.3559 12.7939C22.9874 12.348 22.5266 12.2165 21.9353 12.1104C21.344 12.0048 20.3767 12.1849 18.9959 12.3629L14.6838 12.9188L15.403 18.4976L20.0298 17.9011C21.1573 17.7558 21.9517 17.5456 22.4224 17.3338ZM35.8164 5.26721C35.4862 2.70597 33.1424 0.897467 30.5811 1.22766L4.98826 4.52709C2.42702 4.85729 0.618519 7.20111 0.948714 9.76235L4.24814 35.3552C4.57834 37.9165 6.92216 39.725 9.4834 39.3948L35.0763 36.0954C37.6375 35.7652 39.446 33.4213 39.1158 30.8601L35.8164 5.26721ZM28.3065 24.9855C28.0263 25.808 27.6332 26.465 27.128 26.9566C26.6225 27.4483 25.9669 27.8947 25.1512 28.2176C24.3359 28.5408 23.321 28.8199 22.0978 28.9776L14.331 29.9789L11.8497 10.732L19.4982 9.74591C20.9666 9.55661 22.1659 9.57469 23.103 9.8489C24.0405 10.1236 24.8107 10.6204 25.4178 11.364C26.0244 12.1076 26.3839 12.9145 26.4977 13.7971C26.6036 14.6186 26.4798 15.418 26.1279 16.2007C25.7757 16.984 25.1778 17.6543 24.3354 18.2161C25.5414 18.4071 26.51 18.8727 27.2407 19.6133C27.9715 20.3542 28.4089 21.2838 28.5531 22.4024C28.6692 23.3025 28.587 24.1633 28.3065 24.9855Z" fill="white"/>
</g>
<defs>
<clipPath id="clip0">
<rect width="36" height="36" fill="white" transform="translate(0 4.60303) rotate(-7.34605)"/>
</clipPath>
</defs>
</svg>
