<svg width="28" height="22" viewBox="0 0 28 22" fill="none" xmlns="http://www.w3.org/2000/svg">
<path d="M23.3333 0.333496H4.66667C3.60581 0.333496 2.58839 0.754924 1.83824 1.50507C1.0881 2.25521 0.666672 3.27263 0.666672 4.3335V17.6668C0.666672 18.7277 1.0881 19.7451 1.83824 20.4953C2.58839 21.2454 3.60581 21.6668 4.66667 21.6668H23.3333C24.3942 21.6668 25.4116 21.2454 26.1618 20.4953C26.9119 19.7451 27.3333 18.7277 27.3333 17.6668V4.3335C27.3333 3.27263 26.9119 2.25521 26.1618 1.50507C25.4116 0.754924 24.3942 0.333496 23.3333 0.333496ZM22.7867 3.00016L14.9467 10.8402C14.8227 10.9651 14.6753 11.0643 14.5128 11.132C14.3503 11.1997 14.176 11.2346 14 11.2346C13.824 11.2346 13.6497 11.1997 13.4872 11.132C13.3248 11.0643 13.1773 10.9651 13.0533 10.8402L5.21334 3.00016H22.7867ZM24.6667 17.6668C24.6667 18.0205 24.5262 18.3596 24.2761 18.6096C24.0261 18.8597 23.687 19.0002 23.3333 19.0002H4.66667C4.31305 19.0002 3.97391 18.8597 3.72386 18.6096C3.47381 18.3596 3.33334 18.0205 3.33334 17.6668V4.88016L11.1733 12.7202C11.9233 13.4692 12.94 13.89 14 13.89C15.06 13.89 16.0767 13.4692 16.8267 12.7202L24.6667 4.88016V17.6668Z" fill="black"/>
</svg>
