<svg width="40" height="40" viewBox="0 0 40 40" fill="none" xmlns="http://www.w3.org/2000/svg">
<path d="M4.28571 0H35.7143C38.0804 0 40 1.91964 40 4.28571V35.7143C40 38.0804 38.0804 40 35.7143 40H4.28571C1.91964 40 0 38.0804 0 35.7143V4.28571C0 1.91964 1.91964 0 4.28571 0ZM15.2411 34.2589C15.9911 34.3929 16.2679 33.9286 16.2679 33.5446C16.2679 33.0625 16.25 30.5982 16.25 28.6071C16.25 27.2143 16.7143 26.3304 17.2589 25.8661C13.9554 25.5 10.4732 25.0446 10.4732 19.3393C10.4732 17.7143 11.0536 16.9018 12 15.8571C11.8482 15.4732 11.3393 13.8929 12.1518 11.8393C13.3929 11.4554 16.2321 13.4375 16.2321 13.4375C17.4107 13.1071 18.6875 12.9375 19.9464 12.9375C21.2054 12.9375 22.4821 13.1071 23.6607 13.4375C23.6607 13.4375 26.5 11.4554 27.7411 11.8393C28.5536 13.8839 28.0536 15.4643 27.8929 15.8571C28.8393 16.9018 29.2857 17.7143 29.2857 19.3393C29.2857 25.0179 25.9554 25.5 22.6518 25.8661C23.0804 26.25 23.4643 26.9107 23.5982 27.8571C24.4464 28.2411 26.6161 28.9018 27.9107 26.6161C28.7232 25.2054 30.1875 25.0893 30.1875 25.0893C31.6339 25.0714 30.2857 26 30.2857 26C29.3214 26.4464 28.6429 28.1607 28.6429 28.1607C27.7768 30.8125 23.6339 29.9196 23.6339 29.9196C23.6339 31.1607 23.6161 33.1786 23.6161 33.5446C23.6161 33.9286 23.8839 34.3929 24.6429 34.2589C30.5357 32.2857 34.6607 26.6786 34.6607 20.125C34.6607 11.9286 28.3929 5.70536 20.1964 5.70536C12 5.70536 5.35714 11.9286 5.35714 20.125C5.34821 26.6786 9.34822 32.2946 15.2411 34.2589ZM24 28.8036C24.1696 28.8393 24.3304 28.7679 24.3482 28.6518C24.3661 28.5179 24.25 28.4018 24.0804 28.3661C23.9107 28.3482 23.75 28.4196 23.7321 28.5357C23.7054 28.6518 23.8214 28.7679 24 28.8036ZM24.8482 28.7232C24.8482 28.8393 24.9821 28.9375 25.1607 28.9375C25.3571 28.9554 25.4911 28.8571 25.4911 28.7232C25.4911 28.6071 25.3571 28.5089 25.1786 28.5089C25.0089 28.4911 24.8482 28.5893 24.8482 28.7232ZM26.0714 28.625C26.1071 28.7411 26.2857 28.7946 26.4375 28.7411C26.6071 28.7054 26.7232 28.5714 26.6875 28.4554C26.6518 28.3393 26.4732 28.2857 26.3214 28.3214C26.1429 28.375 26.0268 28.5089 26.0714 28.625ZM27.1696 28.1429C27.25 28.2411 27.4196 28.2232 27.5536 28.0893C27.6875 27.9732 27.7232 27.8036 27.6339 27.7232C27.5536 27.625 27.3839 27.6429 27.25 27.7768C27.1339 27.8929 27.0893 28.0714 27.1696 28.1429ZM27.9821 27.3304C28.0625 27.3839 28.2143 27.3304 28.3125 27.1964C28.4107 27.0625 28.4107 26.9107 28.3125 26.8482C28.2143 26.7679 28.0625 26.8304 27.9821 26.9643C27.8839 27.0982 27.8839 27.2589 27.9821 27.3304ZM28.5625 26.4643C28.6429 26.5446 28.7768 26.5 28.875 26.4107C28.9732 26.2946 28.9911 26.1607 28.9107 26.0982C28.8304 26.0179 28.6964 26.0625 28.5982 26.1518C28.5 26.2679 28.4821 26.4018 28.5625 26.4643ZM29.1607 25.8036C29.1964 25.8839 29.3125 25.9018 29.4107 25.8393C29.5268 25.7857 29.5804 25.6875 29.5446 25.6071C29.5089 25.5536 29.4107 25.5268 29.2946 25.5714C29.1786 25.6339 29.125 25.7321 29.1607 25.8036Z" fill="white"/>
</svg>
