<svg width="60" height="60" viewBox="0 0 60 60" fill="none" xmlns="http://www.w3.org/2000/svg">
<g clip-path="url(#clip0)">
<path d="M3.44155 13.642L19.1653 52.3783L36.4615 51.9098L51.1107 42.6215L42.4978 1.70676L3.44155 13.642ZM37.9859 13.3943L38.5418 16.0103L38.8008 17.2088L20.0909 22.9263L22.0574 27.7636L39.876 22.3184L40.1334 23.588L42.9061 36.7707L43.068 37.603L33.8923 43.417L33.8925 43.4178L33.8824 43.4278L23.0662 43.8498L20.0844 36.5237L24.9923 35.0239L26.5256 38.7967L32.3995 38.5869L32.4148 38.5823L32.3555 38.3883L37.3899 35.3446L36.0513 28.9253L19.1059 34.1036L13.7659 20.9294L13.2275 19.5856L37.719 12.1012L37.9859 13.3943Z" fill="white"/>
</g>
<defs>
<clipPath id="clip0">
<rect width="47.5496" height="47.5496" fill="white" transform="translate(0.0156784 13.912) rotate(-16.9926)"/>
</clipPath>
</defs>
</svg>
