<svg width="41" height="41" viewBox="0 0 41 41" fill="none" xmlns="http://www.w3.org/2000/svg">
<g clip-path="url(#clip0)">
<path fill-rule="evenodd" clip-rule="evenodd" d="M16.3314 22.471L20.3848 21.6501C19.2064 19.418 18.0748 17.3631 16.947 15.2702C16.7441 17.6409 16.5213 19.9618 16.3314 22.471ZM32.7828 0.471335L0.811035 6.94663C0.234568 7.06338 0.342532 7.17219 0.455172 7.72835L6.93874 39.741C7.05128 40.2966 6.96414 40.2907 7.5 40.1821L39.553 33.6904C40.0886 33.5819 40.2786 33.567 40.166 33.0111L33.6907 1.03939C33.5698 0.442614 33.3593 0.354582 32.7828 0.471335ZM25.5114 28.024C25.0797 28.1114 24.6394 28.1641 24.216 28.2819C23.9109 28.3679 23.7809 28.2586 23.6438 28.0063C22.9812 26.7868 22.2937 25.573 21.6308 24.3538C21.4974 24.1085 21.3631 24.0363 21.0803 24.0972C19.6273 24.409 18.1697 24.7026 16.7095 24.9805C16.4021 25.0389 16.2775 25.1492 16.2516 25.4713C16.1428 26.8396 15.997 28.2044 15.8839 29.5722C15.8594 29.8687 15.7558 29.9915 15.4568 30.0441C14.5773 30.1995 13.7038 30.3904 12.7457 30.5844C12.836 29.7302 12.915 28.9412 13.0026 28.1536C13.538 23.3234 14.0785 18.4921 14.6028 13.661C14.6396 13.3247 14.7599 13.199 15.0857 13.1404C16.115 12.9556 17.1372 12.731 18.1613 12.5175C18.3528 12.4774 18.4859 12.4622 18.6001 12.6658C21.3899 17.6232 24.1924 22.612 26.9866 27.5679C26.9989 27.5904 27.0198 27.7185 27.0238 27.7177L25.5114 28.024ZM30.9707 26.9183L27.8062 27.5592L25.4028 15.6923L28.5673 15.0514L30.9707 26.9183ZM26.5685 13.7896C25.6018 13.984 24.775 13.4588 24.5793 12.5261C24.3843 11.5959 24.9642 10.7573 25.9394 10.5587C26.9223 10.3585 27.7508 10.8883 27.9525 11.8451C28.1487 12.7785 27.5733 13.5877 26.5685 13.7896Z" fill="white"/>
</g>
<defs>
<clipPath id="clip0">
<rect width="34.44" height="34.44" fill="white" transform="translate(0 6.83636) rotate(-11.4493)"/>
</clipPath>
</defs>
</svg>
