<svg width="49" height="49" viewBox="0 0 49 49" fill="none" xmlns="http://www.w3.org/2000/svg">
<g clip-path="url(#clip0)">
<path d="M0.701294 7.33301L7.65584 47.6862L48.009 40.7317L41.0545 0.37846L0.701294 7.33301ZM27.9722 38.0395C27.5852 39.3524 26.5852 40.3435 25.3339 40.9544C23.3896 41.7682 21.4076 41.8368 19.8182 41.2205C18.7523 40.7953 17.8425 40.0146 17.1508 39.0539L19.8997 36.6421C19.9284 36.6488 20.0343 36.7808 20.1746 36.9508C20.6797 37.5398 21.0978 37.9465 21.8184 38.1583C22.5096 38.2686 23.9671 38.164 24.3225 36.92C24.5598 36.2774 24.1286 34.4178 23.7705 32.3397C23.2074 29.0744 22.6621 25.82 22.1058 22.5917L25.8857 21.9403C26.4977 25.4914 27.0967 28.8512 27.6745 32.3198C28.0487 34.4426 28.5594 36.3045 27.9722 38.0395ZM43.4691 34.2691C42.9298 38.9899 35.6293 40.3984 32.1902 37.9335C31.4512 37.3412 31.0006 37.0429 30.4926 36.2998C31.894 35.1368 31.894 35.1368 33.2568 34.0001C34.2969 35.1222 35.1769 35.6862 36.5937 35.7349C38.4884 35.6417 40.2454 34.6824 39.4871 32.7837C38.7793 31.2483 35.3425 31.4374 32.7528 30.1113C30.1555 28.949 28.9552 25.244 30.4941 22.7436C30.9934 21.8309 31.9774 21.0443 33.0686 20.5598L34.2327 20.2006C36.5106 19.7605 38.0435 20.1179 39.2942 21.1083C39.637 21.3538 39.9302 21.6317 40.4948 22.246C39.4109 23.232 39.4135 23.2239 37.8639 24.6537C37.353 23.9154 36.648 23.5183 35.9569 23.4121C34.8896 23.2795 33.6682 23.8341 33.5875 24.9516C33.5524 25.2977 33.6244 25.6018 33.8647 26.1221C34.4372 26.9885 35.8865 27.1582 37.2215 27.5135C41.0315 28.3441 42.501 29.6854 43.1143 31.4778C43.6726 33.0158 43.4965 34.1062 43.4691 34.2691Z" fill="white"/>
</g>
<defs>
<clipPath id="clip0">
<rect width="41.9309" height="41.9309" fill="white" transform="translate(0 7.12146) rotate(-9.77841)"/>
</clipPath>
</defs>
</svg>
