<svg width="40" height="40" viewBox="0 0 40 40" fill="none" xmlns="http://www.w3.org/2000/svg">
<path d="M20.4009 33.415C20.1422 33.3566 19.8906 33.2756 19.6381 33.2009L19.4478 33.1431C19.2009 33.0675 18.9563 32.9878 18.7128 32.9041L18.6119 32.8675C18.3938 32.7909 18.1781 32.71 17.9638 32.6272L17.7819 32.5556C17.5469 32.4628 17.3131 32.3659 17.0825 32.2647L16.9428 32.2028C16.7444 32.1128 16.5481 32.0222 16.3525 31.9281L16.1819 31.8463C16.0284 31.7716 15.8766 31.6922 15.7253 31.6141C15.6241 31.5606 15.5209 31.5103 15.4206 31.4547C15.2356 31.3556 15.0541 31.2528 14.8734 31.1478L14.6888 31.0447C14.4484 30.9034 14.2109 30.7569 13.9763 30.6081L13.7841 30.48C13.6134 30.3703 13.4441 30.2584 13.2769 30.1428L13.1134 30.0281C12.9522 29.9141 12.7928 29.7988 12.6341 29.6816L12.4219 29.5209C12.2769 29.41 12.1322 29.2981 11.9894 29.1828L11.7966 29.0281C11.615 28.8784 11.4353 28.7284 11.2578 28.5741L11.1991 28.5244C11.0072 28.3559 10.8188 28.1831 10.6328 28.0097L10.4734 27.8563C10.3356 27.725 10.2 27.5928 10.0666 27.4572L9.90719 27.2981C9.7375 27.1244 9.57094 26.9484 9.4075 26.77L9.38313 26.7438C9.21031 26.555 9.04188 26.3622 8.87657 26.1675L8.74407 26.01C8.62063 25.8616 8.49875 25.7113 8.37938 25.5594L8.24594 25.3931C8.1025 25.2069 7.96219 25.0216 7.825 24.8325C4.02813 19.6531 2.66375 12.51 5.69875 6.64375L3.00782 10.0566C-0.438748 15.01 -0.00968528 21.4553 2.62313 26.7191C2.68563 26.8453 2.75156 26.9694 2.81594 27.0934L2.93938 27.3306L3.01594 27.4672L3.15313 27.7128C3.235 27.8569 3.31875 28.0003 3.40469 28.1438L3.54782 28.38C3.64282 28.5334 3.74 28.685 3.83969 28.8363L3.96407 29.0281C4.10094 29.2328 4.24157 29.4372 4.38657 29.6378L4.39875 29.6534L4.47 29.7497C4.595 29.9225 4.72438 30.0931 4.855 30.2619L4.99969 30.4463C5.11625 30.5928 5.23469 30.7384 5.35563 30.8834L5.49157 31.0459C5.65344 31.2366 5.81875 31.4263 5.98719 31.6122L5.99719 31.6225L6.01657 31.6438C6.18094 31.8234 6.34969 31.9991 6.52032 32.1747L6.68188 32.3375C6.81407 32.4706 6.94844 32.6016 7.08407 32.7319L7.24844 32.8881C7.42969 33.0591 7.61282 33.2266 7.79969 33.3903L7.80844 33.3972L7.90438 33.4791C8.06875 33.6216 8.23625 33.7631 8.40532 33.9019L8.61282 34.0672C8.75063 34.1778 8.89 34.2866 9.03032 34.3934L9.25344 34.5631C9.40813 34.6772 9.56438 34.7894 9.72188 34.8991L9.8925 35.02L9.93938 35.0534C10.0888 35.1562 10.2416 35.2553 10.3944 35.3544L10.5913 35.4856C10.8253 35.6338 11.0631 35.7803 11.3031 35.9219L11.5 36.0328C11.6766 36.1347 11.8544 36.2347 12.0347 36.3325C12.1322 36.385 12.2322 36.4347 12.3303 36.485C12.4575 36.5516 12.5838 36.6191 12.7131 36.6838L12.8016 36.7266L12.9581 36.8022C13.1584 36.8978 13.3603 36.9919 13.5644 37.0825L13.6925 37.14C13.9263 37.2422 14.1619 37.3403 14.3997 37.4341L14.5719 37.5019C14.7919 37.5866 15.015 37.6703 15.2391 37.7491L15.3228 37.7781C15.5684 37.8641 15.8169 37.9438 16.0669 38.0216L16.2466 38.0753C16.5009 38.1519 16.7522 38.2434 17.0147 38.2919C33.6831 41.3316 38.525 28.2753 38.525 28.2753C34.4581 33.5734 27.24 34.9709 20.4009 33.415ZM14.3966 19.9053C14.77 20.4406 15.1841 21.0775 15.6794 21.5075C15.8591 21.7053 16.0469 21.8984 16.2388 22.0881L16.3863 22.2334C16.5725 22.4141 16.7619 22.5916 16.9575 22.7641L16.9806 22.7841L16.9863 22.7897C17.2028 22.9797 17.4263 23.1619 17.6534 23.3419L17.8047 23.46C18.0325 23.6347 18.2647 23.8059 18.5025 23.9697L18.5228 23.985C18.6278 24.0575 18.735 24.125 18.8416 24.195L18.9922 24.2947C19.1622 24.4037 19.3347 24.51 19.5097 24.6119L19.5828 24.6544C19.7338 24.7412 19.8869 24.8269 20.04 24.91L20.2028 24.9947C20.3088 25.05 20.4147 25.1066 20.5228 25.1603L20.5713 25.1822C20.7906 25.2903 21.0122 25.3947 21.2388 25.4931L21.3863 25.5538C21.5669 25.6306 21.7497 25.7056 21.9331 25.7756L22.1675 25.8616C22.3341 25.9234 22.5013 25.9797 22.67 26.0363L22.8972 26.1091C23.1369 26.1834 23.3738 26.2775 23.6234 26.3191C36.4931 28.4513 39.4641 18.5422 39.4641 18.5422C36.7859 22.3994 31.5991 24.24 26.0644 22.8031C25.8184 22.7384 25.5763 22.6684 25.3353 22.5925L25.1166 22.5216C24.9453 22.4663 24.7753 22.4075 24.6066 22.3459L24.3766 22.2603C24.1919 22.1891 24.0091 22.1159 23.8278 22.0391L23.68 21.9766C23.4528 21.8778 23.2291 21.7734 23.0088 21.6644C22.895 21.6091 22.7834 21.5506 22.6719 21.4931L22.4775 21.3931C22.3344 21.3156 22.1919 21.235 22.0516 21.1525L21.9497 21.0947C21.7753 20.9931 21.6041 20.8881 21.4341 20.7797L21.2784 20.6759C21.1666 20.6034 21.0544 20.5294 20.9444 20.455C20.7072 20.2913 20.4766 20.12 20.2488 19.9463L20.0922 19.8228C17.6697 17.9103 15.7494 15.2959 14.8363 12.3319C13.8794 9.25812 14.0859 5.8075 15.7434 3.00687L13.7069 5.88187C11.2141 9.46875 11.3497 14.2706 13.2941 18.0641C13.62 18.7009 13.9866 19.3181 14.3966 19.9053ZM27.9613 15.4681C28.0672 15.5072 28.1731 15.5422 28.2806 15.5788L28.4216 15.6234C28.5728 15.6709 28.7234 15.7262 28.88 15.7559C35.9859 17.1291 37.9138 12.1094 38.4266 11.3703C36.7381 13.8012 33.9009 14.3847 30.4194 13.5397C30.1444 13.4731 29.8419 13.3737 29.5769 13.2797C29.2369 13.1584 28.9019 13.0203 28.5766 12.8644C27.9581 12.5672 27.3691 12.2069 26.8228 11.7944C23.7075 9.43031 21.7722 4.92125 23.805 1.24906L22.705 2.765C21.2356 4.9275 21.0913 7.61313 22.1109 10.0013C23.1863 12.5363 25.3897 14.5247 27.9613 15.4681Z" fill="white"/>
</svg>
