<svg xmlns="http://www.w3.org/2000/svg" viewBox="0 0 409.31 83.74"><defs><style>.cls-1{fill:#fff;}</style></defs><title>logo_white</title><g id="Layer_2" data-name="Layer 2"><g id="Layer_1-2" data-name="Layer 1"><path class="cls-1" d="M0,49.11V36.24L40.1,14.8V27.66L12.4,42.3v.75L40.1,57.69V70.56Z"/><path class="cls-1" d="M96.82,74.41l-4.1-15.67H74.91l-4,15.67H56.72L74.35,9.32H94.11l17.63,65.09ZM84.23,22.85h-.75L77.14,47.46H90.57Z"/><path class="cls-1" d="M115.35,9.32h21c17.44,0,25.83,11.66,25.83,32.55s-8.39,32.54-25.83,32.54h-21ZM135.4,63.41c8.29,0,12-5.5,12-15.67V35.9c0-10.07-3.73-15.57-12-15.57h-6.25V63.41Z"/><path class="cls-1" d="M198.13,74.41,194,58.74H176.21l-4,15.67H158L175.65,9.32h19.77L213,74.41ZM185.54,22.85h-.75l-6.34,24.61h13.43Z"/><path class="cls-1" d="M252.29,45.41,253,27.23h-.84L240.07,60.7,228,27.23h-.84l.75,18.18v29H215.74V9.32h16.5l8,21.92H241l8-21.92h15.39V74.41H252.29Z"/><path class="cls-1" d="M268.11,65.46l8.11-8.95a22.07,22.07,0,0,0,16.42,7.64c6.62,0,10.25-3.07,10.25-8.67,0-4.57-2.42-6.71-8.76-7.74l-6.81-1.12c-11.65-2-16.6-9.14-16.6-18.65,0-12.49,8.68-19.76,23.41-19.76,10,0,17.62,3.35,22.19,8.67l-7.93,8.86a18.58,18.58,0,0,0-14.17-6.16c-6.25,0-9.42,2.61-9.42,7.74,0,4.48,2.61,6.44,9,7.55l6.8,1.22c10.45,1.86,16.51,8,16.51,18.27,0,12.22-8.58,21.17-24.9,21.17C281.35,75.53,273.05,71.61,268.11,65.46Z"/><path class="cls-1" d="M320.06,83.74,350,0h12.4L332.47,83.74Z"/><path class="cls-1" d="M369.22,57.69l27.69-14.64V42.3L369.22,27.66V14.8l40.09,21.44V49.11L369.22,70.56Z"/></g></g></svg>