<svg width="39" height="39" viewBox="0 0 39 39" fill="none" xmlns="http://www.w3.org/2000/svg">
<path d="M1.24367 4.1795L17.4937 17.2737C18.0397 17.7125 18.746 17.9205 19.4567 17.9205C20.1673 17.9205 20.8737 17.7125 21.4197 17.2737L37.6697 4.1795C38.7292 3.32475 39.7302 0 37.7867 0H1.12884C-0.814663 0 0.186337 3.32475 1.24367 4.1795V4.1795ZM38.1615 11.3392L21.4197 24.427C20.683 25.0055 20.1673 25.0738 19.4567 25.0738C18.746 25.0738 18.2303 25.0055 17.4937 24.427C16.757 23.8485 2.03884 12.2752 0.836337 11.336C-0.00866307 10.673 3.50146e-06 11.4497 3.50146e-06 12.0477V35.75C3.50146e-06 37.115 1.22634 39 2.16667 39H36.8333C37.7737 39 39 37.115 39 35.75V12.051C39 11.453 39.0087 10.6762 38.1615 11.3392V11.3392Z" fill="white"/>
</svg>
