<svg width="27" height="21" viewBox="0 0 27 21" fill="none" xmlns="http://www.w3.org/2000/svg">
<path d="M17.6409 5.60106L4.46531 15.7114L3.60375 17.9666L6.48292 17.3279L19.7023 7.18395L17.6409 5.60106ZM19.8889 3.87609L21.9502 5.45787L23.8716 3.98349C24.0082 3.8786 24.085 3.73636 24.085 3.58804C24.085 3.43973 24.0082 3.29749 23.8716 3.1926L22.8395 2.40171C22.7028 2.29685 22.5174 2.23795 22.3241 2.23795C22.1309 2.23795 21.9455 2.29685 21.8088 2.40171L19.8903 3.87609H19.8889ZM24.9023 0.819935L25.9329 1.61082C26.6162 2.13527 27 2.84648 27 3.58804C27 4.32961 26.6162 5.04081 25.9329 5.56526L8.01361 19.3169L1.86168 20.6816C1.61092 20.7371 1.34535 20.7399 1.09269 20.6897C0.840035 20.6396 0.609556 20.5383 0.425318 20.3965C0.24108 20.2546 0.109837 20.0775 0.0452911 19.8834C-0.0192549 19.6894 -0.0147372 19.4856 0.0583725 19.2934L1.87771 14.5335L19.7504 0.818816C20.4338 0.294529 21.3607 0 22.3271 0C23.2934 0 24.2203 0.294529 24.9037 0.818816L24.9023 0.819935Z" fill="black"/>
</svg>
