<svg width="74" height="74" viewBox="0 0 74 74" fill="none" xmlns="http://www.w3.org/2000/svg">
<path d="M72.5414 70.9839L71.029 69.5172C69.5958 67.614 67.7522 65.9421 65.8172 64.554C64.2742 63.4463 60.8101 61.9501 60.166 60.1551L60.0475 60.0423C61.1419 59.9186 62.4196 59.5232 63.4296 59.252C65.1258 58.7976 66.526 58.915 68.2777 58.4629C69.0674 58.2374 69.9537 58.0114 70.5318 57.7859V57.335C69.9537 56.4267 69.1287 55.2242 68.1632 54.4021C65.6374 52.2515 62.9364 50.1026 60.0978 48.3104C58.5236 47.3172 56.6054 46.6714 54.9375 45.8291C54.3761 45.5453 53.4043 45.3978 53.0331 44.9261C52.1561 43.8091 51.6873 42.3927 51.0109 41.0914C49.595 38.3644 48.2075 35.3864 46.953 32.5172C46.0974 30.5608 45.5406 28.6322 44.4734 26.877C39.3512 18.4555 33.8388 13.3732 25.2987 8.37702C23.4805 7.31443 21.2929 6.89529 18.9804 6.34607C17.7409 6.27149 16.4997 6.19576 15.259 6.12003C14.5011 5.80437 13.7131 4.87763 13.0032 4.42785C10.1727 2.64029 2.91549 -1.2476 0.819782 3.86418C-0.503546 7.0907 2.79697 10.238 3.9775 11.8735C4.80711 13.0194 5.86797 14.3057 6.45939 15.5955C6.84963 16.4436 6.91611 17.294 7.24969 18.1907C8.06947 20.4003 8.7823 22.8041 9.84374 24.8455C10.3797 25.8792 10.9705 26.9672 11.6486 27.8911C12.0637 28.4582 12.776 28.7079 12.8887 29.5832C12.1927 30.5579 12.1528 32.0715 11.7614 33.3064C9.99809 38.865 10.6641 45.7748 13.2281 49.8887C14.0143 51.1525 15.8678 53.861 18.4168 52.8215C20.646 51.9139 20.2818 49.0996 20.9195 46.6171C21.0634 46.0552 20.8125 45.6412 21.3906 45.2637V45.3764C21.9688 46.7298 22.6105 48.0838 23.288 49.4372C24.7912 51.8578 27.2707 54.3871 29.5306 56.0937C30.7025 56.9788 31.7969 58.5086 32.9531 59.0266V58.9682H33.0809C32.7878 58.39 32.3282 58.2935 31.9535 57.9252C31.0708 57.0603 30.0885 55.97 29.3595 54.9785C27.3037 52.1879 25.4872 49.1267 23.832 45.9471C23.0412 44.4289 22.3538 42.7506 21.6878 41.2059C21.4317 40.6104 21.4346 39.7074 20.8992 39.3992C20.1691 40.5312 19.0943 41.4458 18.5295 42.783C17.627 44.9197 17.5108 47.5259 17.1761 50.2275C16.9778 50.298 17.0662 50.2495 16.95 50.3396C15.3787 49.961 14.8272 48.344 14.2427 46.9559C12.7656 43.4467 12.4915 37.7966 13.7912 33.7579C14.1276 32.712 15.6475 29.4214 15.0318 28.4553C14.7381 27.4927 13.7692 26.9348 13.2275 26.1989C12.5563 25.2889 11.8868 24.091 11.422 23.04C10.2132 20.3049 9.64949 17.2333 8.37645 14.4676C7.76769 13.1454 6.7392 11.807 5.89456 10.6323C4.95973 9.32978 3.91217 8.37067 3.18663 6.79643C2.92936 6.23681 2.57902 5.34071 2.96116 4.76548C3.08256 4.37756 3.25427 4.21568 3.63814 4.08907C4.29316 3.58437 6.11425 4.25673 6.79644 4.53943C8.60539 5.29099 10.1155 5.98474 11.6481 6.99993C12.3829 7.48787 13.1275 8.09259 14.0166 8.67071H15.0318C16.6199 8.67071 18.3988 8.80484 19.8829 9.25577C22.5047 10.053 24.8548 11.3035 26.9892 12.6511C33.4908 16.7569 38.8066 22.6064 42.4436 29.5774C43.0287 30.7002 43.2819 31.7737 43.797 32.9641C44.8365 35.3651 46.1465 37.8365 47.1808 40.1843C48.2133 42.5274 49.2193 44.8914 50.6784 46.8408C51.4456 47.8653 54.4079 48.4156 55.7544 48.9851C56.6985 49.3834 58.2449 49.7997 59.1387 50.3379C60.8459 51.3681 62.4999 52.5949 64.1025 53.7228C64.9026 54.2859 67.3631 55.5231 67.4863 56.5429C63.5186 56.4342 60.4886 56.8042 57.8981 57.8963C57.1621 58.2068 55.9874 58.2154 55.8671 59.1376C56.2718 59.5613 56.3348 60.1949 56.6562 60.7164C57.2743 61.7166 58.3189 63.059 59.2509 63.762C60.2695 64.5309 61.3183 65.3524 62.4098 66.0178C64.3517 67.2012 66.5185 67.8776 68.3881 69.0634C69.49 69.7629 70.6764 70.6434 71.7499 71.432C72.2818 71.8222 72.265 72.4286 73.4213 72.6732V72.561C72.8438 72.1014 72.8744 71.4666 72.5414 70.9839ZM17.0628 13.5657C16.2355 13.5501 15.6094 13.6565 15.0313 13.7906V13.875H15.1457C15.5406 14.4531 16.2372 15.222 16.7246 15.9204L17.8531 18.2953L17.9647 18.1872C18.6636 17.6941 18.9839 16.909 18.9798 15.7065C18.7006 15.4122 18.6584 15.044 18.4168 14.6925C18.0942 14.2248 17.4692 13.9594 17.0628 13.5657Z" fill="white"/>
</svg>
