<svg width="72" height="72" viewBox="0 0 72 72" fill="none" xmlns="http://www.w3.org/2000/svg">
<g clip-path="url(#clip0)">
<path d="M3.71759 26.9773L65.2889 19.699L67.8545 41.4029L37.0688 45.0421L37.4967 48.6618L23.812 50.2795L23.3841 46.6597L6.28318 48.6812L3.71759 26.9773ZM9.27705 44.6619L16.1194 43.8531L14.8363 32.9987L18.2575 32.5943L19.5406 43.4487L22.9618 43.0443L21.2514 28.575L7.56666 30.1927L9.27705 44.6619ZM24.6676 28.1712L26.8053 46.2553L33.6477 45.4465L33.2204 41.8316L40.0627 41.0228L38.3523 26.5535L24.6676 28.1712ZM31.9379 30.9822L35.359 30.5778L36.2136 37.8074L32.7925 38.2118L31.9379 30.9822ZM41.7735 26.1491L43.4839 40.6184L50.3263 39.8096L49.0432 28.9551L52.4643 28.5507L53.7474 39.4052L57.1686 39.0007L55.8855 28.1463L59.3067 27.7419L60.5898 38.5963L64.011 38.1919L62.3006 23.7227L41.7735 26.1491Z" fill="white"/>
</g>
<defs>
<clipPath id="clip0">
<rect width="64" height="64" fill="white" transform="translate(0.464722 7.97778) rotate(-6.74157)"/>
</clipPath>
</defs>
</svg>
