<svg width="66" height="58" viewBox="0 0 66 58" fill="none" xmlns="http://www.w3.org/2000/svg">
<path d="M3.27758 10.0593C1.6021 11.5785 1.96015 13.7176 3.29341 14.9233C3.34682 14.9698 8.70163 19.6027 16.2324 26.4229C16.324 26.5068 16.4331 26.5734 16.5533 26.6188C16.6735 26.6642 16.8024 26.6876 16.9327 26.6876C17.0629 26.6876 17.1919 26.6642 17.3121 26.6188C17.4323 26.5734 17.5413 26.5068 17.6329 26.4229C17.8183 26.255 17.9225 26.0272 17.9225 25.7896C17.9225 25.5521 17.8183 25.3243 17.6329 25.1563C16.4975 24.128 15.4174 23.1552 14.3927 22.2344L17.536 19.3877C17.7162 19.2187 17.8158 18.9925 17.8136 18.7576C17.8113 18.5228 17.7073 18.2981 17.5239 18.132C17.3406 17.9659 17.0925 17.8717 16.8332 17.8697C16.5738 17.8676 16.324 17.9579 16.1374 18.1211L12.9863 20.975C11.4647 19.6143 9.93822 18.2581 8.40689 16.9065L15.5579 10.4302C15.738 10.2612 15.8377 10.0349 15.8355 9.80008C15.8332 9.56522 15.7292 9.34055 15.5458 9.17447C15.3624 9.00839 15.1144 8.91419 14.855 8.91214C14.5957 8.9101 14.3459 9.00039 14.1593 9.16356L6.98659 15.6596C5.53068 14.3822 4.69195 13.6567 4.6781 13.6441C4.26072 13.2661 3.71277 12.202 4.6781 11.3277L14.5688 2.37017C14.9506 2.01903 15.9673 1.32213 17.083 2.32717C17.1325 2.37733 22.1272 7.51537 29.751 14.4198C29.9375 14.583 30.1874 14.6733 30.4467 14.6713C30.706 14.6692 30.9541 14.575 31.1375 14.4089C31.3209 14.2429 31.4249 14.0182 31.4271 13.7833C31.4294 13.5485 31.3297 13.3222 31.1495 13.1532C23.5733 6.29357 18.6161 1.19494 18.5251 1.10178C16.6814 -0.564323 14.458 -0.0644924 13.1702 1.10178L3.27758 10.0593Z" fill="white"/>
<path d="M45.2299 43.2023C45.0444 43.0343 44.7929 42.94 44.5306 42.94C44.2683 42.94 44.0168 43.0343 43.8313 43.2023L40.6841 46.0508C39.6784 45.1277 38.6696 44.2075 37.6576 43.2901C37.471 43.1269 37.2212 43.0366 36.9619 43.0386C36.7025 43.0407 36.4545 43.1349 36.2711 43.301C36.0877 43.467 35.9837 43.6917 35.9814 43.9266C35.9792 44.1614 36.0789 44.3877 36.259 44.5567C40.4972 48.3854 44.6703 52.2728 48.7767 56.2176C49.4552 56.8338 50.3849 57.1724 51.3937 57.1724C52.4323 57.1724 53.4827 56.8052 54.1335 56.214L64.0202 47.1543C65.2644 46.0275 65.3356 44.1159 64.1745 43.0607L50.9091 31.0487C50.7226 30.8855 50.4727 30.7952 50.2134 30.7973C49.9541 30.7993 49.706 30.8935 49.5226 31.0596C49.3392 31.2257 49.2352 31.4503 49.233 31.6852C49.2307 31.9201 49.3304 32.1463 49.5106 32.3153L62.7759 44.3273C63.1716 44.6856 63.0964 45.4596 62.6197 45.8913L52.731 54.951C52.5035 55.1588 51.9872 55.3809 51.3937 55.3809C51.0535 55.3809 50.5669 55.3057 50.199 54.9707C50.1792 54.951 49.3503 54.1502 47.9122 52.7868L55.1206 46.2586C55.3007 46.0896 55.4004 45.8634 55.3982 45.6285C55.3959 45.3936 55.2919 45.169 55.1085 45.0029C54.9251 44.8368 54.6771 44.7426 54.4177 44.7406C54.1584 44.7385 53.9086 44.8288 53.722 44.992L46.5434 51.4934C45.0607 50.0977 43.5705 48.7087 42.0728 47.3263L45.2299 44.4671C45.4147 44.2992 45.5185 44.0718 45.5185 43.8347C45.5185 43.5976 45.4147 43.3702 45.2299 43.2023Z" fill="white"/>
<path d="M0.2806 56.9663C0.406819 57.083 0.565874 57.1663 0.740554 57.207C0.915235 57.2477 1.09889 57.2444 1.27165 57.1974L21.053 51.8605C21.212 51.8184 21.3563 51.7401 21.4724 51.633L55.2787 20.8101C55.3262 20.7672 55.3499 20.7116 55.3855 20.6632L62.6176 14.1135C62.9051 13.855 63.1333 13.5476 63.289 13.2089C63.4447 12.8703 63.5249 12.507 63.5249 12.1401C63.5249 11.7733 63.4447 11.41 63.289 11.0714C63.1333 10.7327 62.9051 10.4253 62.6176 10.1668L52.2621 0.790055C51.0989 -0.263352 49.0674 -0.263352 47.9042 0.790055L40.508 7.4885C40.4605 7.5315 40.4348 7.58703 40.3992 7.6372L6.5414 38.3024C6.43073 38.4021 6.34798 38.5244 6.30007 38.6589L0.049158 56.0634C-0.00707728 56.2187 -0.0152361 56.385 0.0255685 56.5442C0.066373 56.7034 0.15458 56.8494 0.2806 56.9663ZM41.2636 9.3875L43.3189 11.2489L12.6123 39.1337L9.19606 38.4314L41.2636 9.3875ZM13.8467 40.5508L44.7194 12.5173L49.5382 16.8814L18.3865 44.7321H13.8467V40.5508ZM53.1799 20.1813L21.0471 49.4796L19.9057 45.893L50.9367 18.148L53.1799 20.1813ZM7.8984 40.0008L11.8685 40.8177V45.6279C11.8685 45.8655 11.9727 46.0933 12.1582 46.2613C12.3437 46.4293 12.5953 46.5236 12.8576 46.5236H18.0482L19.3024 50.465L2.51194 54.9957L7.8984 40.0008ZM49.3047 2.05665C49.5147 1.87435 49.7943 1.77256 50.0851 1.77256C50.376 1.77256 50.6556 1.87435 50.8655 2.05665L61.221 11.4352C61.3243 11.5276 61.4063 11.6378 61.4622 11.7592C61.518 11.8806 61.5467 12.0108 61.5465 12.1423C61.5464 12.2738 61.5173 12.404 61.4611 12.5253C61.4049 12.6465 61.3226 12.7565 61.2191 12.8487L54.5508 18.8897L42.6365 8.0994L49.3047 2.05665Z" fill="white"/>
</svg>
