<svg width="40" height="40" viewBox="0 0 40 40" fill="none" xmlns="http://www.w3.org/2000/svg">
<g clip-path="url(#clip0)">
<path fill-rule="evenodd" clip-rule="evenodd" d="M14.9996 15.4976C14.0513 15.5374 13.1886 15.8704 12.299 16.292C12.7823 17.9232 13.2493 19.5115 13.7319 21.0954C13.7564 21.1765 13.9203 21.2818 14.0026 21.2691C15.0604 21.1051 16.0752 20.8164 16.8889 20.071C17.7309 19.3001 17.9351 18.1491 17.4564 17.0107C17.021 15.974 16.175 15.4484 14.9996 15.4976ZM34.9846 15.4029L30.6751 0.858429C30.5263 0.356019 30.5184 0.309082 30.0306 0.453612L0.90493 9.08343C0.430565 9.22399 0.324209 9.30504 0.465969 9.78348L9.09579 38.9091C9.23911 39.3928 9.29973 39.3757 9.76882 39.2367C19.4899 36.3566 29.2392 33.4653 38.9635 30.596C39.3407 30.4848 39.4121 30.3544 39.3016 29.9851C37.8485 25.1285 36.4246 20.2628 34.9846 15.4029ZM18.4651 21.8203C17.2739 22.6901 15.8927 23.1283 14.4215 23.4429L16.0244 28.8527L13.3877 29.634L13.2881 29.2979C11.9461 24.7688 10.5834 20.2463 9.22885 15.7212C9.11598 15.3455 9.12183 15.1462 9.53283 14.9774C11.4695 14.1815 13.3874 13.3634 15.5113 13.2407C17.7943 13.1085 19.4433 14.1551 20.1145 16.0774C20.9458 18.4578 20.3747 20.4261 18.4651 21.8203ZM29.992 21.7305C30.3002 23.1439 29.7894 24.2832 28.6402 25.1014C27.1024 26.1964 25.3594 26.5645 23.4893 26.3953C23.183 26.3674 23.0891 26.245 23.0967 25.939C23.1104 25.3806 23.0757 24.8209 23.0626 24.3101C23.8314 24.3081 24.5808 24.3679 25.3139 24.2839C25.8316 24.2246 26.3485 24.0162 26.8255 23.7896C27.2531 23.5863 27.4855 23.1863 27.4165 22.6831C27.3464 22.1717 27.0734 21.7916 26.5643 21.6593C26.1598 21.5544 25.7378 21.5186 25.3238 21.4527C24.658 21.3467 23.9717 21.3123 23.3304 21.1229C20.8069 20.3773 20.7392 17.6189 21.8668 16.2385C22.4701 15.5001 23.2388 15.0242 24.1248 14.7275C25.1669 14.3786 26.2346 14.2598 27.374 14.4487L27.401 16.4716C26.9402 16.4475 26.4951 16.3708 26.0626 16.4161C25.5494 16.4696 25.0243 16.5701 24.5453 16.7556C23.903 17.0046 23.6522 17.573 23.8191 18.1363C23.918 18.4699 24.1282 18.7148 24.4544 18.7942C24.9226 18.9081 25.4031 18.9741 25.8807 19.044C26.3974 19.1196 26.9252 19.1389 27.4337 19.2493C28.7907 19.5434 29.6916 20.3533 29.992 21.7305Z" fill="white"/>
</g>
<defs>
<clipPath id="clip0">
<rect width="32" height="32" fill="white" transform="translate(0 9.09082) rotate(-16.5044)"/>
</clipPath>
</defs>
</svg>
