<svg width="72" height="72" viewBox="0 0 72 72" fill="none" xmlns="http://www.w3.org/2000/svg">
<g clip-path="url(#clip0)">
<path d="M34.3167 20.6113C17.5467 22.4457 4.70448 30.8228 5.63413 39.3216C6.56378 47.8204 20.9133 53.2231 37.6833 51.3887C54.4533 49.5543 67.2955 41.1772 66.3659 32.6784C65.4362 24.1796 51.0867 18.7769 34.3167 20.6113ZM28.4266 39.8624C27.7761 40.6196 27.002 40.9875 26.1473 41.3727C25.2927 41.7584 24.1584 41.8221 22.7871 41.9722L19.6791 42.3121L19.3614 47.3767L15.7326 47.7736L17.1222 30.5202L24.1006 29.7569C26.2001 29.5272 27.7975 29.9636 28.8808 30.9602C29.9641 31.9569 30.4244 33.4894 30.2567 35.5061C30.1872 36.3371 30.003 37.1227 29.7 37.8379C29.3965 38.5537 28.9729 39.2373 28.4266 39.8624ZM39.1803 40.179L39.8282 32.8551C39.8995 31.9983 39.7717 31.3815 39.4555 31.1077C39.1388 30.8336 38.5141 30.6952 37.5931 30.7959L34.7152 31.1107L33.8938 40.7572L30.2933 41.1511L31.7373 24.3947L35.3378 24.0009L34.9663 28.5683L38.1736 28.2175C40.1921 27.9967 41.6281 28.2496 42.471 28.8696C43.3139 29.4896 43.6491 30.4287 43.5153 32.0388L42.8375 39.7789L39.1803 40.179ZM58.5827 32.4343C58.5136 33.2652 58.3276 34.038 58.025 34.7527C57.722 35.4684 57.2974 36.139 56.7506 36.7642C56.1001 37.5214 55.3255 37.8893 54.4713 38.2745C53.6172 38.6601 52.4819 38.7239 51.1106 38.874L48.0026 39.2139L47.6855 44.2784L44.0566 44.6754L45.4458 27.422L52.4246 26.6586C54.5241 26.429 56.1215 26.8654 57.2043 27.862C58.2866 28.8588 58.7504 30.4181 58.5827 32.4343ZM51.3212 29.2943L48.8355 29.5661L48.2413 36.6729L50.4491 36.4314C51.9114 36.2714 52.9861 36.008 53.6415 35.378C54.298 34.7489 54.6871 33.8412 54.7971 32.5249C54.9022 31.2605 54.6872 30.3067 54.1723 29.848C53.6569 29.3893 52.7 29.1434 51.3212 29.2943ZM22.9976 32.3925L20.5115 32.6644L19.9172 39.7712L22.1245 39.5297C23.5873 39.3697 24.6615 39.1063 25.3174 38.4763C25.9734 37.8472 26.363 36.9395 26.4725 35.6233C26.5777 34.3588 26.3627 33.405 25.8478 32.9463C25.3328 32.4876 24.3764 32.2416 22.9976 32.3925Z" fill="white"/>
</g>
<defs>
<clipPath id="clip0">
<rect width="64" height="64" fill="white" transform="translate(0.710144 7.66934) rotate(-6.24254)"/>
</clipPath>
</defs>
</svg>
