<svg xmlns="http://www.w3.org/2000/svg" viewBox="0 0 2332.75 3559.67"><defs><style>.cls-1{fill:#f9f9fa}.cls-2{fill:#565858}.cls-3{fill:#222324}.cls-4{fill:#020202}.cls-5{fill:#5c5f60}.cls-6{fill:#e1e8e9}.cls-7{fill:#fefefe}.cls-8{fill:#e5e9ea}.cls-11{fill:#fcfdfd}.cls-12{fill:#c7c9c9}.cls-13{fill:#111}</style></defs><g id="Layer_2" data-name="Layer 2"><g id="Layer_1-2" data-name="Layer 1"><path class="cls-1" d="M289.64 360.34q-29-15.49-58-31c-6.46-3.43-13-6.71-19.26-9.94-1.08-5.55 3.37-6.92 6.2-9.12C306.62 242 399.09 180.44 496.91 127c25.11-13.73 49.85-28.14 75-41.88 63.64-34.83 131.41-57.46 202.94-69.58A1090.2 1090.2 0 01941.87.72c63.31-.9 126.66-1 190 .05 76.63 1.33 153.04 7.23 228.7 20.29 71.73 12.41 141.52 31.94 208.09 61.63 51.08 22.79 103.1 43 155.73 61.84 27.57 9.86 54.58 21.14 81.2 33.34 86.5 39.64 161.67 95.15 227.35 163.61 73.73 76.85 136.73 161.79 187.12 255.68 49.54 92.32 81.17 190.84 97.94 294.22a1144.73 1144.73 0 0112.78 251c-7.67 130.61-33.47 257.2-79.94 379.59-20.55 54.13-38.73 109.11-56.51 164.21a102.87 102.87 0 00-5 29.33c-1.08 44.64-3.13 89.25-3.18 133.93 0 43.35 1.55 86.63 4 129.88a480.55 480.55 0 007.7 63.45 143.25 143.25 0 009.51 30.43c25.59 58.64 38.21 120.28 42.83 183.87 7.22 99.46-6.11 196.78-30.38 292.9-26 103-64.52 201.46-110.5 297-66 137.22-143.17 267.72-235.86 388.76-61.77 80.66-130.12 155.18-206.91 221.88a738.39 738.39 0 01-148.87 100c-6.74 3.45-10.82 2.09-16-2-38.64-30.63-77.75-60.69-116.08-91.7-106.29-86-209-176-306.64-271.75-29.52-28.95-57.59-59.24-85-90.25-59.11-67-101-143.44-127.4-228.59a1168.44 1168.44 0 01-41.45-189c-5.47-40.29-10-80.66-11.91-121.29-.43-8.75-.94-9.16-8.66-10.78-47.55-10-95.06-20.07-142.66-29.73-21.52-4.36-43.66-6.21-64.77-11.93-136.88-37.14-224.64-124.75-263.29-260.87-12.36-43.5-21.16-88-32.14-131.91q-28.35-113.31-57.52-226.42c-4-15.43-9.28-30.56-14.59-45.61a405.65 405.65 0 01-23.22-139.22c.34-40.91 6.34-81 22.7-118.92a41.75 41.75 0 003.78-17.36 622.32 622.32 0 017.44-101.56 12.32 12.32 0 00.1-4c-.54-3.1-2.9-4.6-5.65-4-3.84.9-7.47 2.72-11.24 4-51.65 16.9-97.12 6.07-136.57-30.82-16.27-15.21-28-33.73-37.57-53.74-13.87-29.08-22.11-59.88-27.66-91.46a629 629 0 01-9.35-93.39c-.25-10-.81-20-7.57-28.37-3.61-4.45-3.44-9.9-3.92-15.2-3.23-35.18 3-69 14.75-102C38 986.91 76.1 934.7 124.93 889.77a366.18 366.18 0 01138.78-80.57c9.88-3.13 13.76-8.26 16.11-17.36 13-50.28 25.6-100.61 33.59-152 13.13-84.46 39.08-164.35 86.31-236.41 1.49-2.27 2.79-4.5 2.25-7.35a57.83 57.83 0 0111.69-39.69c1.9.51 3.77 1.16 5.7 1.51 18.14 3.34 36.29 6.54 54.14-1.41 6.14-.76 11.16-4.13 16.34-7.07 8.29-4.71 17.1-4.9 29.1-4.18-5.75 6.23-9.64 10.55-13.63 14.76q-93.43 98.71-124.89 230.94c-6.93 29.2-11.39 58.8-16.71 88.28-9.23 51.14-22.84 101.26-36.44 151.37-1.75 6.41-2.46 13.82-6.27 18.76-4.46 5.78-13.2 5.22-20.14 7.07-52.45 14-99 38.71-138.78 75.8-36.44 34-67.42 71.93-86.61 118.46-10.73 26-18.06 52.89-18.81 81.28-.2 7.52.23 14.64 5.13 20.8s5.59 13.17 5.88 20.68c1.07 27.29 2 54.6 5.78 81.73 4 29.1 9.57 57.79 20 85.36 5.68 15 12.85 29.24 22.67 42 9.94 13 22 23.31 37.4 29.06 23.43 8.75 45.72 5.19 67.15-7 9.82-5.61 18.31-13 27.24-20 2 1.57 3.85 2.53 5 4 13.8 17.13 27.47 34.39 43.34 49.69 4.63 4.46 3.95 9 3.11 14.55-6.4 42.2-11.55 84.53-10.21 127.33.27 8.37-1.84 15.61-5.4 22.92-9.41 19.31-15.07 39.8-18.17 61-7.76 53.14-1.37 105 15 155.77 10.61 33 20.15 66.21 29 99.67 26.86 101.69 50.28 204.24 76.24 306.14 33.09 129.88 116.1 209.22 248.43 235.36 18.27 3.61 36.78 6 55 9.71 36.53 7.37 72.93 15.39 109.45 22.85 22.11 4.51 44.34 8.47 66.27 12.63 3 6.77 2.34 13.55 2.63 20.13 2.26 50.62 6.42 101.05 13.5 151.25 8.75 62.1 21.48 123.26 40.49 183.07 22.87 71.95 57.4 137.29 107.05 194.64q56.35 65.09 118.47 124.54c111.16 106.75 229 205.76 350.09 301 21.24 16.7 13.42 16.86 39.21 2 33.59-19.34 63.91-43.39 93.33-68.51 68.19-58.21 128.63-123.81 184.07-194.1 96.55-122.4 176.15-255.31 243.71-395.55 43.71-90.73 80.45-184.13 105.8-281.78 24.43-94.09 38-189.32 30.37-286.8-4.13-52.77-14.11-104.31-35.12-153.09-11.49-26.68-17.57-54.43-20.73-83-5.2-47.06-7.15-94.33-7.77-141.67-.74-56.68 1.37-113.29 3.15-169.92a119.33 119.33 0 015.55-33.28c19.39-60.18 39.65-120.06 61.81-179.3 47.57-127.18 71.8-259 75.82-394.49 2-68.11-3.16-135.81-14.28-203.09-14.77-89.29-40.95-175-82-255.69-55.19-108.39-127.41-204.51-215-288.89a658.92 658.92 0 00-173.37-120.17c-25.8-12.37-52.21-23.36-79.07-33.26-54.29-20-108.57-39.95-161.4-63.78-78.86-35.56-161.94-56.42-247.58-67.33-52.92-6.73-106.16-9.86-159.44-11.71-59.29-2-118.63-1.65-177.95-1a1381.21 1381.21 0 00-161.37 11.34c-69.39 9-135.33 28.61-196.92 61.92-89.62 48.48-178.25 98.68-262 157-14.37 10-30 17.05-46.59 22.3-5.46 1.72-11.73 1.78-17.18 6.81 10.78 1.91 20.4 1.74 29.95-1.49a50.12 50.12 0 017.63-1.92c3.85-.66 5.93 2.22 4.45 6.34-.64 1.82-2 3.36-3.1 5-10.24 7.87-15 19.4-19.47 30.77-2.59 6.58-6.48 7.16-12.07 5.84z"/><path class="cls-1" d="M389.75 392.27a869.93 869.93 0 01-83.61-24.37c-2-3.59-2.51-7 .05-10.75 6.58-9.52 13-19.15 19.48-28.74 3.59-2.79 6.91-6.1 10.88-8.15 1.89-1 5.58-.36 7.44 1 2.7 1.93.93 4.42-1.09 6.34a26.33 26.33 0 00-2.39 3c1.54 1 3.09 2.94 4.6 2.92a62.86 62.86 0 0011.62-1.61c16-3.34 27.58-1.41 46.08 7.9-6.76-.32-13.41-.07-20 2.49 5 9.69 14.53 4.62 21.35 8.43a60.29 60.29 0 00-9.92 33.69c0 3.43-.93 6.41-4.49 7.85z"/><path class="cls-2" d="M389.75 392.27c3.56-1.44 4.49-4.42 4.49-7.86a60.29 60.29 0 019.92-33.69c-6.82-3.81-16.34 1.26-21.35-8.43 6.59-2.56 13.24-2.81 20-2.49 4.81 2.81 9.14 7 15.47 5.22a3 3 0 01-1.16 3.3c-2.95 1.91-3.48 4.86-3.46 8A57.83 57.83 0 00402 396.05c-4.29-.65-8.67-.93-12.25-3.78z"/><path class="cls-3" d="M325.67 328.41c-6.48 9.59-12.9 19.22-19.48 28.74-2.56 3.7-2 7.16-.05 10.75-5.73-2-12.47-1.85-16.51-7.56 5.6 1.32 9.49.74 12.09-5.83 4.49-11.37 9.23-22.9 19.47-30.77z"/><path class="cls-4" d="M325.67 328.41l-4.48-4.67c1.06-1.66 2.46-3.2 3.1-5 1.48-4.12-.6-7-4.45-6.34a50.12 50.12 0 00-7.63 1.92c-9.55 3.23-19.17 3.4-29.95 1.49 5.45-5 11.72-5.09 17.18-6.81 16.62-5.25 32.22-12.3 46.59-22.3 83.74-58.31 172.37-108.51 262-157 61.59-33.31 127.53-53 196.92-61.92a1381.21 1381.21 0 01161.4-11.34c59.32-.66 118.66-1.06 177.95 1 53.28 1.85 106.52 5 159.44 11.71 85.64 10.91 168.72 31.77 247.58 67.33 52.83 23.83 107.11 43.76 161.4 63.78 26.86 9.9 53.27 20.89 79.07 33.26a658.92 658.92 0 01173.37 120.17c87.57 84.38 159.79 180.5 215 288.89 41.07 80.66 67.25 166.4 82 255.69 11.12 67.28 16.3 135 14.28 203.09-4 135.53-28.25 267.31-75.82 394.49-22.16 59.24-42.42 119.12-61.81 179.3a119.33 119.33 0 00-5.55 33.28c-1.78 56.63-3.89 113.24-3.15 169.92.62 47.34 2.57 94.61 7.77 141.67 3.16 28.54 9.24 56.29 20.73 83 21 48.78 31 100.32 35.12 153.09 7.62 97.48-5.94 192.71-30.37 286.8-25.35 97.65-62.09 191.05-105.8 281.78-67.56 140.2-147.16 273.11-243.71 395.51-55.44 70.29-115.88 135.89-184.07 194.1-29.42 25.12-59.74 49.17-93.33 68.51-25.79 14.84-18 14.68-39.21-2-121.09-95.2-238.93-194.21-350.09-301q-62.06-59.58-118.47-124.54c-49.68-57.33-84.18-122.67-107.05-194.62-19-59.81-31.74-121-40.49-183.07-7.08-50.2-11.24-100.63-13.5-151.25-.29-6.58.42-13.36-2.63-20.13-21.93-4.16-44.16-8.12-66.27-12.63-36.52-7.46-72.92-15.48-109.45-22.85-18.26-3.68-36.77-6.1-55-9.71-132.33-26.14-215.34-105.48-248.43-235.36-26-101.9-49.38-204.45-76.24-306.14-8.84-33.46-18.38-66.7-29-99.67-16.34-50.72-22.73-102.63-15-155.77 3.1-21.2 8.76-41.69 18.17-61 3.56-7.31 5.67-14.55 5.4-22.92-1.34-42.8 3.81-85.13 10.21-127.33.84-5.53 1.52-10.09-3.11-14.55-15.87-15.3-29.54-32.56-43.34-49.69-1.19-1.48-3-2.44-5-4-8.93 7-17.42 14.37-27.24 20-21.43 12.24-43.72 15.8-67.15 7-15.39-5.75-27.46-16.11-37.4-29.06-9.82-12.8-17-27-22.67-42-10.43-27.57-16-56.26-20-85.36-3.75-27.13-4.71-54.44-5.78-81.73-.29-7.51-1-14.61-5.88-20.68s-5.33-13.28-5.13-20.8c.75-28.39 8.08-55.25 18.81-81.28 19.19-46.53 50.17-84.5 86.61-118.46 39.8-37.09 86.33-61.82 138.78-75.8 6.94-1.85 15.68-1.29 20.14-7.07 3.81-4.94 4.52-12.35 6.27-18.76 13.6-50.11 27.21-100.23 36.44-151.37 5.32-29.48 9.78-59.08 16.71-88.28Q411.83 458.55 505.31 360c4-4.21 7.88-8.53 13.63-14.76-12-.72-20.81-.53-29.1 4.18-5.18 2.94-10.2 6.31-16.33 7.07L453 357c1.53-1.53 3-3.05 4.48-4.57a15.66 15.66 0 013.6-.53c6.05 1.61 9.68-1.3 14.1-7.38-9.87.2-17.69-1.86-25.63.14-7-1-14-1.73-20.85-3.07-4.38-.86-7.38 1-10.42 3.48-6.33 1.76-10.66-2.41-15.47-5.22-18.5-9.31-30.06-11.24-46.08-7.9a62.86 62.86 0 01-11.62 1.61c-1.51 0-3.06-1.89-4.6-2.92a26.33 26.33 0 012.39-3c2-1.92 3.79-4.41 1.09-6.34-1.86-1.32-5.55-1.93-7.44-1-3.97 2.01-7.29 5.32-10.88 8.11zm1431.59 1163.73v-.11l5.32.33c-1.23 10.56-3.3 21.1-3.55 31.69-1 42.19 12.47 67.71 63.06 76.5 25.41 4.42 50.52 2 75-4.77 28.24-7.75 55.12-18.88 77.41-38.82 6.76-4.14 13.63-8.13 20.28-12.45 20.66-13.41 41-27.36 62-40.24a101.21 101.21 0 0023-18.89A486.87 486.87 0 002185.56 1295c14.5-49.61 22.36-100 16.15-151.92-4.76-39.68-17-76.75-40.65-109.22-41.63-57.11-98.92-80.82-168.46-76-28.7 2-56.46 9.3-82.95 20.68-36.65 15.72-73.34 31.46-109.65 48.06-19.92 9.14-39.11 19.92-58.4 30.38-7 3.79-13.37 8.71-19.92 13.26a18.26 18.26 0 00-8.31 15c-3.76 63.18-8.56 126.3-11.55 189.51-2.88 61.22-4.31 122.52-5.74 183.8-.69 29.94-1.62 59.94 1.31 89.85a37.36 37.36 0 00-.86 5.89c.38 32.65 2.21 65.24 5.83 97.69 3 27.2 9 53.68 20.3 78.91 10.63 23.65 19.64 48 30.11 71.76 5.09 11.55 5.7 22.41 2.74 34.74-19.07 79.38-48.21 154.9-86.14 227.05-62.2 118.31-144.37 220.16-250.47 302.12-141.79 109.53-301.24 161.17-480.85 146.84a44.3 44.3 0 00-8-.18c-4.84.51-4.29 3.9-3.45 7.28.1 8.64-.25 17.32.36 25.92 2.59 36.55 5.26 73.07 10 109.44 7.74 59.54 19.25 118.21 36.46 175.78 21.68 72.53 56.51 137.54 106.9 194.4q59.74 67.42 125.31 129c96.5 91.1 198 176.4 301.7 259.12 4.1 3.26 8.41 6.25 13.12 9.73 21.18-13.38 40.7-28.34 59.72-44 73.45-60.46 137.15-130.23 195.26-205.26 93-120 169.7-249.95 234.64-387 45.16-95.28 82.46-193.43 105.39-296.59 17.87-80.39 27.27-161.5 18.41-244-4.65-43.29-13.8-85.36-31-125.51a237.33 237.33 0 01-14.08-43.61c-10.24-47.77-14.08-96.26-15.07-144.89-2.06-101.27-2.92-202.57-4.37-303.85-.37-26-1.09-51.92-1.65-77.89 1-8.38 1.3-16.69-1.25-25.08-7.4 1.3-11.43 6-16.39 9.1-23.81 14.64-47.24 29.93-71.41 44a492.32 492.32 0 01-73.94 34.79c-26.82 10.1-54.32 12.82-82.5 10.16-18.08-1.71-35.29-6.87-50.6-17-20.38-13.49-30.94-32.34-30.73-57.1.15-17.7 4.83-34.15 12.39-50 2.84-1.96 4.99-4.23 3.99-8.02zm-1216.43-83.9c4.28 1 8 4.11 12.76 3.24 33 9.65 66 19.56 99.16 28.86 15.9 4.46 31.41 10.51 48 12.5.93 2.21 2.55 2.77 4.73 2l8.14 1.66c2.26 2.85 5.64 3.14 8.82 4 31.94 9.15 63.71 19 95.87 27.27 11.55 3 18 9.06 23.23 19.2 23.65 45.42 47.93 90.53 72 135.72 3.1 5.8 6.45 11.46 9.36 16.62 6.07 1 10-2.08 14.12-3.87 91.64-39.86 180.15-85.64 263.92-140.3 44.1-28.77 86.3-60.08 125.17-95.74 41.05-37.65 76.18-79.79 101.32-130 19.36-38.64 40.06-76.62 59.78-115.1q40.95-79.92 77.89-161.78c4.29-9.45 6.7-18.68 2.6-28.71-1.38-13.28-2-26.7-6.7-39.42 1-4.73-.73-9.21-1.14-13.81-1-11-5.92-17.69-16.49-22.26-21.36-9.23-42-20-63-30.08-106.22-50.89-212.57-101.48-321-147.53-33.67-14.31-67.49-28.2-102.55-38.94-29.09-8.9-40.42-3.9-51.72 26.12-5.66 15-8.86 30.69-11.55 46.44-6.73 39.38-12.86 78.86-20 118.17-6.75 37.41-16.61 74-31.55 109.1-16.26 38.25-40.13 70.49-73.63 95.3-50.38 37.32-107 58.88-169.15 65.79-13.86 1.54-27.79 2.41-41.69 3.58l-3.76-.16c-9.1-3.51-18.57-4-28.17-3.46l-46.66-13a54 54 0 00-6.4-4.22q-43.5-20.79-65.28-63.75c-4.13-8.14-8.93-15.94-13.43-23.89-2.31-5.47-4.58-11-6.93-16.42-8.41-19.55-17.27-38.92-25.15-58.68-10.33-25.93-17.89-52.72-21.48-80.32-15.34.25-23.53 2.27-33.34 7.39-10 5.23-16.91 12.72-18.75 24.25-.73 4.59-2 9.12-2.5 13.73-2.88 25.14-5.77 50.27-8.29 75.45-.68 6.77-2.23 12.73-6.05 18.6-7.64 11.71-16.14 22.72-24.79 33.66-42 53.13-76.17 110.73-99 174.68-8.25 23.15-16.26 46.49-18.56 71.25-1.85 1.31-2.64 2.86-1.18 5l-2 12-11.62-.19c.18-2.64.15-5.32.57-7.92 7.89-48.85 23.8-95.07 45.37-139.5a651.26 651.26 0 0180-125.7 44.63 44.63 0 0010.15-25.07c2.62-26.4 6.69-52.66 10-79 1.16-9.22 2.45-18.49 2.6-27.75.16-10.53.71-21.39-5.85-30.74-5.52-14.72-18.1-18.32-31.72-19.49-15.55-1.34-30.37 3-44.94 7.68C164.32 917.92 87 1027.63 82.63 1136.07c-1.95 48.2 2.94 95.58 13.6 142.5 5 22.1 11.62 43.67 21.36 64.19 5.16 10.85 11.16 21.17 19.62 29.89a36.65 36.65 0 0028.64 11.61c11.67-.34 22.16-4.12 31.88-10.22 10.27-6.46 18.61-15 25.74-24.76 2.66-3.65 4.48-8.4 10-8.87l.27-.09c3.71 12.33 11.19 22.61 19.5 31.87 20.31 22.63 38.53 47.13 60.62 68.17a631.8 631.8 0 00-13.06 116.24c-.06 2.65 0 5.28 3.91 5.7a943.67 943.67 0 0155.7-84.21c1.15-1.55 1.69-3.56 2.51-5.36 7.23-5.39 11.31-13.5 17.26-20 2.16 7.17 1.26 14.53 1.05 21.8-.59 19.93-1.56 39.85-2.18 59.78-.11 3.77-1.72 7.83 1 11.33.69.31 1.32.84 1.91.79a14 14 0 003.84-.79c14.32-5.4 22.31-16.48 25.92-30.66q5.89-23.14 10.14-46.68c1.44-8 4.36-13.16 12.47-16 13.76-4.83 27.29-10.39 40.66-16.22 21.84-9.55 44.76-16.52 65.84-27.84zm377-772.19c-4.44-13.67-16.87-16.37-28.23-18.74a181 181 0 00-47.56-3.73 490.7 490.7 0 00-123 23.32 502.74 502.74 0 00-126.95 61.43c-37.49 25.25-66.23 59.32-95.44 92.93-14 16.11-20.7 35-20.39 56.8.41 29.27.21 58.48 5.13 87.49 5.94 34.92 14.63 68.91 31.73 100.22 15.55 28.47 35.8 52.93 63.82 69.87 16 9.66 33.06 17 52.62 14.65 7.81 2.4 15.77 1.76 23.78 1.47 31.47-1.14 62-8.3 92.51-15 50.52-11.1 89.68-39.25 118.63-81.79 20.09-29.52 33.37-62.05 41-96.85a1364.9 1364.9 0 0023-137.82c3.61-31.75 6.65-63.68 4.42-95.7-1.29-18.52-2.27-37.3-11.84-54.09.28-2.51-.53-4.14-3.2-4.46zm-255.68-6.51c3.69-1.41 7.52-2.55 11.06-4.26 106.44-51.47 218.88-74 336.84-70.33a108.38 108.38 0 0138.63 8.09q220.69 90.4 441.68 180.11 7.39 3 14.95 5.58a5.31 5.31 0 003.66-.22c2.32-1.12 1.75-3.39 1.12-5.14-17.24-47.87-38.2-93.78-71.68-132.84a173.68 173.68 0 00-22.86-22.27c-33.93-27.26-58.87-61.41-78-100.07-28.73-58-44.28-119.81-51-183.77-1.54-14.58-6.79-23.33-19.12-29.34-7.17-3.49-14-7.71-21.22-11.09-40.3-18.92-83.09-28.23-127.21-31.43-67-4.88-133.08 2.11-198.2 18.12-75.59 18.59-151 37.74-226.6 56.44-47.15 11.68-94.3 23.46-142.14 32-7.67 1.38-13.92 4-19 9.61-3.55 3.89-7 7.86-10.55 11.79-4.35 4-9 7.85-13 12.18-66 70.46-105.79 154-123.83 248.36-5.12 26.78-9.18 53.76-14.5 80.5-8.69 43.08-20.18 85.44-31.57 127.83-1.5 5.6-3.39 11.1-3.26 16.46 4.24 2.64 7.28.27 10.43.12 10.64-.5 18.41-5.42 25.52-13.29 9.86-10.92 22.4-18.74 35.11-26.11a266.78 266.78 0 0149-22c7.11-2.4 13-5.67 18.16-11.45 44.58-50.29 97.26-90.57 155-124.48zM285.59 1752.13c-.8 35.81 7.09 70.14 17.71 103.95 9.77 31.13 19.18 62.34 25.08 94.5a186.39 186.39 0 005.53 23.26c10.58 33 21 66 32.4 98.64 10.25 29.54 21.05 58.91 34.65 87.15 4.62 9.61 9.28 19.19 15.93 27.62 7.9 10 18 12.93 30.23 9.69a59.45 59.45 0 0016.22-7.5c8.54-5.3 16-11.93 23.15-19a305.4 305.4 0 0045.9-57.8c8.74-14.22 20.42-24.4 34.94-31.76 11.27-5.71 22.68-11.17 34.13-16.52 18.7-8.75 37.26-17.74 55-28.25 40.8-24.09 75-55.22 101.26-94.82 46.12-69.62 63.75-145.77 51.13-228.47a351.9 351.9 0 00-33-104.32c-3-6.11-6.72-10.93-13.36-14-64.88-29.76-131.2-55.06-201.62-68.71-49.64-9.62-96.76-2.68-142 18.92-17 8.09-32.94 17.78-41.91 35.44-2.09 4.1-5.35 5.73-9.57 5.92-12 .55-24 1.4-36 1.32-7 0-11 2.4-13.49 9-18.6 50.32-30.9 101.88-32.31 155.74z"/><path class="cls-5" d="M452.94 357l20.57-.49c-17.86 8-36 4.75-54.15 1.41-1.93-.35-3.8-1-5.7-1.51 0-3.18.51-6.13 3.46-8 .05 3.84 2.83 5.12 5.83 6.19 9.75 3.77 20.05.7 29.99 2.4z"/><path class="cls-6" d="M423 354.51c-3-1.07-5.78-2.35-5.83-6.19a3 3 0 001.16-3.3c3-2.44 6-4.34 10.42-3.48 6.89 1.34 13.89 2.08 20.85 3.07 3.43 3.07 9.63 1.73 11.53 7.24a15.66 15.66 0 00-3.6.53 132.87 132.87 0 00-34.53 2.13z"/><path class="cls-7" d="M2067.8 1551.3c.56 26 1.28 51.93 1.65 77.89 1.45 101.28 2.31 202.58 4.37 303.85 1 48.63 4.83 97.12 15.07 144.89a237.33 237.33 0 0014.08 43.61c17.17 40.15 26.32 82.22 31 125.51 8.86 82.5-.54 163.61-18.41 244-22.93 103.16-60.23 201.31-105.39 296.59-64.94 137-141.68 267-234.64 387-58.11 75-121.81 144.8-195.26 205.26-19 15.65-38.54 30.61-59.72 44-4.71-3.48-9-6.47-13.12-9.73-103.71-82.72-205.2-168-301.7-259.12q-65.45-61.79-125.31-129c-50.39-56.86-85.22-121.87-106.9-194.4-17.24-57.65-28.75-116.29-36.52-175.83-4.74-36.37-7.41-72.89-10-109.44-.61-8.6-.26-17.28-.36-25.92 11.55 2.31 17.83 11.79 23.91 20 7.22 9.73 15.62 18.09 23.86 26.73 5.06 5.3 11.15 9.86 15.25 15.8 16.73 24.22 40.84 41.71 58.45 65.27 11.45 15.31 25.91 28.46 39 42.53 19 20.44 36.67 42.11 56.54 61.75 9 8.86 18.29 17.34 25.13 28.27 3.45 5.52 9.12 9.64 13.79 14.39a15.77 15.77 0 0012.56 5.05c5.3-.29 11 .46 15.81-1.23 8.51-3 17.06-2.45 25.67-2.66 4.66-.11 9.72 1 13.91-.48 15.3-5.32 31.49-3.7 47.14-6.87 22.65-4.6 45.68-7.46 68.25-12.69A891.62 891.62 0 001487.6 2739c13.61-5.29 26.81-11.65 40.08-17.79a473.19 473.19 0 0052.69-28.33c20.83-13 42.38-25.51 60.24-42.26 23.71-22.25 48.26-43.95 67.41-70.67 15.89-22.17 31-44.87 42.38-69.72 8.3-18.1 16.11-36.45 23.57-54.92a1018 1018 0 0040.72-120.75c9.15-34.58 18.13-69.18 24.4-104.46 6.94-39.06 15.2-77.9 22.13-117 5-28 7.72-56.4 13.23-84.28 6.15-31.13 10.75-62.52 18.09-93.5 8-33.68 16.85-66.79 30.54-98.62 3.94-9.15 7-18.73 12.24-27.23 19.7-31.62 36.76-64.72 54.21-97.57 11.53-21.71 21.91-44 32-66.5 11.71-26.06 24.18-51.77 34.87-78.3 2.46-6.05 4.66-12.67 11.4-15.8z"/><path class="cls-8" d="M2067.8 1551.3c-6.74 3.13-8.94 9.75-11.38 15.8-10.69 26.53-23.16 52.24-34.87 78.3-10.11 22.48-20.49 44.79-32 66.5-17.45 32.85-34.51 65.95-54.21 97.57-5.29 8.5-8.3 18.08-12.24 27.23-13.69 31.83-22.55 64.94-30.54 98.62-7.34 31-11.94 62.37-18.09 93.5-5.51 27.88-8.26 56.28-13.23 84.28-6.93 39.06-15.19 77.9-22.13 117-6.27 35.28-15.25 69.88-24.4 104.46a1018 1018 0 01-40.71 120.71c-7.46 18.47-15.27 36.82-23.57 54.92-11.41 24.85-26.49 47.55-42.38 69.72-19.15 26.72-43.7 48.42-67.41 70.67-17.86 16.75-39.41 29.22-60.24 42.26a473.19 473.19 0 01-52.69 28.33c-13.27 6.14-26.47 12.5-40.08 17.79a891.62 891.62 0 01-121.67 37.34c-22.57 5.23-45.6 8.09-68.25 12.69-15.65 3.17-31.84 1.55-47.14 6.87-4.19 1.45-9.25.37-13.91.48-8.61.21-17.16-.32-25.67 2.66-4.82 1.69-10.51.94-15.81 1.23a15.77 15.77 0 01-12.56-5.05c-4.67-4.75-10.34-8.87-13.79-14.39-6.84-10.93-16.17-19.41-25.13-28.27-19.87-19.64-37.54-41.31-56.54-61.75-13.08-14.07-27.54-27.22-39-42.53-17.61-23.56-41.72-41-58.45-65.27-4.1-5.94-10.19-10.5-15.25-15.8-8.24-8.64-16.64-17-23.86-26.73-6.08-8.19-12.36-17.67-23.91-20-.84-3.38-1.39-6.77 3.45-7.28a44.3 44.3 0 018 .18c179.61 14.33 339.06-37.31 480.85-146.84 106.1-82 188.27-183.81 250.47-302.12 37.93-72.15 67.07-147.67 86.14-227.05 3-12.33 2.35-23.19-2.74-34.74-10.47-23.73-19.48-48.11-30.11-71.76-11.34-25.23-17.27-51.71-20.3-78.91-3.62-32.45-5.45-65-5.83-97.69a37.36 37.36 0 01.86-5.89c4.47-.3 6.93-2.5 8.44-6.93 5.14-15 10.67-30 16.18-44.89 10.57-28.61 21.48-57.07 35.45-84.29 18.48-36 36.68-72.17 51.31-110 10.37-26.8 17.2-54.17 16.79-83.1-.18-13.3.44-26.62-.18-39.89-.53-11 2.13-21.15 6.45-30.87a222.34 222.34 0 0115-28c18.74-29.77 40.26-57.51 62.2-84.84 19-23.66 42.5-41.73 72.78-49.4 4.6-1.17 9-2 13.72-1.41 4 .5 5.41 3.3 6 6.81-3.74 1.33-7.42 2.86-11.23 4-26.62 7.64-47.24 23.52-62.79 46.09-18.73 27.21-29.36 57.64-35 90-2.43 13.81 2.89 24.69 12.38 33.87 7.68 7.43 16.45 4.56 19.65-5.78 2.34-7.59.09-16 4.25-23.2 3.4.26 6.76.85 7.93 4.63 4.28 13.87 9.07 27.63 12.34 41.75 1.62 7 4.51 12.11 10.13 16.19 17.79 12.9 32.29 28.91 45.88 46.16 14.12 17.91 21.69 36.77 21 60.07-.44 15.42-4 28.42-13.18 40.41-4.46 5.86-9.18 11.34-15.72 14.88-4.3 2.32-7.09 5.84-9.26 10-28.46-11.34-57.11-11.09-86-1.65a148.58 148.58 0 01-19.31 4.84 36.13 36.13 0 01-11.83.18c-8.69-1.32-12.83-6.22-13.2-14.78a38.24 38.24 0 012.39-15.69c2.41-6.2 5-12.36 7-18.69 6.54-20.3 6.61-40.49-1.67-60.41-.42-2.55-.43-5.26-1.37-7.6s-2.78-4.13-5.3-7.68l3.28 15.29c-.25 23.06-8.89 42.47-24.68 59.21-9.11 9.66-17.48 20.08-25.61 30.61a103.06 103.06 0 00-12.63 20.22c-5.74 12.73-2.33 25.27 8.15 34.18 9.47 8.05 20.25 9.06 31.89 6 14.31-3.79 27.37-10.43 39.85-18 21.91-13.28 45.53-17.8 70.73-15.88-4.22 5.47-11.07 3.49-16.5 5.78-25.66 10.82-51.71 20.74-76.21 34.16-20.45 11.2-39.57 24.13-55.45 41.53-5 5.52-9.12 11.4-11.51 18.4-7.14 21-6.36 41.55 2.66 62 11.14 25.21 30.42 37.37 57.73 37.89 8.78.16 17-2.47 25.46-3.47 27.73-3.31 54.56-10.18 81.09-18.43a38.9 38.9 0 0117.62-1.54c-22.28 19.93-49.16 31.06-77.4 38.81-24.5 6.72-49.61 9.19-75 4.77-50.59-8.79-64.05-34.31-63.06-76.5.25-10.59 2.32-21.13 3.55-31.69 4.92-4.26 3.28-10.12 5-17.47-6.41 5.77-10.13 10.4-10.33 17.14v.11a7.09 7.09 0 00-3.89 8c-7.56 15.8-12.24 32.25-12.39 50-.21 24.76 10.35 43.61 30.73 57.1 15.31 10.13 32.52 15.29 50.6 17 28.18 2.66 55.68-.06 82.5-10.16a492.32 492.32 0 0073.94-34.79c24.17-14 47.6-29.32 71.41-44 5-3.06 9-7.8 16.39-9.1 2.47 8.32 2.15 16.63 1.17 25.01zm-93.19-271c-2.34-11.2-7.73-21.13-13.19-31s-11.61-19.69-20.93-26.31c-17.81-12.64-36-24.73-55.28-35.13-.42-.23-1.25.3-3 .77-1.71 25.42-1.1 51 4.94 76.23 3.71 15.45 18.65 27.9 37.66 33-4.06-10.09-8.31-19.72-11.8-29.61-3.64-10.31-9-20.44-6.4-33.7a162 162 0 0162.79 45.91 17.71 17.71 0 008.85 11.71c.31-4.6.96-9.04-3.64-11.87z"/><path d="M578.91 1139.72l46.66 13c8.74 6.47 18.58 3.89 28.17 3.46l3.76.16c.4 4.51 2.76 6.92 7.19 8.31a266.08 266.08 0 0062.31 11.59c31.39 2.09 62.27-2.66 92.92-8.46 24.5-4.64 46.64-15.44 66.48-30.43 27.17-20.55 50.79-44.73 71.86-71.55 26.8-34.1 49.37-70.85 69-109.38 10-19.55 19.62-39.36 27.6-59.77 8.43-21.56 17-43.37 18.63-66.9.77-10.82 6.14-19.19 14.32-25.28 12.43-9.27 26.51-16.1 42.26-15.93 26.51.28 53-1.87 79.57 3.14 24.9 4.69 49.29 10.49 72.94 19.33 46.18 17.26 89.92 40 134.25 61.3 35.38 17 69.86 35.9 104.68 54.06 9.43 4.91 19.5 8.67 28 15.36 3.33 2.62 7.4 2.72 11.44 2.71 4.71 12.72 5.32 26.14 6.7 39.42-2.82 1.68-6 2.91-8.39 5.1-14.11 13.22-30 24.17-45.74 35.18-40.85 28.59-83.13 54.92-126.35 79.85-27.58 15.92-53.29 34.89-78.3 54.73-15.07 12-30.64 23.24-45 36.12-12.83 11.5-26.41 22.15-39.83 33-13 10.43-24.46 22.74-37.6 32.59-17.65 13.23-32.42 29.44-49.31 43.42-22.44 18.58-44 38.34-66.05 57.51s-44.69 37.58-68 55.19c-17.49 13.23-35.69 25.45-55.58 34.91a103.8 103.8 0 01-28.35 9.09c-11.12 1.79-22.46 2.6-33.4 4.54-24.62 4.37-48.76 4.74-73.12-.45a26 26 0 00-8-.17c-18.12 1.87-35.43-5.6-53.48-4.61-1.88.1-3.81-1.1-5.75-1.53-8.4-1.82-16.8-3.66-25.23-5.3-2.93-.58-5 1.24-6.66 3.47l-8.14-1.65c-.94-2.18-2.57-2.7-4.73-2-16.55-2-32.06-8-48-12.5-33.14-9.3-66.12-19.21-99.16-28.86l.15-6.49c7.82-1.4 15.75-2.35 23.43-4.32 9.53-2.44 19.8-2.44 28.39-8.16 14.31-3.11 27.53-9.09 40.66-15.33 23.32-11.08 34.68-30.13 35.45-55.3 1.1-36.16-12-67.22-36-93.9a65.26 65.26 0 00-24.11-17.07c-3.37-4.85-8.17-3.45-12.77-2.91-12.91-1.16-23.47-9.1-35.67-12.4a19.73 19.73 0 01-8.52-4.9c-3.45-3.51.09-7.43.45-11.21a94.51 94.51 0 00.45-14c-.38-6.92 2.2-13 4.21-19.37 1.56-4.64 5.4-5.41 9.31-6.41z" fill="#fff"/><path d="M522.42 360.54c3.51-3.93 7-7.9 10.55-11.79 5.13-5.62 11.38-8.23 19-9.61 47.84-8.56 95-20.34 142.14-32 75.56-18.7 151-37.85 226.6-56.44 65.12-16 131.19-23 198.2-18.12 44.12 3.2 86.91 12.51 127.21 31.43 7.22 3.38 14 7.6 21.22 11.09 12.33 6 17.58 14.76 19.12 29.34 6.75 64 22.3 125.79 51 183.77 19.17 38.66 44.11 72.81 78 100.07a173.68 173.68 0 0122.86 22.27c33.48 39.06 54.44 85 71.68 132.84.63 1.75 1.2 4-1.12 5.14a5.31 5.31 0 01-3.66.22q-7.54-2.6-14.95-5.58Q1269.5 653.21 1048.71 563a108.38 108.38 0 00-38.63-8.09c-118-3.64-230.4 18.86-336.84 70.33-3.54 1.71-7.37 2.85-11.06 4.26-.15-2.69-.33-5.59 1.94-7.41a142.22 142.22 0 0112.88-9.37c42.75-27.06 86.31-52.48 134.23-69.72 11.73-4.23 23.1-9.85 32.72-18.72 12.74-11.73 19.47-26.63 25.81-42.11 5.55-13.53 3.13-27.58 3.93-41.44 1-18-4.63-34.74-13.22-49.49q-30-51.58-89.79-63.34c-15.91-3.11-31.62-3.53-47.54-3.55-13.32 0-27.08-1.72-39.85 1-13.67 2.93-27.55 3.66-41.22 6.28-26 5-51.91 10.53-77.5 17.45q-21.08 5.71-42.15 11.46z" fill="#e4e8e9"/><path class="cls-11" d="M285.59 1752.13c1.37-53.86 13.71-105.42 32.42-155.69 2.45-6.59 6.47-9 13.49-9 12 .08 24-.77 36-1.32 4.22-.19 7.48-1.82 9.57-5.92 9-17.66 25-27.35 41.91-35.44 45.22-21.6 92.34-28.54 142-18.92 70.42 13.65 136.74 39 201.62 68.71 6.64 3 10.32 7.87 13.36 14a351.9 351.9 0 0133 104.32c12.62 82.7-5 158.85-51.13 228.47-26.23 39.6-60.46 70.73-101.26 94.82-17.79 10.51-36.35 19.5-55 28.25-11.45 5.35-22.86 10.81-34.13 16.52-14.52 7.36-26.2 17.54-34.94 31.76a305.4 305.4 0 01-45.9 57.8c-7.14 7-14.61 13.66-23.15 19a59.45 59.45 0 01-16.22 7.5c-12.26 3.24-22.33.33-30.23-9.69-6.65-8.43-11.31-18-15.93-27.62-13.6-28.24-24.4-57.61-34.65-87.15-11.35-32.69-21.82-65.69-32.4-98.64a186.39 186.39 0 01-5.53-23.26c-5.9-32.16-15.31-63.37-25.08-94.5-10.73-33.86-18.62-68.19-17.82-104zm404.68-74.94c7.8-1 12.56-6 16-12.43 2.24-4.23.84-7.35-4.3-8.06-12.18-6.82-24-14.35-36.62-20.29-21-9.91-42.57-18.72-63.81-28.16-38.34-17-77.85-30.61-119-38.71a125.75 125.75 0 00-45.73 0c-23.39 4.08-37.39 21.53-51.16 38.82-4.08 14.38-14.44 17.8-27.84 16.07a48 48 0 00-6-.06c-23.09 0-30.12 4.82-38.28 26.6-1.4 3.73-2.41 7.6-3.65 11.39-5.52 16.8-4.09 34.17-4.27 51.42-.26 25.24 7.41 48.53 18.8 70.47 4 7.7 6.39 14.7 3.66 22.61-4.07 11.77-2.11 23.77-2.3 35.67-.13 8 2.48 9.33 9.72 6.79 22.58-7.91 44.87-16.92 67.88-23.27 50.72-14 99.82-32.45 148.11-53 40.51-17.21 78.56-39.22 113.07-66.73 8.57-6.82 18.78-13.13 21.18-25.45zM544 1862.59c-3.86-3.38-8-2.65-11.91-2.68-12-.07-24 .09-36-.05a160.91 160.91 0 00-39.58 4.31c-33.15 8-64.46 20.73-95 35.51-3.69 1.78-4.79 4.26-3.21 7.92a51.28 51.28 0 002.8 5.28c22.29 38.41 54.72 66.57 91.43 90.38 2.9 1.89 6.17 2.72 9.28.45 13.43-9.77 29.27-12.37 45-14.77 6-.91 9.59-3.79 12.42-8.65a109.89 109.89 0 0010.43-25.81c8.49-30.19 12.03-61.12 14.34-91.89zM1988 1370.57c2.17-4.2 5-7.72 9.26-10 6.54-3.54 11.26-9 15.72-14.88 9.14-12 12.74-25 13.18-40.41.66-23.3-6.91-42.16-21-60.07-13.59-17.25-28.09-33.26-45.88-46.16-5.62-4.08-8.51-9.17-10.13-16.19-3.27-14.12-8.06-27.88-12.34-41.75-1.17-3.78-4.53-4.37-7.93-4.63-.82-9.42.27-18.7 1.85-28 1.74-.84 4.57-1.28 5-2.59 9.7-26.18 31.3-30.53 55.07-29.21 11.09.62 22.22 3.59 33 6.76 24.74 7.3 45.32 21 63.36 39.79 19.71 20.55 32 43.78 34.5 72 .65 7.31 5.19 13.89 3.71 21.47-4.31 22.09-8 44.19-18.12 64.87-12.39 25.21-28.62 47.84-44.39 70.81a189.13 189.13 0 01-21.59 26c-13.58 13.72-23.89 30.32-38.58 43-3.75 3.24-5.49 7.47-4.18 12.56-.46.47-.91 1-1.4 1.41-6.17 5.72-16.12 6.19-20.34 14.63 5.09 6.86 10 13.85 15.31 20.56 3.61 4.6 6.45 10 13.07 13.77 47.49-55.22 91.12-113.13 121.62-180a4.36 4.36 0 002.37-5.06 2.07 2.07 0 01.93-2.87c4.58-.26 7.14-3.05 8.76-7 2.75-6.74 5.9-13.36 8.15-20.26 8.19-25.16 17-50.25 14.37-77.45l-.12-11.59c4.58-37.09-2.18-72.48-16.43-106.63-18.66-44.73-50.86-73.3-99.2-82.37-11.89-5.63-23.86-5.85-35.91-.49l-8 .87c-.62-3.51-2.07-6.31-6-6.81-4.68-.59-9.12.24-13.72 1.41-30.28 7.67-53.79 25.74-72.78 49.4-21.94 27.33-43.46 55.07-62.2 84.84a222.34 222.34 0 00-15 28c-4.32 9.72-7 19.87-6.45 30.87.62 13.27 0 26.59.18 39.89.41 28.93-6.42 56.3-16.79 83.1-14.63 37.84-32.83 74-51.31 110-14 27.22-24.88 55.68-35.45 84.29-5.51 14.92-11 29.84-16.18 44.89-1.51 4.43-4 6.63-8.44 6.93-2.93-29.91-2-59.91-1.31-89.85 1.43-61.28 2.86-122.58 5.74-183.8 3-63.21 7.79-126.33 11.55-189.51a18.26 18.26 0 018.31-15c6.55-4.55 12.93-9.47 19.92-13.26 19.29-10.46 38.48-21.24 58.4-30.38 36.27-16.63 73-32.34 109.61-48.1 26.49-11.38 54.25-18.68 82.95-20.68 69.54-4.83 126.83 18.88 168.46 76 23.67 32.47 35.89 69.54 40.65 109.22 6.21 51.87-1.65 102.31-16.15 151.92a486.87 486.87 0 01-105.79 190.43 101.21 101.21 0 01-23 18.89c-21 12.88-41.31 26.83-62 40.24-6.65 4.32-13.52 8.31-20.29 12.45a39 39 0 00-17.62 1.55c-26.53 8.25-53.36 15.12-81.09 18.43-8.46 1-16.68 3.63-25.46 3.47-27.31-.52-46.59-12.68-57.73-37.89-9-20.4-9.8-41-2.66-62 2.39-7 6.46-12.88 11.51-18.4 15.88-17.4 35-30.33 55.45-41.53 24.5-13.42 50.55-23.34 76.21-34.16 5.43-2.29 12.28-.31 16.5-5.78 9.63-1.43 19.23-3.08 28.9-4.18 4.3-.35 7.02-2.55 9.39-5.78z"/><path class="cls-7" d="M921 640.46c9.57 16.79 10.55 35.57 11.84 54.09 2.23 32-.81 64-4.42 95.7a1364.9 1364.9 0 01-23 137.82c-7.61 34.8-20.89 67.33-41 96.85-29 42.54-68.11 70.69-118.63 81.79-30.53 6.71-61 13.87-92.51 15-8 .29-16 .93-23.78-1.47.44-5.33-3.1-8.52-6.4-11.83-9.87-9.91-19.88-19.69-29.61-29.74-32.16-33.21-53.36-72.81-66.71-116.7-3.64-12-5.39-24.61-7.21-37.06-2.39-16.38-4.2-32.86-5.81-49.34-.45-4.54.57-9.25 1.14-13.85.66-5.26 1.77-10.46 2.33-15.73 2.53-23.9 12.36-44.71 27.63-62.86 15.93-18.94 35.19-34.6 54.78-49.34a448.73 448.73 0 01107.73-60.08c62.5-24.27 127.2-37.53 194.45-37.25 5.32 0 10.64-.3 16-.46-.42 2.61.86 3.91 3.18 4.46z"/><path class="cls-8" d="M713.58 1456.46c1.67-2.23 3.73-4 6.66-3.47 8.43 1.64 16.83 3.48 25.23 5.3 1.94.43 3.87 1.63 5.75 1.53 18-1 35.36 6.48 53.48 4.61a26 26 0 018 .17c24.36 5.19 48.5 4.82 73.12.45 10.94-1.94 22.28-2.75 33.4-4.54a103.8 103.8 0 0028.35-9.09c19.89-9.46 38.09-21.68 55.58-34.91q34.92-26.41 68-55.19c22-19.17 43.61-38.93 66.05-57.51 16.89-14 31.66-30.19 49.31-43.42 13.14-9.85 24.65-22.16 37.6-32.59 13.42-10.81 27-21.46 39.83-33 14.37-12.88 29.94-24.16 45-36.12 25-19.84 50.72-38.81 78.3-54.73 43.22-24.93 85.5-51.26 126.35-79.85 15.72-11 31.63-22 45.74-35.18 2.34-2.19 5.57-3.42 8.39-5.1 4.1 10 1.69 19.26-2.6 28.71q-37.12 81.78-77.89 161.78c-19.72 38.48-40.42 76.46-59.78 115.1-25.14 50.17-60.27 92.31-101.32 130-38.87 35.66-81.07 67-125.17 95.74-83.77 54.66-172.28 100.44-263.92 140.3-4.11 1.79-8 4.86-14.12 3.87-2.91-5.16-6.26-10.82-9.36-16.62-24.09-45.19-48.37-90.3-72-135.72-5.28-10.14-11.68-16.22-23.23-19.2-32.16-8.3-63.93-18.12-95.87-27.27-3.24-.91-6.62-1.2-8.88-4.05z"/><path class="cls-7" d="M522.42 360.54q21.08-5.73 42.14-11.45c25.59-6.92 51.45-12.44 77.5-17.45 13.67-2.62 27.55-3.35 41.22-6.28 12.77-2.73 26.53-1 39.85-1 15.92 0 31.63.44 47.54 3.55q59.64 11.64 89.79 63.34c8.59 14.75 14.26 31.48 13.22 49.49-.8 13.86 1.62 27.91-3.93 41.44-6.34 15.48-13.07 30.38-25.81 42.11-9.62 8.87-21 14.49-32.72 18.72-47.92 17.23-91.48 42.65-134.22 69.71a142.22 142.22 0 00-12.87 9.41c-2.27 1.82-2.09 4.72-1.94 7.41l-32.55 19.1c-57.77 33.91-110.45 74.19-155 124.48-5.12 5.78-11.05 9-18.16 11.45a266.78 266.78 0 00-49 22c-12.71 7.37-25.25 15.19-35.11 26.11-7.11 7.87-14.88 12.79-25.52 13.29-3.15.15-6.19 2.52-10.43-.12-.13-5.36 1.76-10.86 3.26-16.46C351 787 362.49 744.64 371.06 701.58c5.32-26.74 9.38-53.72 14.5-80.5 18-94.35 57.86-177.9 123.83-248.36 4.06-4.33 8.68-8.14 13.03-12.18zM225.82 1328.37l2-12c2.16-1.24 2.35-2.94 1.18-5 2.3-24.76 10.31-48.1 18.56-71.25 22.81-64 57-121.55 99-174.68 8.65-10.94 17.15-22 24.79-33.66 3.82-5.87 5.37-11.83 6.05-18.6 2.52-25.18 5.41-50.31 8.29-75.45.53-4.61 1.77-9.14 2.5-13.73 1.84-11.53 8.7-19 18.75-24.25 9.81-5.12 18-7.14 33.34-7.39 3.59 27.6 11.15 54.39 21.48 80.32 7.88 19.76 16.74 39.13 25.15 58.68 2.35 5.46 4.62 11 6.93 16.42.64 8.86-1.91 17.19-5 25.21-10.25 26.64-20.85 53.14-31.44 79.65-1.73 4.33-3.81 8.44-3.77 13.31 0 5.15 1.51 8.66 7 10.53 10 3.44 19.77 7.8 29.77 11.37 30.08 10.74 59.38 23.18 86.51 40.18 14.61 9.14 29.6 17.82 41.4 30.86 11.3 12.48 16 26.67 15.67 43.68-.27 14.94-23.7 37.9-38.44 38.14-12.51.2-22.16-4.4-30.66-11.81-17.37-15.14-37.91-24.61-58.48-33.85-15.78-7.09-32.87-9.74-50.23-10.88-23.78-1.57-45.9 4.52-68.17 11.77-20.8 6.79-34.75 21.61-48.25 37.23a26.68 26.68 0 00-6.16 18.58c.2 6 .14 12-.09 18-.33 8.77-2.79 10.69-10.94 8.86-27.47-6.19-53.45-15.89-76.49-32.48-3.77-2.71-7.06-6.21-12.26-5.87l-.27.09c.38-5.86-2.54-9.65-7.72-11.98z"/><path class="cls-7" d="M357.06 892.5c6.56 9.35 6 20.21 5.85 30.74-.15 9.26-1.44 18.53-2.6 27.75-3.34 26.33-7.41 52.59-10 79a44.63 44.63 0 01-10.17 25.08 651.26 651.26 0 00-80 125.7c-21.57 44.43-37.48 90.65-45.37 139.5-.42 2.6-.39 5.28-.57 7.92-6.9-.83-10.73 4.62-15.58 7.81-7.24 4.78-14.69 9.07-23.1 11.31-17.9 4.77-27.43 1.32-37.61-13.9a85.81 85.81 0 01-10-19.35c-11.74-33.43-18.47-67.68-18.62-103.16-.07-14 0-27.93-.31-41.89-.15-6.56-2.39-13.31-1.43-19.63 2.68-17.68 2.08-35.62 5.55-53.29 4.37-22.17 8.52-44.22 18.72-64.65 17.31-34.7 43.27-61.59 74.64-83.84 22.84-16.21 46.93-30.11 73.09-40.06 24.9-9.48 50.45-16.28 77.51-15.04z"/><path class="cls-6" d="M1561 944.44c-4 0-8.11-.09-11.44-2.71-8.47-6.69-18.54-10.45-28-15.36-34.82-18.16-69.3-37-104.68-54.06-44.33-21.31-88.07-44-134.25-61.3-23.65-8.84-48-14.64-72.94-19.33-26.6-5-53.06-2.86-79.57-3.14-15.75-.17-29.83 6.66-42.26 15.93-8.18 6.09-13.55 14.46-14.32 25.28-1.67 23.53-10.2 45.34-18.63 66.9-8 20.41-17.63 40.22-27.6 59.77-19.65 38.53-42.22 75.28-69 109.38-21.07 26.82-44.69 51-71.86 71.55-19.84 15-42 25.79-66.48 30.43-30.65 5.8-61.53 10.55-92.92 8.46a266.08 266.08 0 01-62.35-11.61c-4.43-1.39-6.79-3.8-7.19-8.31 13.9-1.17 27.83-2 41.69-3.58 62.2-6.91 118.77-28.47 169.15-65.79 33.5-24.81 57.37-57 73.63-95.3 14.94-35.12 24.8-71.69 31.55-109.1 7.1-39.31 13.23-78.79 20-118.17 2.69-15.75 5.89-31.41 11.55-46.44 11.3-30 22.63-35 51.72-26.12 35.06 10.74 68.88 24.63 102.55 38.94 108.43 46 214.78 96.64 321 147.53 21 10.06 41.69 20.85 63 30.08 10.57 4.57 15.52 11.31 16.49 22.26.41 4.6 2.16 9.08 1.16 13.81zM233.75 1340.32c5.2-.34 8.49 3.16 12.26 5.87 23 16.59 49 26.29 76.49 32.48 8.15 1.83 10.61-.09 10.94-8.86.23-6 .29-12 .09-18a26.68 26.68 0 016.16-18.58c13.5-15.62 27.45-30.44 48.25-37.23 22.27-7.25 44.39-13.34 68.17-11.77 17.36 1.14 34.45 3.79 50.23 10.88 20.57 9.24 41.11 18.71 58.48 33.85 8.5 7.41 18.15 12 30.66 11.81 14.74-.24 38.17-23.2 38.44-38.14.31-17-4.37-31.2-15.67-43.68-11.8-13-26.79-21.72-41.4-30.86-27.13-17-56.43-29.44-86.51-40.18-10-3.57-19.73-7.93-29.77-11.37-5.47-1.87-6.94-5.38-7-10.53 0-4.87 2-9 3.77-13.31 10.59-26.51 21.19-53 31.44-79.65 3.09-8 5.64-16.35 5-25.21 4.5 8 9.3 15.75 13.43 23.89q21.82 43 65.28 63.75a54 54 0 016.4 4.22c-3.87 1-7.75 1.77-9.22 6.43-2 6.34-4.59 12.45-4.21 19.37a94.51 94.51 0 01-.45 14c-.36 3.78-3.9 7.7-.45 11.21a19.73 19.73 0 008.52 4.9c12.2 3.3 22.76 11.24 35.68 12.4a3.88 3.88 0 001.27 3.29 301 301 0 0129.39 44.78c7.15 13.52 13.39 27.5 16.35 42.51 7.7 39-3.37 61.33-34.86 78-8.74 4.63-18.13 8-27.21 12-27.36 7.44-55.74 10.22-83 18.08-2 1.61-3.76 4.06-6 4.68a189 189 0 01-21.2 4.54 232.54 232.54 0 00-88.31 32.8 27 27 0 01-15 4c-5.95 6.5-10 14.61-17.26 20-3.05-.93-6.85-1-9-2.94-8.68-7.74-19.36-13-27-22-3.36-4-7.3-7.44-13.06-7.43-22.09-21-40.31-45.54-60.62-68.17-8.31-9.22-15.79-19.5-19.5-31.83zm69.94 72.21c7.33 9.39 15.73 17.7 26 23.76 6.55 3.85 13.38 5.19 20.2-1.91l-39.63-22.75c-1.36-3.38-4.69-4.43-7.43-6.09-.94-.56-3.17-.69-3.56-.14-1.29 1.82.13 3.49 1.36 4.84a19.83 19.83 0 003.06 2.29zm71.36-77c-2.57 1.14-4.83 3-4.09 5.89 1.47 5.84 4.31 10.84 9.6 14.41 18.39 12.4 38.1 20.67 60.7 20.52 6.6 0 13.22.36 19.79-.1 21-1.48 41.55-5.21 60.4-15.38 5.4-2.45 11.18-4.3 16.12-7.46 12.35-7.9 13.59-19.27 3.21-29.86a55.11 55.11 0 00-14.27-10.55 123.84 123.84 0 00-22.1-8.52c-24-6.69-48.47-6.89-72.81-3.33-18.53 2.71-35.65 9.76-49.73 22.82-3.43 3.2-6.77 6.38-6.82 11.54z"/><path class="cls-12" d="M917.84 636c-5.32.16-10.64.48-16 .46-67.25-.28-132 13-194.45 37.25A448.73 448.73 0 00599.7 733.8c-19.59 14.74-38.85 30.4-54.78 49.34-15.27 18.15-25.1 39-27.63 62.86-.56 5.27-1.67 10.47-2.33 15.73-.57 4.6-1.59 9.31-1.14 13.85 1.61 16.48 3.42 33 5.81 49.34 1.82 12.45 3.57 25.08 7.21 37.06 13.35 43.89 34.55 83.49 66.71 116.7 9.73 10 19.74 19.83 29.61 29.74 3.3 3.31 6.84 6.5 6.4 11.83-19.56 2.39-36.65-5-52.62-14.65-28-16.94-48.27-41.4-63.82-69.87-17.1-31.31-25.79-65.3-31.73-100.22-4.92-29-4.72-58.22-5.13-87.49-.31-21.75 6.39-40.69 20.39-56.8 29.21-33.61 58-67.68 95.44-92.93A502.74 502.74 0 01719 636.86a490.7 490.7 0 01123-23.32 181 181 0 0147.56 3.73c11.44 2.37 23.84 5.07 28.28 18.73zM357.06 892.5c-27.05-1.24-52.61 5.56-77.5 15-26.16 10-50.25 23.85-73.09 40.06-31.37 22.25-57.33 49.14-74.64 83.84-10.2 20.43-14.35 42.48-18.72 64.65-3.47 17.67-2.87 35.61-5.55 53.29-1 6.32 1.28 13.07 1.43 19.63.32 14 .24 27.92.31 41.89.15 35.48 6.88 69.73 18.62 103.16a85.81 85.81 0 0010 19.35c10.18 15.22 19.71 18.67 37.61 13.9 8.41-2.24 15.86-6.53 23.1-11.31 4.85-3.19 8.68-8.64 15.58-7.81l11.62.19c5.2 2.33 8.1 6.12 7.66 12-5.53.47-7.35 5.22-10 8.87-7.13 9.78-15.47 18.3-25.74 24.76-9.72 6.1-20.21 9.88-31.88 10.22a36.65 36.65 0 01-28.64-11.61c-8.46-8.72-14.46-19-19.62-29.89-9.74-20.52-16.34-42.09-21.36-64.19-10.66-46.92-15.55-94.3-13.6-142.5C87 1027.63 164.32 917.92 280.4 880.69c14.57-4.67 29.39-9 44.94-7.68 13.66 1.17 26.2 4.77 31.72 19.49z"/><path class="cls-1" d="M380.18 1452.73a27 27 0 0015-4 232.54 232.54 0 0188.31-32.8 189 189 0 0021.2-4.54c2.26-.62 4-3.07 6-4.68 7.31-.3 14.63-.56 21.95-.92a8.32 8.32 0 017.08 2.79l1.09-.35c-21.08 11.32-44 18.29-65.84 27.83-13.37 5.83-26.9 11.39-40.66 16.22-8.11 2.85-11 8-12.47 16q-4.23 23.49-10.14 46.68c-3.61 14.18-11.6 25.26-25.92 30.66a14 14 0 01-3.84.79c-.59 0-1.22-.48-1.91-.79-2.72-3.5-1.11-7.56-1-11.33.62-19.93 1.59-39.85 2.18-59.78.23-7.25 1.13-14.61-1.03-21.78zM313.87 1440.36c5.76 0 9.7 3.44 13.06 7.43 7.62 9 18.3 14.26 27 22 2.16 1.93 6 2 9 2.94-.82 1.8-1.36 3.81-2.51 5.36a943.67 943.67 0 00-55.7 84.21c-3.88-.42-4-3-3.91-5.7a631.8 631.8 0 0113.06-116.24z"/><path class="cls-5" d="M461.08 351.85c-1.9-5.51-8.1-4.17-11.53-7.24 7.94-2 15.76.06 25.63-.14-4.42 6.08-8.05 8.99-14.1 7.38z"/><path class="cls-2" d="M423 354.51a132.87 132.87 0 0134.53-2.13c-1.48 1.52-3 3-4.48 4.57-10.05-1.65-20.35 1.42-30.05-2.44z"/><path class="cls-5" d="M1757.3 1492c.2-6.74 3.92-11.37 10.33-17.14-1.73 7.35-.09 13.21-5 17.47z"/><path class="cls-6" d="M653.74 1156.16c-9.59.43-19.43 3-28.17-3.46 9.6-.55 19.07-.05 28.17 3.46zM540.83 1408.24l-1.09.35c-.7-1.54-1.64-3.32 1.2-3.45 4.26-.18 8.53-.11 12.8-.15l-.15 6.49c-4.75.87-8.48-2.27-12.76-3.24z"/><path class="cls-5" d="M1753.37 1500.18a7.09 7.09 0 013.89-8c1 3.75-1.15 6.02-3.89 8z"/><path class="cls-8" d="M700.71 1452.84c2.16-.73 3.79-.21 4.73 2-2.18.77-3.8.21-4.73-2z"/><path class="cls-12" d="M229 1311.45c1.17 2 1 3.72-1.18 5-1.48-2.14-.69-3.69 1.18-5zM921 640.46c-2.34-.55-3.62-1.85-3.16-4.41 2.69.32 3.5 1.95 3.16 4.41z"/><path class="cls-13" d="M1930.68 1108.48c-1.58 9.26-2.67 18.54-1.85 28-4.16 7.22-1.91 15.61-4.25 23.2-3.2 10.34-12 13.21-19.65 5.78-9.49-9.18-14.81-20.06-12.38-33.87 5.69-32.36 16.32-62.79 35-90 15.55-22.57 36.17-38.45 62.79-46.09 3.81-1.09 7.49-2.62 11.23-4l8-.87 35.91.49c48.34 9.07 80.54 37.64 99.2 82.37 14.25 34.15 21 69.54 16.43 106.63a4.34 4.34 0 00-2.93-.14l-1.44-18a5 5 0 00-1.34-5.48c-.69-3.23-1.49-6.43-2.07-9.68-5-28.15-12.15-55.65-24.49-81.63-14.36-30.23-37.06-49.52-70.59-55.1-28.07-4.68-55.5-4.23-81.31 9.8-16.24 8.83-29.07 21-36 38.37-6.36 16.08-10.59 32.74-10.26 50.22zM1988 1370.57c-2.35 3.23-5.07 5.45-9.42 6-9.67 1.1-19.27 2.75-28.9 4.18-25.2-1.92-48.82 2.6-70.73 15.88-12.48 7.57-25.54 14.21-39.85 18-11.64 3.08-22.42 2.07-31.89-6-10.48-8.91-13.89-21.45-8.15-34.18a103.06 103.06 0 0112.63-20.22c8.13-10.53 16.5-21 25.61-30.61 15.79-16.74 24.43-36.15 24.68-59.21H1865.37c8.28 19.92 8.21 40.11 1.67 60.41-2 6.33-4.58 12.49-7 18.69a38.24 38.24 0 00-2.39 15.69c.37 8.56 4.51 13.46 13.2 14.78a36.13 36.13 0 0011.83-.18 148.58 148.58 0 0019.31-4.84c28.88-9.48 57.53-9.73 86.01 1.61zM1969.45 1280.51a162 162 0 00-62.79-45.91c-2.63 13.26 2.76 23.39 6.4 33.7 3.49 9.89 7.74 19.52 11.8 29.61-19-5.14-33.95-17.59-37.66-33-6-25.18-6.65-50.81-4.94-76.23 1.7-.47 2.53-1 3-.77 19.26 10.4 37.47 22.49 55.28 35.13 9.32 6.62 15.43 16.4 20.93 26.31s10.85 19.79 13.19 31z"/><path class="cls-3" d="M1865.35 1264.37H1861.96l-3.28-15.29c2.52 3.55 4.38 5.42 5.3 7.68s.95 5.06 1.37 7.61z"/><path class="cls-5" d="M1969.45 1280.51l5.16-.21c4.6 2.83 4 7.27 3.69 11.92a17.71 17.71 0 01-8.85-11.71z"/><path class="cls-13" d="M593.72 1388.64c9.08-4 18.47-7.39 27.21-12 31.49-16.71 42.56-39.07 34.86-78-3-15-9.2-29-16.35-42.51a301 301 0 00-29.39-44.78l11.49-.38a65.26 65.26 0 0124.11 17.03c24 26.68 37.12 57.74 36 93.9-.77 25.17-12.13 44.22-35.45 55.3-13.13 6.24-26.35 12.22-40.66 15.33-3.74-1.9-9.36 1.94-11.82-3.89z"/><path class="cls-2" d="M593.72 1388.64c2.46 5.83 8.08 2 11.84 3.87-8.59 5.72-18.86 5.72-28.39 8.16-7.68 2-15.61 2.92-23.43 4.32-4.27 0-8.54 0-12.8.15-2.84.13-1.9 1.91-1.2 3.45a8.32 8.32 0 00-7.08-2.79c-7.32.36-14.64.62-21.95.92 27.29-7.86 55.65-10.64 83.01-18.08z"/><path class="cls-12" d="M621.54 1210.91l-11.49.38a3.88 3.88 0 01-1.27-3.29c4.59-.54 9.39-1.94 12.76 2.91z"/><path class="cls-8" d="M685.68 1680.87c-2.4 12.32-12.61 18.63-21.18 25.45-34.51 27.51-72.56 49.52-113.07 66.73-48.29 20.5-97.39 38.93-148.11 53-23 6.35-45.3 15.36-67.88 23.27-7.24 2.54-9.85 1.19-9.72-6.79.19-11.9-1.77-23.9 2.3-35.67 2.73-7.91.34-14.91-3.66-22.61-11.39-21.94-19.06-45.23-18.8-70.47.18-17.25-1.25-34.62 4.27-51.42 1.24-3.79 2.25-7.66 3.65-11.39 8.16-21.78 15.19-26.64 38.28-26.6a48 48 0 016 .06c13.4 1.73 23.76-1.69 27.84-16.07 13.77-17.29 27.77-34.74 51.16-38.82a125.75 125.75 0 0145.73 0c41.16 8.1 80.67 21.68 119 38.71 21.24 9.44 42.79 18.25 63.81 28.16 12.59 5.94 24.44 13.47 36.62 20.29-9 8.52-20.29 12.63-31.64 16.64-9.42 1.09-18.77 2.68-28.29.19-2.93-.76-6.26 0-9.4.06l-15.06-.63c-17.5-1.77-34.85-5.26-52.57-4.51-17-3.26-33.92-6.63-51.2-.6-24.45 8.52-48.85 17.06-72.18 28.4-15.2 2.34-26.95 10-35.91 22.5-11.79 16.47-26.51 29.53-45.57 37.26-2.38 1-4.33 3-6.48 4.52-14.61 11.89-17.25 16.18-17.6 29.67 6.72-11 15.09-19.23 24.63-26.3 13.06-6.44 26.75-11.24 41.35-11.32 19.45-.11 37.5-5.09 54.93-13.13 8.61-1.67 15.9-6.39 22.91-11.09 20.77-13.92 41.67-27.5 65.32-36.18 17.17-5.31 34.43-10.21 52.29-12.65z"/><path class="cls-4" d="M544 1862.59c-2.29 30.77-5.83 61.7-14.31 91.89a109.89 109.89 0 01-10.43 25.81c-2.83 4.86-6.42 7.74-12.42 8.65-15.77 2.4-31.61 5-45 14.77-3.11 2.27-6.38 1.44-9.28-.45-36.71-23.81-69.14-52-91.43-90.38a51.28 51.28 0 01-2.8-5.28c-1.58-3.66-.48-6.14 3.21-7.92 30.59-14.78 61.9-27.54 95-35.51a160.91 160.91 0 0139.58-4.31c12 .14 24 0 36 .05 3.88.03 8-.7 11.88 2.68z"/><path class="cls-5" d="M685.68 1680.87l-88.22-1.34c5.74-5.33 13.3-2.75 19.86-4.54 5.2.7 10.33.62 15.27-1.4 3.15-.06 6.48-.82 9.41-.06 9.52 2.49 18.87.9 28.29-.19 2.68 3.54 6.47 3.59 10.42 3.5 3.18-.07 6.37.22 9.56.35z"/><path class="cls-3" d="M690.27 1677.19c-3.19-.13-6.38-.42-9.56-.35-4 .09-7.74 0-10.42-3.5 11.35-4 22.66-8.12 31.64-16.64 5.14.71 6.54 3.83 4.3 8.06-3.4 6.41-8.16 11.47-15.96 12.43z"/><path class="cls-6" d="M2156.82 1162l1.44 18c-1 4.44-1.49 8.74 3 11.73 2.66 27.2-6.18 52.29-14.37 77.45-2.25 6.9-5.4 13.52-8.15 20.26-1.62 3.94-4.18 6.73-8.76 7l4.59-23.07c1.93-1.38 2.57-3.12 1.51-5.34a58 58 0 001.14-19.52 36.13 36.13 0 00.31-5.67c-.12-1.19-1-2.31-1.57-3.46-.91.81-2.27 1.47-2.63 2.48a28.5 28.5 0 00-.9 5.58c-1.14 3.09-2.4 6.15-3.41 9.28-15 46-36.44 88.52-68.29 125.23-17.92 20.65-37.38 39.7-62.31 52.08-1.31-5.09.43-9.32 4.18-12.56 14.69-12.7 25-29.3 38.58-43a189.13 189.13 0 0021.59-26c15.77-23 32-45.6 44.39-70.81 10.16-20.68 13.81-42.78 18.12-64.87 1.48-7.58-3.06-14.16-3.71-21.47-2.5-28.26-14.79-51.49-34.5-72-18-18.83-38.62-32.49-63.36-39.79-10.74-3.17-21.87-6.14-33-6.76-23.77-1.32-45.37 3-55.07 29.21-.48 1.31-3.31 1.75-5 2.59-.33-17.51 3.9-34.14 10.32-50.2 7-17.37 19.78-29.54 36-38.37 25.81-14 53.24-14.48 81.31-9.8 33.53 5.58 56.23 24.87 70.59 55.1 12.34 26 19.44 53.48 24.49 81.63.58 3.25 1.38 6.45 2.07 9.68a4.66 4.66 0 001.4 5.39z"/><path class="cls-13" d="M2137.27 1248.49a58 58 0 01-1.14 19.52c-2.14 1.32-2.55 3.12-1.51 5.34l-4.59 23.07a2.07 2.07 0 00-.93 2.87c-2.31 1-2.89 2.76-2.37 5.06-30.5 66.9-74.13 124.81-121.62 180-6.62-3.8-9.46-9.17-13.07-13.77-5.28-6.71-10.22-13.7-15.31-20.56 4.22-8.44 14.17-8.91 20.34-14.63.49-.45.94-.94 1.4-1.41 24.93-12.38 44.39-31.43 62.31-52.08 31.85-36.71 53.31-79.23 68.29-125.23 1-3.13 2.27-6.19 3.41-9.28z"/><path class="cls-12" d="M2045.56 991.13l-35.91-.49c12.05-5.36 24.02-5.14 35.91.49z"/><path class="cls-5" d="M2161.31 1191.72c-4.54-3-4.06-7.29-3-11.73a4.34 4.34 0 012.93.14z"/><path class="cls-6" d="M2126.73 1304.35c-.52-2.3.06-4.09 2.37-5.06a4.36 4.36 0 01-2.37 5.06z"/><path class="cls-4" d="M375.05 1335.51c.05-5.16 3.39-8.34 6.82-11.52 14.08-13.06 31.2-20.11 49.73-22.82 24.34-3.56 48.85-3.36 72.81 3.33a123.84 123.84 0 0122.1 8.52 55.11 55.11 0 0114.27 10.51c10.38 10.59 9.14 22-3.21 29.86-4.94 3.16-10.72 5-16.12 7.46-14.43.49-26-4.8-38-13.35-33.45-23.79-70.07-27.92-108.4-11.99z"/><path class="cls-12" d="M375.05 1335.51c38.33-15.93 75-11.8 108.37 12 12 8.55 23.6 13.84 38 13.35-18.85 10.17-39.36 13.9-60.4 15.38-6.57.46-13.19.06-19.79.1-22.6.15-42.31-8.12-60.7-20.52-5.29-3.57-8.13-8.57-9.6-14.41-.71-2.92 1.55-4.76 4.12-5.9z"/><path class="cls-3" d="M310.28 1411.63l39.63 22.75c-6.82 7.1-13.65 5.76-20.2 1.91-10.29-6.06-18.69-14.37-26-23.76z"/><path class="cls-5" d="M310.28 1411.63l-6.59.9a19.83 19.83 0 01-3-2.29c-1.23-1.35-2.65-3-1.36-4.84.39-.55 2.62-.42 3.56.14 2.7 1.66 6.03 2.71 7.39 6.09z"/><path class="cls-3" d="M2156.82 1162a4.66 4.66 0 01-1.34-5.48 5 5 0 011.34 5.48z"/><path class="cls-13" d="M353.63 1760.53c2.15-1.53 4.1-3.56 6.48-4.52 19.06-7.73 33.78-20.79 45.57-37.26 9-12.51 20.71-20.16 35.91-22.5l3.93 3.33c-4.54 3.84-9.3 7.45-13.57 11.58-5.74 5.55-5.75 8.95-1.05 15.57 4.53 6.37 10.29 10.18 18.46 9.18l7.58 3.54c-17.43 8-35.48 13-54.93 13.13-14.6.08-28.29 4.88-41.35 11.31-2.53-.72-5.95.41-7.03-3.36zM617.32 1675c-6.56 1.79-14.12-.79-19.86 4.54-17.86 2.44-35.12 7.34-52.28 12.65-2.67-1-6.34 0-7.65-3.8a46.14 46.14 0 003.25-4.56c3.36-6.08 3.3-6.17-3.17-11.87 2.71-3.38 6.5-3.34 10.33-3.33 5.68 0 11.35-.11 17-.17 17.72-.75 35.07 2.74 52.57 4.51a12.6 12.6 0 00-.19 2.03z"/><path class="cls-3" d="M565 1668.45c-5.68.06-11.35.17-17 .17-3.83 0-7.62 0-10.33 3.33-16.4-1.75-31 2.73-44 12.7-3.1 2.37-6.25 4.66-10.53 4.68-13.41.07-25.27 5.94-37.54 10.25l-3.93-3.33c23.33-11.34 47.73-19.88 72.18-28.4 17.2-6.03 34.09-2.66 51.15.6z"/><path class="cls-5" d="M537.53 1688.38c1.31 3.76 5 2.76 7.65 3.8-23.66 8.68-44.56 22.26-65.33 36.18-7 4.7-14.3 9.42-22.91 11.09l-7.58-3.54c3-1.31 6-2.78 9.07-3.91 14.42-5.29 28.49-11.2 38.79-23.27 2.81-3.29 6.34-4.53 10.29-5.44 11.18-2.57 20.71-8.53 30.02-14.91zM353.63 1760.53c1.08 3.77 4.5 2.64 7 3.36-9.54 7.08-17.91 15.29-24.63 26.31.38-13.49 3-17.78 17.63-29.67z"/><path class="cls-3" d="M617.32 1675a12.6 12.6 0 01.22-2l15.06.63c-4.95 1.98-10.08 2.06-15.28 1.37z"/><path class="cls-2" d="M2137.27 1248.49l-4.79-1.07a28.5 28.5 0 01.9-5.58c.36-1 1.72-1.67 2.63-2.48.55 1.15 1.45 2.27 1.57 3.46a36.13 36.13 0 01-.31 5.67zM2134.62 1273.35c-1-2.22-.63-4 1.51-5.34 1.06 2.22.42 3.99-1.51 5.34z"/><path class="cls-6" d="M537.53 1688.38c-9.31 6.38-18.84 12.34-30 14.91-3.95.91-7.48 2.15-10.29 5.44-10.3 12.07-24.37 18-38.79 23.27-3.09 1.13-6.05 2.6-9.07 3.91-8.17 1-13.93-2.81-18.46-9.18-4.7-6.62-4.69-10 1.05-15.57 4.27-4.13 9-7.74 13.57-11.58 12.27-4.31 24.13-10.18 37.54-10.25 4.28 0 7.43-2.31 10.53-4.68 13-10 27.62-14.45 44-12.7 6.47 5.7 6.53 5.79 3.17 11.87a46.14 46.14 0 01-3.25 4.56z"/></g></g></svg>