<svg width="64" height="57" viewBox="0 0 64 57" fill="none" xmlns="http://www.w3.org/2000/svg">
<path d="M36.649 6.95934C36.649 3.49481 33.7984 0 27.4296 0C21.8216 0 18.0511 2.79656 18.0511 6.95934C18.0511 9.38897 19.0605 10.4969 19.7279 11.2308C20.0808 11.6173 20.2234 11.7919 20.2234 11.9664C20.2234 12.255 20.2234 12.4296 19.2031 12.4688L8.0528 12.4688C3.76492 12.4688 0.00182852 15.7979 0.00182852 19.5938L0.00182852 26.2414C0.0713123 27.9229 1.04591 28.9685 2.54713 28.9685C3.40105 28.9685 4.03371 28.4929 4.6481 28.0315C5.47093 27.417 6.40165 26.7188 8.23017 26.7188C11.3313 26.7188 14.63 29.2161 14.63 33.8438C14.63 38.5267 11.2875 41.7917 8.28685 41.7917C6.47662 41.7917 5.52944 41.0275 4.69198 40.3542C4.0648 39.8483 3.4175 39.3247 2.5453 39.3247C1.04591 39.3247 0.0694837 40.3703 0 42.0874L0 49.3941C0.00182852 53.3752 3.83989 57 8.0528 57H19.2598C20.9567 56.9323 22.0519 55.958 22.0519 54.5134C22.0519 53.6459 21.5454 53.0884 21.0975 52.5967C20.4977 51.9395 19.8797 51.2608 19.8797 49.5081C19.8797 46.3624 22.8126 44.33 27.3492 44.33C31.8876 44.33 34.8205 46.3624 34.8205 49.5081C34.8205 51.2608 34.2006 51.9395 33.6027 52.5967C33.1547 53.0884 32.6464 53.6459 32.6464 54.5134C32.6464 55.9776 33.7161 56.9287 35.4769 56.9982L42.6831 57C46.6181 57 49.3682 54.0128 49.3682 49.7361V41.4532C49.4157 41.2359 49.9789 40.4059 50.8383 40.4059C51.0139 40.4059 51.1912 40.5466 51.5862 40.8886C52.3359 41.5423 53.4714 42.5309 55.9618 42.5309C59.9553 42.5291 64 39.5473 64 33.8438C64 27.6913 60.3265 24.9375 56.6859 24.9375C54.2284 24.9375 52.8095 26.0312 51.8696 26.7544C51.4527 27.075 51.0614 27.3778 50.8383 27.3778C49.9771 27.3778 49.4139 26.5442 49.3718 26.3607L49.3682 26.318V19.9358C49.3682 15.6091 46.5559 12.4688 42.6831 12.4688H35.5135L35.4404 12.4634C34.4749 12.4278 34.4749 12.255 34.4749 11.9664C34.4749 11.7919 34.6175 11.6191 34.9704 11.2308C35.6378 10.4987 36.649 9.38897 36.649 6.95934ZM33.6027 10.0498C33.1547 10.5414 32.6464 11.1008 32.6464 11.9682C32.6464 12.9479 33.1053 14.1271 35.3361 14.2429C35.3786 14.248 35.4214 14.2503 35.4641 14.25H42.6831C45.8721 14.25 47.5433 17.1107 47.5433 19.9358V26.407C47.5433 26.4712 47.5305 26.5335 47.5433 26.5941C47.7116 27.6824 49.0829 29.1573 50.8383 29.1573C51.6977 29.1573 52.3304 28.6692 53.0051 28.1509C53.8755 27.4793 54.8647 26.7188 56.6859 26.7188C60.0175 26.7188 62.1715 29.5153 62.1715 33.8438C62.1715 38.589 58.9515 40.7479 55.9618 40.7479C54.1717 40.7479 53.4769 40.144 52.804 39.5598C52.2993 39.1216 51.727 38.6246 50.8383 38.6246C49.0829 38.6246 47.7097 40.1013 47.5433 41.1896C47.5305 41.2502 47.5433 41.3125 47.5433 41.3767V49.7378C47.5433 52.4649 46.0385 55.2188 42.6831 55.2188H35.5135C34.4749 55.1778 34.4749 54.7111 34.4749 54.5134C34.4749 54.3406 34.6175 54.166 34.9704 53.7777C35.6378 53.0438 36.649 51.9359 36.649 49.5063C36.649 46.0417 33.7746 42.5469 27.3492 42.5469C21.7886 42.5469 18.0511 45.3435 18.0511 49.5063C18.0511 51.9359 19.0605 53.0438 19.7297 53.7777C20.0808 54.1643 20.2253 54.3388 20.2253 54.5134C20.2253 54.7129 20.2253 55.1796 19.2232 55.2188H8.0528C4.91323 55.2188 1.83035 52.3331 1.83035 49.3941L1.83035 42.123C1.87058 41.1059 2.34416 41.1059 2.54713 41.1059C2.75924 41.1059 3.13225 41.4069 3.52904 41.7258C4.43965 42.4614 5.82018 43.5729 8.28868 43.5729C12.2328 43.5729 16.4585 39.6631 16.4585 33.8438C16.4585 28.0583 12.22 24.9375 8.23017 24.9375C5.77995 24.9375 4.42867 25.9492 3.53453 26.6208C3.1286 26.9254 2.77752 27.1872 2.54713 27.1872C2.34599 27.1872 1.8724 27.1872 1.83035 26.2057L1.83035 19.5938C1.83035 16.4445 5.11071 14.25 8.0528 14.25L19.2342 14.25L19.3201 14.2464C21.5784 14.1645 22.0519 12.9604 22.0519 11.9664C22.0519 11.099 21.5454 10.5414 21.0975 10.0498C20.4977 9.39253 19.8797 8.71388 19.8797 6.95934C19.8797 3.86175 22.9132 1.78125 27.4296 1.78125C31.9186 1.78125 34.8205 3.81366 34.8205 6.95934C34.8205 8.71209 34.2006 9.39253 33.6027 10.0498Z" fill="white"/>
</svg>
