<svg width="62" height="62" viewBox="0 0 62 62" fill="none" xmlns="http://www.w3.org/2000/svg">
<path d="M31 0.726562C14.2891 0.726562 0.726562 14.2891 0.726562 31C0.726562 47.7109 14.2891 61.2734 31 61.2734C47.7109 61.2734 61.2734 47.7109 61.2734 31C61.2734 14.2891 47.7109 0.726562 31 0.726562ZM58.125 28.7719L55.7031 28.9656L55.6547 28.4812L58.0766 28.2875L58.125 28.7719ZM58.125 30.5156V31H53.7656V30.5156H58.125ZM57.8344 26.4469L53.4266 27.2219L53.3297 26.7375L57.7375 25.9625L57.8344 26.4469ZM57.35 24.1219L54.9766 24.7516L54.8312 24.2672L57.2047 23.6375L57.35 24.1219ZM56.6719 21.8453L52.5063 23.3953L52.3609 22.9594L56.5266 21.4094L56.6719 21.8453ZM55.8 19.6172L53.6203 20.6344L53.4266 20.1984L55.6063 19.1812L55.8 19.6172ZM54.6859 17.5344L50.8109 19.7625L50.5688 19.3266L54.4438 17.0984L54.6859 17.5344ZM53.1844 15.1125L53.475 15.5L51.4891 16.9047L51.1984 16.5172L53.1844 15.1125ZM52.0219 13.6109L48.5828 16.4688L48.2922 16.0813L51.7313 13.2234L52.0219 13.6109ZM48.6797 10.2203L45.8219 13.6594L45.4344 13.3688L48.2922 9.92969L48.6797 10.2203ZM46.4031 8.47656L46.7906 8.76719L45.3859 10.7531L44.9984 10.4625L46.4031 8.47656ZM44.8531 7.45937L42.625 11.3344L42.1891 11.0922L44.4172 7.21719L44.8531 7.45937ZM42.2859 6.15156L42.7219 6.34531L41.7047 8.525L41.2687 8.33125L42.2859 6.15156ZM40.1063 5.27969L40.5422 5.425L38.9922 9.59062L38.5562 9.44531L40.1063 5.27969ZM37.8297 4.55312L38.3141 4.69844L37.6844 7.07188L37.2 6.92656L37.8297 4.55312ZM35.5047 4.06875L35.9891 4.16563L35.2141 8.57344L34.7297 8.47656L35.5047 4.06875ZM33.1313 3.77813L33.6156 3.82656L33.4219 6.24844L32.9375 6.2L33.1313 3.77813ZM30.5156 3.875H31V8.23438H30.5156V3.875ZM28.8687 3.77813L29.0625 6.2L28.5781 6.24844L28.3844 3.82656L28.8687 3.77813ZM26.4953 4.06875L27.2703 8.47656L26.7859 8.57344L26.0109 4.16563L26.4953 4.06875ZM24.1703 4.55312L24.8 6.92656L24.3156 7.07188L23.7344 4.69844L24.1703 4.55312ZM21.8938 5.27969L23.4438 9.44531L23.0078 9.59062L21.4578 5.425L21.8938 5.27969ZM19.7141 6.15156L20.7312 8.33125L20.2953 8.525L19.2781 6.34531L19.7141 6.15156ZM17.5828 7.21719L19.8109 11.0922L19.375 11.3344L17.1469 7.45937L17.5828 7.21719ZM15.5969 8.47656L17.0016 10.4625L16.6141 10.7531L15.2094 8.76719L15.5969 8.47656ZM13.7078 9.92969L16.5656 13.3688L16.1781 13.6594L13.3203 10.2203L13.7078 9.92969ZM11.9156 11.4797L13.6109 13.175L13.2719 13.5625L11.5766 11.8672L11.9156 11.4797ZM10.2688 13.2234L13.7078 16.0813L13.4172 16.4688L9.97813 13.6109L10.2688 13.2234ZM8.81563 15.1125L10.8016 16.5172L10.5109 16.9047L8.525 15.5L8.81563 15.1125ZM7.55625 17.0984L11.4313 19.3266L11.1406 19.7625L7.26562 17.5344L7.55625 17.0984ZM6.44219 19.1812L8.62187 20.1984L8.42812 20.6344L6.24844 19.6172L6.44219 19.1812ZM5.52187 21.4094L9.6875 22.9594L9.54219 23.3953L5.32812 21.8453L5.52187 21.4094ZM4.74688 23.6375L7.12031 24.2672L6.975 24.7516L4.60156 24.1219L4.74688 23.6375ZM4.21406 25.9625L8.62187 26.7375L8.525 27.2219L4.11719 26.4469L4.21406 25.9625ZM3.875 28.3359L6.29688 28.5297L6.24844 29.0141L3.82656 28.8203L3.875 28.3359ZM8.23438 30.5156V31H3.875V30.5156H8.23438ZM3.875 33.0828L6.29688 32.8891L6.34531 33.3734L3.92344 33.5672L3.875 33.0828ZM4.16563 35.4078L8.57344 34.6328L8.67031 35.1172L4.2625 35.8922L4.16563 35.4078ZM4.65 37.7328L7.02344 37.1031L7.16875 37.5875L4.79531 38.2172L4.65 37.7328ZM5.32812 40.0094L9.49375 38.4594L9.63906 38.8953L5.47344 40.4453L5.32812 40.0094ZM6.2 42.2375L8.37969 41.2203L8.57344 41.6562L6.39375 42.6734L6.2 42.2375ZM7.31406 44.3687L11.1891 42.1406L11.4313 42.5766L7.55625 44.8047L7.31406 44.3687ZM8.81563 46.7422L8.525 46.3547L10.5109 44.95L10.8016 45.3375L8.81563 46.7422ZM13.4172 45.3859L13.7078 45.7734L10.2688 48.6313L9.97813 48.2437L13.4172 45.3859ZM13.3203 51.6344L16.1781 48.1953L16.5656 48.4859L13.7078 51.925L13.3203 51.6344ZM15.5969 53.3781L15.2094 53.0875L16.6141 51.1016L17.0016 51.3922L15.5969 53.3781ZM17.1469 54.3953L19.375 50.5203L19.8109 50.7625L17.5828 54.6375L17.1469 54.3953ZM19.7141 55.7031L19.2781 55.5094L20.2953 53.3297L20.7312 53.5234L19.7141 55.7031ZM21.8938 56.6234L21.4578 56.4781L23.0078 52.3125L23.4438 52.4578L21.8938 56.6234ZM24.1703 57.3016L23.6859 57.1562L24.3156 54.7828L24.8 54.9281L24.1703 57.3016ZM26.4953 57.7859L26.0109 57.6891L26.7859 53.2812L27.2703 53.3781L26.4953 57.7859ZM28.8687 58.0766L28.3844 58.0281L28.5781 55.6063L29.0625 55.6547L28.8687 58.0766ZM31 58.125H30.5156V53.7656H31V58.125ZM33.1313 58.0766L32.9375 55.6547L33.4219 55.6063L33.6156 58.0281L33.1313 58.0766ZM10.1719 51.6828L28.4328 28.4328L51.6828 10.1719L33.8578 33.8578L10.1719 51.6828ZM35.5047 57.7859L34.7297 53.3781L35.2141 53.2812L35.9891 57.6891L35.5047 57.7859ZM37.8297 57.3016L37.2 54.9281L37.6844 54.7828L38.2656 57.1562L37.8297 57.3016ZM40.1063 56.6234L38.5562 52.4578L38.9922 52.3125L40.5422 56.4781L40.1063 56.6234ZM42.2859 55.7031L41.2687 53.5234L41.7047 53.3297L42.7219 55.5094L42.2859 55.7031ZM44.4172 54.6375L42.1891 50.7625L42.625 50.5203L44.8531 54.3953L44.4172 54.6375ZM46.4031 53.3781L44.9984 51.3922L45.3859 51.1016L46.7906 53.0875L46.4031 53.3781ZM48.2922 51.9734L45.4344 48.5344L45.8219 48.2437L48.6797 51.6828L48.2922 51.9734ZM50.0844 50.375L48.3891 48.6797L48.7281 48.3406L50.4234 50.0359L50.0844 50.375ZM51.7313 48.6313L48.2922 45.7734L48.5828 45.3859L52.0219 48.2437L51.7313 48.6313ZM53.1844 46.7422L51.1984 45.3375L51.4891 44.95L53.475 46.3547L53.1844 46.7422ZM54.4438 44.7563L50.5688 42.5281L50.8109 42.0922L54.6859 44.3203L54.4438 44.7563ZM55.5578 42.6734L53.3781 41.6562L53.5719 41.2203L55.7516 42.2375L55.5578 42.6734ZM56.4781 40.4937L52.3125 38.9438L52.4578 38.5078L56.6234 40.0578L56.4781 40.4937ZM57.2531 38.2172L54.8797 37.5875L55.025 37.1031L57.3984 37.7328L57.2531 38.2172ZM57.7859 35.8922L53.3781 35.1172L53.475 34.6328L57.8828 35.4078L57.7859 35.8922ZM58.125 33.5672L55.7031 33.3734L55.7516 32.8891L58.1734 33.0828L58.125 33.5672Z" fill="white"/>
</svg>
