<svg width="64" height="64" viewBox="0 0 64 64" fill="none" xmlns="http://www.w3.org/2000/svg">
<path d="M26.515 29.485L29.19 37.2L37.485 34.515L34.81 26.8L26.515 29.485Z" fill="white"/>
<path d="M26.515 29.485L29.19 37.2L37.485 34.515L34.81 26.8L26.515 29.485Z" fill="white"/>
<path d="M60.455 23.755C54.05 3.135 44.805 -1.675 23.465 4.5C2.125 10.675 -2.86 19.63 3.545 40.245C9.95 60.86 19.195 65.67 40.545 59.485C61.895 53.3 66.86 44.37 60.455 23.755ZM49.66 37.135L45.66 38.435L47.055 42.435C47.1908 42.8299 47.2449 43.2482 47.2143 43.6646C47.1836 44.081 47.0687 44.4869 46.8766 44.8576C46.6844 45.2283 46.4191 45.5561 46.0965 45.8213C45.7739 46.0864 45.4009 46.2833 45 46.4C44.6434 46.5154 44.2697 46.5695 43.895 46.56C43.2432 46.55 42.61 46.3418 42.0795 45.9631C41.5489 45.5844 41.1463 45.0531 40.925 44.44L39.53 40.44L31.235 43.1L32.63 47.1C32.7615 47.4914 32.8131 47.9052 32.7817 48.317C32.7503 48.7287 32.6366 49.1299 32.4473 49.4969C32.258 49.8638 31.9969 50.1891 31.6796 50.4533C31.3623 50.7175 30.9952 50.9153 30.6 51.035C30.2434 51.1504 29.8697 51.2045 29.495 51.195C28.8413 51.1915 28.2043 50.9886 27.6691 50.6133C27.1339 50.2381 26.726 49.7083 26.5 49.095L25.105 45.095L21.105 46.395C20.7483 46.5103 20.3747 46.5644 20 46.555C19.3483 46.545 18.715 46.3368 18.1845 45.9581C17.6539 45.5794 17.2513 45.0481 17.03 44.435C16.8985 44.0436 16.8469 43.6298 16.8783 43.218C16.9097 42.8063 17.0234 42.4051 17.2127 42.0381C17.402 41.6712 17.6631 41.3459 17.9804 41.0817C18.2977 40.8175 18.6648 40.6197 19.06 40.5L23.06 39.2L20.41 31.46L16.41 32.76C16.0534 32.8754 15.6797 32.9295 15.305 32.92C14.6533 32.91 14.02 32.7018 13.4895 32.3231C12.9589 31.9444 12.5563 31.4131 12.335 30.8C12.2035 30.4086 12.1519 29.9948 12.1833 29.583C12.2147 29.1713 12.3284 28.7701 12.5177 28.4031C12.707 28.0362 12.9681 27.7109 13.2854 27.4467C13.6027 27.1825 13.9698 26.9847 14.365 26.865L18.365 25.565L16.97 21.565C16.8338 21.1718 16.7786 20.7551 16.8076 20.3399C16.8367 19.9248 16.9494 19.5198 17.1391 19.1494C17.3287 18.779 17.5913 18.4508 17.9112 18.1845C18.231 17.9182 18.6013 17.7194 19 17.6C19.8007 17.3324 20.6743 17.3874 21.4351 17.7534C22.1959 18.1193 22.7842 18.7674 23.075 19.56L24.47 23.56L32.77 20.875L31.375 16.875C31.2435 16.4836 31.1919 16.0698 31.2233 15.658C31.2547 15.2463 31.3684 14.8451 31.5577 14.4781C31.747 14.1112 32.0081 13.7859 32.3254 13.5217C32.6427 13.2575 33.0098 13.0597 33.405 12.94C34.2089 12.6666 35.088 12.7192 35.8536 13.0866C36.6192 13.454 37.2103 14.1068 37.5 14.905L38.895 18.905L42.895 17.605C43.6957 17.3374 44.5693 17.3924 45.3301 17.7584C46.0909 18.1243 46.6792 18.7724 46.97 19.565C47.1015 19.9564 47.1531 20.3702 47.1217 20.782C47.0903 21.1937 46.9766 21.5949 46.7873 21.9619C46.598 22.3288 46.3369 22.6541 46.0196 22.9183C45.7023 23.1825 45.3352 23.3803 44.94 23.5L40.94 24.8L43.615 32.515L47.615 31.215C48.4157 30.9474 49.2893 31.0024 50.0501 31.3684C50.8109 31.7343 51.3992 32.3824 51.69 33.175C51.8254 33.5679 51.88 33.9842 51.8506 34.3987C51.8211 34.8133 51.7082 35.2176 51.5186 35.5875C51.3291 35.9573 51.0667 36.285 50.7473 36.551C50.4279 36.8169 50.0581 37.0155 49.66 37.135Z" fill="white"/>
</svg>
