<svg width="58" height="58" viewBox="0 0 58 58" fill="none" xmlns="http://www.w3.org/2000/svg">
<path d="M47.2596 4.61657C46.4186 1.5145 43.2224 -0.318325 40.1203 0.522658L4.61659 10.1479C1.51452 10.9888 -0.318304 14.1851 0.522679 17.2871L10.1478 52.7905C10.9889 55.8929 14.1851 57.7257 17.2871 56.8847L52.7909 47.2595C55.8929 46.4186 57.7257 43.2223 56.8847 40.1199L47.2596 4.61657ZM30.0521 42.4898C30.4349 43.902 29.4828 45.2165 28.0707 45.5993L17.928 48.349C16.5159 48.7318 15.2269 48.0249 14.844 46.6128L7.17029 18.3073C6.78736 16.8948 7.46552 15.3483 8.87764 14.9655L19.0203 12.2158C20.4324 11.833 21.9954 12.7718 22.3783 14.1843L30.0521 42.4898ZM43.7703 12.3087L46.9767 24.1361C47.3596 25.5482 46.5946 27.0389 45.1821 27.4219L35.0447 30.1702C33.6322 30.5531 32.1514 29.6708 31.7687 28.259L27.5347 12.6415C27.1518 11.229 28.0008 9.78115 29.4133 9.39821L39.5508 6.64991C40.9633 6.26698 42.3598 7.10603 42.7427 8.51852L43.7703 12.3087Z" fill="white"/>
</svg>
