<svg width="22" height="30" viewBox="0 0 22 30" fill="none" xmlns="http://www.w3.org/2000/svg">
<path d="M5.801 15.105C5.98542 15.0263 6.18374 14.9854 6.38424 14.9847C6.58475 14.9839 6.78336 15.0234 6.96834 15.1008C7.15332 15.1781 7.32092 15.2918 7.46123 15.435C7.60153 15.5782 7.7117 15.7482 7.78521 15.9347C7.85872 16.1212 7.89409 16.3206 7.88923 16.5211C7.88436 16.7215 7.83936 16.9189 7.75688 17.1017C7.6744 17.2845 7.55612 17.4488 7.40903 17.5851C7.26193 17.7213 7.08902 17.8267 6.9005 17.895C5.89781 18.2901 5.03724 18.9778 4.43076 19.8686C3.82427 20.7595 3.49995 21.8123 3.5 22.89V25.5C3.5 25.8978 3.65804 26.2794 3.93934 26.5607C4.22064 26.842 4.60218 27 5 27H17C17.3978 27 17.7794 26.842 18.0607 26.5607C18.342 26.2794 18.5 25.8978 18.5 25.5V23.0295C18.5002 21.9172 18.1623 20.8311 17.5312 19.9152C16.9 18.9994 16.0054 18.2969 14.966 17.901C14.7763 17.8352 14.6018 17.7319 14.4527 17.5974C14.3037 17.4629 14.1831 17.2998 14.0983 17.1178C14.0134 16.9358 13.966 16.7387 13.9587 16.538C13.9515 16.3373 13.9846 16.1373 14.0561 15.9497C14.1276 15.762 14.2361 15.5907 14.3751 15.4458C14.514 15.3008 14.6807 15.1853 14.8651 15.1059C15.0496 15.0266 15.2481 14.9851 15.4489 14.9839C15.6496 14.9827 15.8486 15.0219 16.034 15.099C17.6414 15.7113 19.0248 16.7975 20.001 18.2138C20.9771 19.63 21.4999 21.3094 21.5 23.0295V25.5C21.5 26.6935 21.0259 27.8381 20.182 28.682C19.3381 29.5259 18.1935 30 17 30H5C3.80653 30 2.66193 29.5259 1.81802 28.682C0.974106 27.8381 0.5 26.6935 0.5 25.5V22.89C0.500206 21.2102 1.00592 19.5694 1.95134 18.181C2.89677 16.7925 4.23815 15.7207 5.801 15.105ZM11 0C12.5913 0 14.1174 0.632141 15.2426 1.75736C16.3679 2.88258 17 4.4087 17 6V9C17 10.5913 16.3679 12.1174 15.2426 13.2426C14.1174 14.3679 12.5913 15 11 15C9.4087 15 7.88258 14.3679 6.75736 13.2426C5.63214 12.1174 5 10.5913 5 9V6C5 4.4087 5.63214 2.88258 6.75736 1.75736C7.88258 0.632141 9.4087 0 11 0ZM11 3C10.2044 3 9.44129 3.31607 8.87868 3.87868C8.31607 4.44129 8 5.20435 8 6V9C8 9.79565 8.31607 10.5587 8.87868 11.1213C9.44129 11.6839 10.2044 12 11 12C11.7956 12 12.5587 11.6839 13.1213 11.1213C13.6839 10.5587 14 9.79565 14 9V6C14 5.20435 13.6839 4.44129 13.1213 3.87868C12.5587 3.31607 11.7956 3 11 3Z" fill="black"/>
</svg>
