<svg width="60" height="60" viewBox="0 0 60 60" fill="none" xmlns="http://www.w3.org/2000/svg">
<path d="M48.2596 5.61657C47.4186 2.5145 44.2224 0.681675 41.1203 1.52266L5.61659 11.1479C2.51452 11.9888 0.681696 15.1851 1.52268 18.2871L11.1478 53.7905C11.9889 56.8929 15.1851 58.7257 18.2871 57.8847L53.7909 48.2595C56.8929 47.4186 58.7257 44.2223 57.8847 41.1199L48.2596 5.61657ZM31.0521 43.4898C31.4349 44.902 30.4828 46.2165 29.0707 46.5993L18.928 49.349C17.5159 49.7318 16.2269 49.0249 15.844 47.6128L8.17029 19.3073C7.78736 17.8948 8.46552 16.3483 9.87764 15.9655L20.0203 13.2158C21.4324 12.833 22.9954 13.7718 23.3783 15.1843L31.0521 43.4898ZM44.7703 13.3087L47.9767 25.1361C48.3596 26.5482 47.5946 28.0389 46.1821 28.4219L36.0447 31.1702C34.6322 31.5531 33.1514 30.6708 32.7687 29.259L28.5347 13.6415C28.1518 12.229 29.0008 10.7811 30.4133 10.3982L40.5508 7.64991C41.9633 7.26698 43.3598 8.10603 43.7427 9.51852L44.7703 13.3087Z" fill="white"/>
</svg>
